<?xml version="1.0" encoding="UTF-8" standalone="no"?><svg xmlns="http://www.w3.org/2000/svg" xmlns:xlink="http://www.w3.org/1999/xlink" fill="#ffffff" height="338.5" preserveAspectRatio="xMidYMid meet" version="1" viewBox="-3.0 -3.0 338.5 338.5" width="338.5" zoomAndPan="magnify"><g id="change1_1"><path d="M329.77,220.9c-15.09-13.76-41.25-35.6-75.69-56.74c33.38-22.77,58.45-45.86,72.85-60.34c5.5-5.53,1.35-14.88-6.43-14.52 c-20.4,0.94-54.34,3.99-93.64,13.4c7.5-39.7,8.9-73.76,8.85-94.18c-0.02-7.79-9.56-11.48-14.82-5.72 c-13.76,15.09-35.6,41.25-56.74,75.69c-22.77-33.38-45.86-58.45-60.33-72.85c-5.53-5.5-14.88-1.35-14.52,6.43 c0.94,20.4,3.99,54.34,13.4,93.64c-39.7-7.5-73.76-8.9-94.18-8.85c-7.79,0.02-11.48,9.56-5.72,14.82 c15.09,13.76,41.25,35.6,75.69,56.74c-33.38,22.77-58.45,45.86-72.85,60.34c-5.5,5.53-1.35,14.88,6.43,14.52 c20.4-0.94,54.34-3.99,93.64-13.4c-7.5,39.7-8.9,73.76-8.85,94.18c0.02,7.79,9.56,11.48,14.82,5.72 c13.76-15.09,35.6-41.25,56.74-75.69c22.77,33.38,45.86,58.45,60.33,72.85c5.53,5.5,14.88,1.35,14.52-6.43 c-0.94-20.4-3.99-54.34-13.4-93.64c39.7,7.5,73.76,8.9,94.18,8.85C331.85,235.7,335.53,226.15,329.77,220.9z M166.29,200.87 c-19.1,0-34.58-15.48-34.58-34.58c0-19.1,15.48-34.58,34.58-34.58c19.1,0,34.58,15.48,34.58,34.58 C200.87,185.39,185.39,200.87,166.29,200.87z"/></g></svg>