<?xml version="1.0" encoding="UTF-8" standalone="no"?><svg xmlns="http://www.w3.org/2000/svg" xmlns:xlink="http://www.w3.org/1999/xlink" fill="#000000" height="500" preserveAspectRatio="xMidYMid meet" version="1" viewBox="-4.7 0.0 457.8 500.0" width="457.8" zoomAndPan="magnify"><g id="change1_1"><path d="M419.82,297.54c-13.34-30.26-6.09-81.25,6.71-110.31c0.03-0.06,19.7-44.69,19.7-44.69 c6.84-15.51-3.56-33.16-20.44-34.7c-34.94-3.19-72.29-3.29-104.44-19.22c-31.77-15.74-49.93-46.77-69.99-74.68 C244.68,4.65,234.43,0,224.18,0c-10.25,0-20.49,4.64-27.17,13.92c-19.48,27.07-40.87,54.75-69.91,72.15 c-32.81,19.66-67.79,18.43-104.52,21.77c-16.89,1.54-27.29,19.19-20.45,34.7c0,0,19.67,44.62,19.7,44.69 c12.81,29.05,20.05,80.04,6.71,110.31c0,0-26.41,59.92-26.41,59.92c-6.84,15.52,3.56,33.17,20.45,34.7c0,0,37.3,3.4,37.3,3.4 c0,0,12.64,1.15,12.65,1.15c44.71,4.07,81.39,29.43,106.95,64.98c0,0,17.52,24.38,17.52,24.38c6.68,9.29,16.93,13.94,27.18,13.94 c10.25,0,20.5-4.65,27.18-13.94c0,0,17.52-24.38,17.52-24.38c25.56-35.55,62.24-60.91,106.95-64.98c0,0,12.65-1.15,12.65-1.15 c0,0,37.3-3.4,37.3-3.4c16.89-1.54,27.29-19.19,20.45-34.7C446.23,357.46,419.82,297.54,419.82,297.54z M385.3,256.78h-27.53 c-12.87,0-25.65,2.74-37.2,8.45c-17.06,8.43-33.05,19.73-47.25,33.93c-14.2,14.2-25.5,30.19-33.93,47.25 c-5.7,11.54-8.45,24.32-8.45,37.19v27.53c0,3.74-3.03,6.78-6.78,6.78s-6.78-3.03-6.78-6.78v-27.47c0-13.59-3.21-26.99-9.37-39.11 c-8.32-16.36-19.32-31.71-33-45.39c-13.68-13.68-29.03-24.68-45.39-33c-12.11-6.16-25.51-9.37-39.11-9.37H63.06 c-3.74,0-6.78-3.03-6.78-6.78s3.03-6.78,6.78-6.78h27.53c12.87,0,25.65-2.74,37.19-8.44c17.06-8.43,33.05-19.73,47.25-33.93 c13.68-13.68,24.68-29.03,33-45.39c6.16-12.11,9.37-25.51,9.37-39.11V88.88c0-3.74,3.03-6.78,6.78-6.78s6.78,3.03,6.78,6.78v27.47 c0,13.59,3.21,26.99,9.37,39.11c8.32,16.36,19.32,31.71,33,45.39c13.68,13.68,29.03,24.68,45.39,33 c12.12,6.16,25.51,9.37,39.11,9.37h27.47c3.74,0,6.78,3.03,6.78,6.78S389.04,256.78,385.3,256.78z" fill="#fd883d"/></g></svg>