<?xml version="1.0" encoding="UTF-8" standalone="no"?><svg xmlns="http://www.w3.org/2000/svg" xmlns:xlink="http://www.w3.org/1999/xlink" fill="#d46bca" height="506.6" preserveAspectRatio="xMidYMid meet" version="1" viewBox="-8.8 -7.4 513.5 506.6" width="513.5" zoomAndPan="magnify"><g id="change1_1"><path d="M501.9,293.9c-1.6-20.2-13.4-38-31.1-47.6c-13-7.1-27.8-8.7-42.3-7.4c-14.4,1.3-28.1,6.9-42.7,5.9 c-14.2-0.9-28.1-5-40.2-12.5c-9.3-5.7-17.1-13.2-23.6-21.7c-0.7-0.9-1.4-1.9-2.1-2.8c-2-2.7-3.9-5.6-5.6-8.5 c52.7,13.3,114.1,16.4,139.6-29.8c19.1-28.4,11.6-67-16.8-86.1c-16.8-11.3-38-13.2-56.6-5.4c-13.6,5.7-24.1,16.3-32.1,28.5 c-7.9,12.1-12.1,26.3-22,37c-9.6,10.5-21.4,18.9-34.8,23.7c-14.6,5.2-30.1,6-45.3,3.9c43.3-32.9,84-79,63.7-127.7 c-10.3-32.7-45.1-50.8-77.8-40.5c-19.3,6.1-34,21.5-39.5,40.9c-4,14.2-2.3,29,2.2,42.9c4.5,13.7,13,25.9,15.3,40.3 c2.2,14,1.4,28.5-3.2,42c-5,14.7-14.1,27.3-25.2,37.8c1.3-54.3-9.4-114.9-60.1-129.4C89.7,65.1,53.8,81,41.5,113 c-7.3,18.9-4.4,40,7.3,56.4c8.6,12,21.2,19.9,34.9,25c13.5,5.1,28.3,6,41,13.2c12.4,7,23.2,16.7,30.9,28.7 c3.6,5.6,6.4,11.5,8.5,17.7c-0.2,2.6-0.4,5.1-0.4,7.7c0,4.8,0.4,9.5,1.2,14.1c-41-33.2-92.7-59.4-134.1-29.9 C1.1,263.1-8.8,301,8.5,330.6C18.7,348.1,37,359,57.2,360c14.7,0.8,28.8-4.2,41.3-11.7c12.4-7.4,22.3-18.4,35.9-23.8 c13.2-5.3,27.5-7.7,41.7-6.2c3.4,0.4,6.8,0.9,10.1,1.7c6,6.7,13,12.4,20.8,17c-49.6,11.9-98.6,36-101.3,84.9 c-4.9,33.9,18.6,65.3,52.5,70.2c20,2.9,40-4.6,53.4-19.7c9.8-11.1,14.7-25.1,16.6-39.6c1.9-14.3-0.4-28.9,3.7-42.9 c4.1-13.6,11.1-26.3,21.1-36.5c1.7-1.7,3.4-3.3,5.2-4.8c10.1-0.8,19.7-3.3,28.5-7.3c-21.5,46.1-33,99.2,3.4,131.7 c23.5,25,62.7,26.2,87.7,2.7c14.7-13.9,21.3-34.1,17.9-54c-2.5-14.5-10.5-27.1-20.6-37.7c-10-10.4-22.9-17.7-31.2-29.7 c-8.1-11.7-13.6-25.1-15.4-39.2c-0.5-4-0.7-8.1-0.5-12.1c4.6-8.4,7.8-17.7,9.4-27.5c22.5,47.6,57.7,93.6,107.8,85.1 C479.2,357.9,504.7,328,501.9,293.9z M251.1,328.8c-37.6,0-68.1-30.5-68.1-68.1c0-37.6,30.5-68.1,68.1-68.1 c37.6,0,68.1,30.5,68.1,68.1C319.2,298.3,288.7,328.8,251.1,328.8z"/></g></svg>