<?xml version="1.0" encoding="UTF-8" standalone="no"?><svg xmlns="http://www.w3.org/2000/svg" xmlns:xlink="http://www.w3.org/1999/xlink" fill="#553566" height="442.2" preserveAspectRatio="xMidYMid meet" version="1" viewBox="-7.0 -9.2 395.2 442.2" width="395.2" zoomAndPan="magnify"><g id="change1_1"><path d="M371.76,234.58l-77.3,98.33c-7.14,9.09-13.63,18.81-19.29,28.89l-34.28,61.13 c-4.18,7.46-13.65,10.06-21.06,5.78L84.97,350.73c-4.51-2.61-6.11-8.33-3.61-12.9l-59.43-34.36c-8.17-4.72-10.18-15.63-4.23-22.95 l21.54-26.51c-5.03-9.5-7.74-20.18-7.74-31.19l0-0.38c0.04-9.77-5.56-27.29-11.99-37.41L7.79,166.57 C-7,143.3-0.1,112.34,23.17,97.55c2.5-1.59,5.1-2.92,7.78-4.03c-1.71-32.03,17.6-65.22,51.24-82.49 c39.51-20.28,85.34-11.68,108.69,18.45c0.32-0.05,0.64-0.1,0.97-0.14c13.29-1.59,26.37,2.07,36.85,10.31 c8.13,6.39,13.95,14.95,16.9,24.67c7.35,1.57,14.29,4.81,20.36,9.58c1.57,1.23,3.39,2.8,5.35,4.75c8.52,1.24,16.71,4.65,23.67,10.13 c8.13,6.39,13.95,14.95,16.9,24.67c7.35,1.57,14.29,4.81,20.36,9.58c9.79,7.7,15.93,18.35,18.15,29.72 c6.34,2.39,12.21,6.15,17.16,11.1C386.32,182.62,388.18,213.7,371.76,234.58z" fill="#faefe6"/></g><g id="change2_1"><path d="M354.1,177.27c-5.97-5.97-13.71-8.99-21.75-8.51c-0.24,0.01-0.48,0.03-0.71,0.05c2.38-11.21-1.56-23.32-11.16-30.87 c-6.49-5.1-14.6-7.37-22.85-6.38c-0.95,0.11-1.9,0.27-2.83,0.47c0.31-2.5,0.32-5.06,0.01-7.64c-0.99-8.24-5.1-15.59-11.59-20.7 c-6.17-4.85-13.81-7.13-21.64-6.5c-1.93-3.22-4.41-6.04-7.38-8.38c-6.49-5.1-14.6-7.37-22.85-6.38c-0.95,0.11-1.9,0.27-2.83,0.47 c0.31-2.5,0.32-5.06,0.01-7.64c-0.99-8.24-5.1-15.59-11.59-20.7c-6.49-5.1-14.6-7.37-22.85-6.38c-8.24,0.99-15.59,5.1-20.66,11.55 l-77.19,96.11l-20.1-32.73c-9.17-14.43-28.37-18.71-42.8-9.54c-6.97,4.43-11.8,11.33-13.61,19.43c-1.81,8.1-0.36,16.4,4.06,23.37 l11.72,18.45c7.4,11.65,15.02,32.7,14.95,47.74l0,0.24c0,11.96,4.48,23.39,12.46,32.13l-23.37,28.76c-1.11,1.36-1.56,3.14-1.24,4.87 c0.32,1.73,1.38,3.23,2.9,4.11l66.16,38.25l-1.54,1.9c-1.11,1.36-1.56,3.14-1.24,4.87c0.32,1.73,1.38,3.23,2.9,4.11l113.36,65.53 c0.92,0.53,1.96,0.81,3,0.81c0.53,0,1.07-0.07,1.59-0.21c1.55-0.42,2.86-1.45,3.65-2.85l29.49-52.59 c6.13-10.94,13.17-21.48,20.92-31.34l77.3-98.33C367.22,209.61,366,189.17,354.1,177.27z M220.1,101.46 c3.12-3.97,7.63-6.49,12.69-7.1c5.06-0.61,10.03,0.78,14,3.9c0.96,0.75,1.83,1.59,2.61,2.5c-3.72,1.98-7.02,4.72-9.68,8.11 l-77.19,96.11l-10.31-16.79L220.1,101.46z M182.85,67.21c3.12-3.97,7.63-6.49,12.69-7.1c5.06-0.61,10.03,0.78,14,3.9 c3.97,3.12,6.49,7.63,7.1,12.69c0.61,5.06-0.78,10.03-3.92,14.03c0,0-17.64,22.66-35.27,45.33c-8.82,11.34-17.64,22.69-24.25,31.21 c-3.15,4.06-5.79,7.47-7.7,9.95l-3.06-4.98c-4.43-6.97-11.33-11.8-19.43-13.61c-4.56-1.01-9.17-1-13.58-0.01L182.85,67.21z M53.33,285.82l22.4-27.56c2.05-2.52,1.72-6.22-0.75-8.34c-7.93-6.8-12.48-16.68-12.48-27.11l0-0.17 c0.08-17.91-8.61-41.32-16.82-54.25l-11.72-18.45c-5.62-8.85-3-20.62,5.85-26.24c8.85-5.62,20.62-3,26.19,5.77l24.51,39.91 c0.24,0.39,0.52,0.74,0.84,1.06c-7.38,10.01-8.3,23.95-1.24,35.06l11.72,18.45c7.4,11.65,15.02,32.7,14.95,47.74l0,0.24 c0,11.96,4.48,23.39,12.46,32.13l-14.17,17.43L53.33,285.82z M347.39,215.42l-77.3,98.33c-8.13,10.34-15.52,21.41-21.95,32.88 l-26.51,47.28l-102.01-58.97l22.4-27.56c2.05-2.52,1.72-6.22-0.75-8.34c-7.93-6.8-12.48-16.68-12.48-27.11l0-0.17 c0.08-17.91-8.61-41.32-16.82-54.25l-11.72-18.45c-5.62-8.85-3-20.62,5.85-26.24c4.26-2.71,9.35-3.59,14.32-2.48 c4.98,1.11,9.21,4.07,11.87,8.25l24.51,39.91c1.02,1.66,2.79,2.73,4.74,2.85c1.95,0.12,3.83-0.71,5.06-2.23l82.56-102.8 c3.12-3.97,7.63-6.49,12.69-7.1c5.06-0.61,10.04,0.78,14.01,3.9c3.97,3.12,6.49,7.63,7.1,12.69c0.61,5.06-0.78,10.03-3.9,14 c0,0-16.38,20.78-32.75,41.59c-8.19,10.4-16.37,20.82-22.51,28.64c-3.07,3.92-5.63,7.18-7.42,9.48c-0.98,1.26-1.75,2.25-2.35,3.06 l-0.42,0.53l0.03,0.02c-1.46,2.09-1.59,2.98-1.21,4.88c0.46,2.29,2.21,4.11,4.48,4.66c2.27,0.54,4.66-0.28,6.11-2.11l63.42-80 c3.12-3.97,7.63-6.49,12.69-7.1c5.06-0.61,10.03,0.78,14,3.9c8.24,6.48,9.67,18.45,3.2,26.69l-4.4,5.6 c-0.03,0.04-0.07,0.08-0.1,0.12l-53.07,67.5c-2.05,2.6-1.6,6.38,1.01,8.42c2.6,2.05,6.38,1.6,8.42-1.01l53.14-67.59 c3.06-3.84,7.24-6.11,11.79-6.38c4.58-0.27,9.04,1.51,12.55,5.02C353.23,193.37,354.04,206.96,347.39,215.42z M138.22,26.97 c-0.22-3.31,2.28-6.17,5.59-6.38c3.3-0.22,6.16,2.28,6.38,5.59l2.19,32.88c0.22,3.31-2.28,6.17-5.59,6.38 c-0.14,0.01-0.27,0.01-0.4,0.01c-3.13,0-5.77-2.43-5.98-5.6L138.22,26.97z M57.04,78.68c1.46-2.97,5.06-4.2,8.03-2.74l29.57,14.55 c2.97,1.46,4.2,5.06,2.74,8.03c-1.04,2.12-3.17,3.35-5.39,3.35c-0.89,0-1.79-0.2-2.64-0.62L59.78,86.71 C56.81,85.25,55.58,81.65,57.04,78.68z M91,46.33c-1.84-2.75-1.11-6.48,1.65-8.32c2.75-1.84,6.48-1.11,8.32,1.65l18.33,27.38 c1.84,2.75,1.11,6.48-1.65,8.32c-1.03,0.69-2.19,1.01-3.33,1.01c-1.93,0-3.83-0.93-4.99-2.66L91,46.33z"/></g></svg>