<?xml version="1.0" encoding="UTF-8" standalone="no"?><svg xmlns="http://www.w3.org/2000/svg" xmlns:xlink="http://www.w3.org/1999/xlink" fill="#553566" height="268.4" preserveAspectRatio="xMidYMid meet" version="1" viewBox="0.0 0.0 500.0 268.4" width="500" zoomAndPan="magnify"><g id="change1_1"><path d="M250,0C141.2,0,70.2,81.8,0,134.2c70.2,52.4,141.2,134.2,250,134.2s179.8-81.8,250-134.2C429.8,81.8,358.8,0,250,0z M246.5,250c-61.2-1.8-110.4-51.1-112.3-112.3h65.5c17.5,5.1,34.6,15.5,41.7,31.3c2,4.5,3.7,9.4,5,14.5V250z M246.5,84.9 c-1.3,5.1-3,10-5,14.5c-7.1,15.8-24.2,26.2-41.7,31.3h-65.5C136,69.5,185.3,20.2,246.5,18.4V84.9z M253.5,18.4 c61.2,1.9,110.4,51.1,112.3,112.3h-65.5c-17.5-5.1-34.6-15.5-41.7-31.3c-2-4.5-3.7-9.4-5-14.5V18.4z M253.5,250v-66.5 c1.3-5.1,3-10,5-14.5c7.1-15.8,24.2-26.2,41.7-31.3h65.5C364,198.9,314.7,248.2,253.5,250z"/></g></svg>