<?xml version="1.0" encoding="UTF-8" standalone="no"?><svg xmlns="http://www.w3.org/2000/svg" xmlns:xlink="http://www.w3.org/1999/xlink" fill="#000000" height="481.3" preserveAspectRatio="xMidYMid meet" version="1" viewBox="-0.0 0.0 362.0 481.3" width="362" zoomAndPan="magnify"><g><g id="change1_1"><path d="M347.48,27.91c-2.4,3.22-3.59,6.86-3.56,10.91c0.06,9.37,5.54,15.06,17.74,18.29 c-0.05,10.23-0.11,20.49-0.17,30.72c-12.84,3.49-18.13,9.13-17.93,19c0.19,9.13,5.97,15.02,17.65,17.8 c-0.06,10.28-0.11,20.61-0.17,30.92c-11.66,2.36-17.75,8.55-17.85,18.08c-0.11,9.67,5.67,15.8,17.68,18.64 c-0.06,10.21-0.11,20.46-0.17,31.01c-5.86,0.47-10.91,2.74-14.47,7.66c-2.49,3.44-3.59,7.31-3.41,11.56 c0.39,8.99,6.44,14.99,17.7,17.37c-0.05,10.23-0.11,20.49-0.17,31.04c-6.03,0.46-11.13,2.84-14.68,7.93 c-2.36,3.38-3.41,7.17-3.22,11.32c0.41,8.9,6.19,14.61,17.73,17.37c-0.05,10.24-0.11,20.51-0.17,30.75 c-12.77,3.67-17.88,8.93-17.93,18.38c-0.05,9.4,4.98,14.67,17.72,18.54c-0.06,10.26-0.11,20.53-0.17,30.77 c-12.14,2.68-18.01,8.84-17.92,18.7c0.08,9.36,6.27,15.72,17.67,18.02c-0.03,6.02-0.06,12.07-0.1,18.63 c-4.31-0.02-8.66-0.05-13.01-0.07c-4.29-0.02-8.59-0.05-13.21-0.07c-0.41-6.15-2.83-11.24-7.88-14.81 c-3.28-2.32-6.97-3.37-11.01-3.25c-8.95,0.26-14.37,5.62-17.75,17.72c-10.21-0.05-20.47-0.11-30.7-0.16 c-3.38-12.79-9.5-18.37-19.58-17.89c-9,0.42-15.37,6.91-17.13,17.62c-10.3-0.05-20.63-0.11-30.95-0.17 c-2.95-12.38-9.23-18.17-19.26-17.83c-9.12,0.31-15.68,6.89-17.42,17.66c-10.3-0.05-20.64-0.11-30.96-0.17 c-2.95-12.37-9.01-18.05-18.98-17.86c-9.2,0.18-15.47,6.37-17.76,17.67c-10.21-0.05-20.47-0.11-31-0.17 c-0.61-6.15-3.05-11.43-8.45-14.96c-3.28-2.14-6.89-3.08-10.81-2.91c-8.87,0.39-14.3,5.85-17.42,17.69 c-8.6-0.05-17.24-0.09-26.03-0.14c0.03-6.22,0.07-12.28,0.1-18.6c5.84-0.4,10.78-2.68,14.34-7.45c2.47-3.31,3.64-7.05,3.56-11.21 c-0.18-9.19-5.69-14.84-17.74-17.98c0.05-10.23,0.11-20.49,0.17-30.72c12.82-3.49,18.13-9.15,17.93-19 c-0.18-9.13-5.97-15.02-17.65-17.81c0.06-10.28,0.11-20.6,0.17-30.92c11.67-2.36,17.74-8.54,17.85-18.08 c0.11-9.67-5.68-15.82-17.68-18.64c0.05-10.21,0.11-20.46,0.17-31.02c5.99-0.47,11.09-2.83,14.64-7.9 c2.37-3.38,3.42-7.17,3.24-11.31c-0.4-9-6.39-14.93-17.7-17.38c0.06-10.23,0.11-20.48,0.17-31.01c5.92-0.49,10.97-2.76,14.52-7.71 c2.41-3.36,3.52-7.12,3.4-11.26c-0.27-9.01-6.02-14.79-17.74-17.67c0.05-10.24,0.11-20.5,0.17-30.74 c12.73-3.62,17.88-8.92,17.93-18.39c0.05-9.39-4.93-14.6-17.71-18.53C2.16,75.61,2.21,65.34,2.27,55.1 c12.15-2.67,17.99-8.82,17.91-18.72C20.1,27.06,13.96,20.76,2.5,18.38C2.53,12.36,2.56,6.3,2.6,0c8.63,0.05,17.27,0.09,26.23,0.14 c0.42,5.92,2.82,11.02,7.89,14.58c3.29,2.31,6.97,3.37,11.01,3.25c8.94-0.27,14.31-5.59,17.74-17.72 C75.68,0.3,85.93,0.35,96.17,0.41c3.29,12.74,9.48,18.38,19.58,17.89c8.98-0.43,15.27-6.83,17.14-17.63 c10.29,0.06,20.63,0.11,30.95,0.17c2.84,12.33,9.17,18.18,19.26,17.84c9.12-0.31,15.66-6.88,17.42-17.66 c10.31,0.05,20.65,0.11,30.96,0.17c2.87,12.32,9,18.06,18.97,17.86c9.21-0.19,15.45-6.36,17.76-17.67 c10.21,0.05,20.47,0.11,31.01,0.17c0.57,6.05,2.96,11.26,8.2,14.8c3.33,2.25,7.03,3.24,11.06,3.07 c8.86-0.38,14.28-5.85,17.41-17.69c8.6,0.05,17.24,0.09,26.03,0.14c-0.03,6.22-0.07,12.28-0.1,18.6 C355.98,20.87,351.04,23.13,347.48,27.91z" fill="#faefe6"/></g><g id="change2_1"><path d="M116.48,86.62c-2.29,5.45-6.6,10.85-12.95,16.18c1.29-7.7,2.67-15.08,4.12-22.15 c3.42-1.42,5.92-2.2,7.53-2.34C118.39,78.18,118.83,80.95,116.48,86.62z M159.47,116.61l3.58-35.42 c-4.77,14.13-8.92,26.81-12.45,38.03L159.47,116.61z M327.94,170.63c-0.52,0.2-1.06,0.31-1.61,0.47c-0.56,0.17-1.07,0.24-1.61,0.35 c-0.06,0.01-0.11,0.02-0.16,0.03c-0.03,0.98-0.05,1.97-0.08,2.95c-0.01,0.35-0.03,0.75-0.02,1.04l0.05,1.09 c0.03,0.72,0.07,1.44,0.1,2.16c0.05,1.16,0.11,2.28,0.15,3.43c0.46-0.15,0.92-0.3,1.38-0.45c0.45-0.2,0.9-0.4,1.33-0.6 c1.7-0.87,3.23-2.07,4.46-3.24c0.12-0.12,0.23-0.24,0.34-0.35v-9.38c-0.82,0.7-1.72,1.35-2.81,1.89 C328.96,170.22,328.46,170.42,327.94,170.63z M329.53,193.5c1.09-1.15,1.94-2.36,2.74-3.47v252.9H28.42l0.19-38.79L30.47,23.9 l301.8,5.55V166.2c-1.01,0.92-2.18,1.82-3.47,2.4c-0.45,0.17-0.91,0.33-1.38,0.51c-0.47,0.16-0.96,0.26-1.45,0.4 c-0.42,0.13-0.9,0.2-1.38,0.28l0.02-0.83l0.01-0.56l0-0.14l0-0.12l0-0.07l-0.02-0.28c-0.05-0.75-0.09-1.5-0.14-2.26 c-0.09-1.5-0.18-3-0.28-4.51c-0.01-1.49-0.02-2.98-0.03-4.47c-0.01-1.5-0.01-3.06-0.05-4.58c-0.03-1.52-0.06-3.05-0.08-4.58 c-0.04-1.53,0.05-3.03,0.06-4.54l0.05-2.3l0.03-1.15c0.01-0.48-0.04-0.82-0.05-1.24l-0.07-1.2l-0.16-1.18 c-0.09-0.8-0.23-1.39-0.27-2.18c-0.04-0.74-0.11-1.57-0.12-2.24l-0.08-2.29c-0.05-1.51-0.11-3.02-0.16-4.52 c0.02-0.72,0-1.44,0.04-2.16c0.07-0.75,0.14-1.51,0.21-2.26c0.05-0.41,0.05-0.78,0.05-1.15l0.01-1.12c0.01-0.83-0.07-1.56-0.1-2.34 c-0.05-0.75-0.19-1.56-0.27-2.24l-0.14-1.02l-0.06-1.09l-0.06-1.05l-0.03-1.09c-0.02-0.72-0.04-1.44-0.05-2.16 c-0.03-1.43-0.09-2.86-0.09-4.26c0.03-1.39,0.06-2.78,0.09-4.14c0.01-0.69,0.02-1.38,0.03-2.06l0.01-0.51l0-0.13l0-0.11l0-0.07 l-0.02-0.26l-0.07-1.05c-0.03-0.7-0.13-1.39-0.24-2.07c-0.09-0.68-0.2-1.23-0.26-1.88c-0.04-0.64-0.08-1.28-0.12-1.92 c0.01-0.64,0.02-1.28,0.03-1.91c0.02-1.27,0.04-2.52,0.06-3.75l0.01-0.92l0.01-0.46c0.01-0.24-0.02-0.33-0.03-0.5 c-0.05-0.61-0.09-1.22-0.14-1.82c-0.09-1.2-0.18-2.37-0.27-3.52c-0.04-0.55-0.1-1.18-0.12-1.65c0.01-0.54,0.02-1.07,0.03-1.59 c-0.01-0.53,0.12-1.04,0.17-1.55c0.08-0.56,0.15-1.12,0.23-1.67c0.04-0.54,0.03-1.04,0.04-1.56c0-0.27,0.01-0.54,0.01-0.81 c-0.02-0.25-0.04-0.5-0.06-0.75c-0.07-1-0.15-1.96-0.22-2.9c-0.07-0.93-0.14-1.83-0.2-2.7c-0.02-0.22-0.03-0.43-0.05-0.65 l-0.01-0.16c0-0.02-0.01-0.08,0-0.05l0-0.08l-0.01-0.32c-0.01-0.42-0.02-0.83-0.03-1.23c-0.03-1.61-0.06-3.09-0.09-4.43 c-0.13-5.36-0.21-8.42-0.21-8.42c-0.01-0.22-0.18-0.4-0.41-0.4c-0.23,0-0.41,0.18-0.42,0.41c0,0-0.04,3.06-0.11,8.42 c-0.01,1.34-0.03,2.83-0.04,4.44c0,0.41-0.01,0.82-0.01,1.24l0,0.32l0,0.08l0,0.11l0.01,0.16c0.01,0.21,0.02,0.43,0.03,0.65 c0.04,0.87,0.08,1.77,0.12,2.7c0.04,0.92,0.08,1.88,0.13,2.86c0.01,0.25,0.02,0.49,0.03,0.74c-0.01,0.24-0.02,0.47-0.03,0.71 c-0.03,0.5-0.03,1.04-0.09,1.54c-0.08,0.49-0.16,0.98-0.24,1.48c-0.07,0.55-0.22,1.11-0.22,1.68c-0.02,0.57-0.05,1.16-0.07,1.74 c0.01,0.65,0.06,1.15,0.09,1.75c0.07,1.14,0.14,2.31,0.2,3.49c0.03,0.59,0.07,1.18,0.1,1.78c0,0.13,0.03,0.34,0.02,0.41l-0.02,0.46 l-0.03,0.92c-0.04,1.24-0.09,2.51-0.13,3.79c-0.02,0.65-0.04,1.3-0.07,1.96c0.03,0.66,0.06,1.33,0.09,2 c0.04,0.66,0.17,1.41,0.24,2.06c0.08,0.64,0.17,1.28,0.18,1.93l0.05,0.97l0.01,0.24l0,0.06c0,0.03,0-0.05,0,0.01l0,0.13l-0.02,0.51 c-0.02,0.68-0.05,1.37-0.07,2.06c-0.04,1.4-0.07,2.81-0.11,4.23c0,1.42,0.05,2.83,0.07,4.27c0.01,0.72,0.03,1.44,0.04,2.16 l0.02,1.09l0.06,1.13l0.06,1.09l0.14,1.16l0.14,1.09c0.04,0.35,0.1,0.7,0.11,1.06c0.02,0.69,0.1,1.45,0.08,2.1l-0.02,1.12 c0,0.38-0.01,0.75-0.06,1.08c-0.07,0.74-0.14,1.47-0.22,2.21c-0.05,0.78-0.04,1.57-0.06,2.35c0.04,1.51,0.09,3.03,0.13,4.55 l0.07,2.27c0.02,0.85,0.08,1.55,0.11,2.33c0.03,0.73,0.2,1.65,0.28,2.37l0.14,1.09l0.06,1.09c0.01,0.35,0.05,0.77,0.05,1.05 l-0.02,1.15l-0.04,2.3c-0.01,1.55-0.09,3.11-0.03,4.64c0.04,1.53,0.07,3.06,0.11,4.58c0.05,1.53,0.05,3.02,0.07,4.55 c0.02,1.54,0.04,3.07,0.06,4.6c0.1,1.5,0.2,2.99,0.3,4.48c0.05,0.74,0.1,1.47,0.15,2.2l0.02,0.27l0,0.07c0-0.08,0,0.02,0,0.02 l0,0.14l-0.01,0.56l-0.02,1.11c0,0.02,0,0.03,0,0.05c-1.94,0.07-3.87-0.36-5.51-1.69c-0.79-0.62-1.59-1.54-2.29-2.5 c-0.71-0.97-1.4-2.03-2.13-3.1c-0.72-1.08-1.39-2.11-2.1-3.25c-0.71-1.12-1.53-2.36-2.37-3.36c-0.94-1.13-1.96-2.1-3.12-3 c-0.27-0.24-0.58-0.45-0.91-0.65l-0.97-0.61c-0.33-0.22-0.64-0.36-0.96-0.51l-0.95-0.45l-0.24-0.11l-0.06-0.03 c0.04,0.01-0.12-0.05-0.13-0.05l-0.13-0.04l-0.53-0.18l-1.07-0.35c-0.74-0.16-1.47-0.32-2.23-0.45c-0.77-0.06-1.58-0.15-2.33-0.16 l-1.08,0.05l-0.54,0.02l-0.27,0.01l-0.14,0.01c-0.01,0-0.18,0.02-0.14,0.01l-0.08,0.01c-1.63,0.19-3.16,0.83-4.5,1.61 c-0.67,0.39-1.3,0.82-1.93,1.26c-0.59,0.42-1.2,0.88-1.8,1.33c-0.6,0.44-1.18,0.94-1.77,1.41c-0.58,0.5-1.17,1.04-1.73,1.56 l-0.78,0.8l-0.39,0.4c-0.19,0.18-0.27,0.31-0.41,0.47c-0.5,0.61-1.01,1.22-1.43,1.84l-1.28,1.77c-0.38,0.57-0.91,1.14-1.38,1.71 l-0.18,0.21l-0.04,0.05c0,0,0,0.01-0.01,0.01l-0.09,0.08l-0.38,0.34l-0.76,0.69c-0.58,0.42-1.13,0.84-1.74,1.26l-1.86,1.25 l-0.93,0.63c-0.35,0.25-0.64,0.47-0.95,0.71c-1.2,0.94-2.3,1.87-3.47,2.56c-2.25,1.38-5.14,1.46-8.07,1.62 c-1.46,0.06-2.89,0.11-4.28,0.05c-0.7-0.01-1.31-0.13-1.97-0.17l-1.05-0.24l-0.53-0.12l-0.1-0.02c-0.01,0-0.02-0.01-0.02-0.01 l-0.06-0.02l-0.22-0.08c-1.2-0.42-2.31-1.13-3.39-1.97c-1.05-0.84-2.23-1.8-3.21-2.66c-0.51-0.44-1.02-0.88-1.53-1.32 c-0.51-0.44-0.97-0.98-1.45-1.46c-0.47-0.48-0.93-0.96-1.39-1.44c-0.46-0.52-0.91-1.03-1.36-1.54c-0.46-0.51-0.9-1.02-1.36-1.51 c-0.46-0.48-0.92-0.96-1.38-1.43l-0.68-0.71l-0.34-0.35c-0.17-0.16-0.27-0.24-0.41-0.36l-0.78-0.67l-0.39-0.33l-0.42-0.29 c-1.07-0.79-2.28-1.5-3.41-2.05c-0.58-0.27-1.08-0.53-1.72-0.79c-0.57-0.24-1.15-0.48-1.74-0.7c-1.19-0.43-2.4-0.76-3.67-0.91 c-0.32-0.03-0.66-0.08-0.95-0.08c-0.29,0-0.58-0.01-0.86-0.01c-0.6,0.03-1.19,0.07-1.78,0.1c-2.28,0.19-4.51,0.58-6.49,1.16 c-2.01,0.62-3.83,1.4-5.52,2.25c-0.4,0.22-0.79,0.44-1.18,0.66c-0.2,0.11-0.37,0.2-0.59,0.34c-0.19,0.12-0.37,0.25-0.55,0.37 c-0.36,0.25-0.72,0.49-1.07,0.72c-0.35,0.24-0.65,0.52-0.97,0.77c-0.64,0.49-1.21,1.01-1.75,1.51c-0.55,0.49-1.03,0.98-1.5,1.43 c-0.48,0.46-0.91,0.92-1.32,1.33c-0.41,0.43-0.81,0.79-1.13,1.24c-0.71,0.81-1.1,1.62-1.44,2.25c-0.65,1.24-0.99,1.91-0.99,1.91 c-0.1,0.19-0.03,0.44,0.16,0.55c0.2,0.11,0.45,0.05,0.56-0.15c0,0,0.37-0.65,1.07-1.86c0.36-0.59,0.75-1.33,1.42-2.03 c0.29-0.38,0.72-0.73,1.12-1.13c0.42-0.4,0.85-0.83,1.33-1.26c1.93-1.79,4.24-3.81,7.5-5.37c1.59-0.74,3.36-1.44,5.28-1.96 c1.95-0.52,3.98-0.84,6.17-0.98c0.53-0.02,1.07-0.04,1.62-0.07c0.29,0.01,0.57,0.02,0.86,0.03c0.29,0.01,0.52,0.06,0.78,0.08 c1.05,0.15,2.14,0.45,3.22,0.87c0.54,0.2,1.08,0.44,1.64,0.69c0.49,0.21,1.09,0.53,1.64,0.79c1.1,0.57,2.07,1.17,3.05,1.92 l0.37,0.27l0.34,0.31l0.68,0.61l0.32,0.29l0.33,0.36l0.67,0.72c0.45,0.48,0.9,0.97,1.35,1.46c0.45,0.49,0.87,1,1.3,1.5 c0.44,0.5,0.88,1.01,1.32,1.51c0.48,0.51,0.97,1.01,1.45,1.52c0.49,0.49,0.92,1.01,1.46,1.49c0.54,0.48,1.09,0.95,1.63,1.43 c1.12,0.99,2.13,1.82,3.3,2.76c1.16,0.91,2.48,1.79,4.01,2.34l0.28,0.1l0.07,0.03c0.06,0.02-0.03,0,0.14,0.04l0.13,0.03l0.53,0.13 l1.06,0.25c0.78,0.09,1.62,0.23,2.37,0.25c1.52,0.08,3.02,0.03,4.51-0.02c0.73-0.03,1.47-0.06,2.24-0.11 c0.38-0.03,0.76-0.04,1.14-0.08l1.16-0.16c0.77-0.06,1.57-0.34,2.35-0.52l0.15-0.04c0.01,0,0.16-0.05,0.13-0.04l0.06-0.03l0.26-0.1 l0.52-0.21c0.37-0.18,0.79-0.39,1.15-0.59c1.41-0.82,2.6-1.82,3.75-2.71l0.84-0.63l0.92-0.64l1.85-1.26 c0.62-0.42,1.26-0.92,1.88-1.38l0.9-0.82l0.45-0.41l0.11-0.1l0.13-0.15l0.18-0.21c0.48-0.58,0.97-1.11,1.43-1.78l1.33-1.86 c0.86-1.23,1.68-2.18,2.77-3.27c0.52-0.49,1.02-0.95,1.56-1.42c0.56-0.45,1.09-0.92,1.68-1.35c2.32-1.78,4.59-3.48,7.1-3.79 l0.06-0.01c0.08-0.01-0.05,0-0.01,0l0.14-0.01l0.27-0.01l0.54-0.03l1.08-0.05c0.68,0.01,1.3,0.1,1.94,0.13 c0.65,0.11,1.3,0.25,1.94,0.38l0.94,0.31l0.47,0.15l0.12,0.04c0.01,0,0.01,0,0,0l0.05,0.02l0.24,0.11l0.95,0.44 c0.32,0.15,0.64,0.29,0.89,0.47l0.79,0.5c0.27,0.16,0.53,0.33,0.78,0.54c1.03,0.77,2.01,1.67,2.81,2.6 c0.92,1.05,1.57,2.04,2.3,3.13c0.7,1.09,1.46,2.22,2.19,3.27c1.49,2.06,2.78,4.28,4.97,5.98l0.75,0.51l0.91,0.5 c0.3,0.12,0.61,0.25,0.91,0.37c0.31,0.11,0.62,0.18,0.93,0.27c1.02,0.24,2.04,0.3,3.02,0.26c-0.02,0.9-0.04,1.8-0.06,2.69 c0,0.38-0.02,0.71-0.01,1.14l0.06,1.09c0.04,0.72,0.08,1.44,0.12,2.16c0.06,1.27,0.15,2.56,0.19,3.78c-0.06,0-0.12,0.01-0.16,0.02 c-0.25,0.02-0.51,0.05-0.76,0.07c-1.02,0.04-2.03-0.11-3-0.48c-0.24-0.08-0.48-0.19-0.71-0.32c-0.24-0.11-0.47-0.24-0.68-0.38 c-0.4-0.23-0.98-0.67-1.36-0.99c-0.9-0.74-1.77-1.54-2.6-2.39c-0.39-0.44-0.78-0.87-1.18-1.32c-0.38-0.5-0.76-1.01-1.15-1.51 c-0.74-1.05-1.5-2.11-2.26-3.19c-0.82-1.02-1.65-2.05-2.49-3.1c-0.28-0.33-0.48-0.53-0.72-0.8l-0.72-0.75 c-0.5-0.5-1.02-0.98-1.58-1.45c-0.57-0.46-1.17-0.88-1.82-1.27c-0.33-0.18-0.7-0.4-1.02-0.54l-0.47-0.21l-0.24-0.11 c-0.17-0.07-0.2-0.07-0.3-0.11c-1.39-0.5-2.81-0.91-4.37-1.05l-1.17-0.1c-0.4-0.04-0.72,0.01-1.09,0.01l-1.07,0.04l-0.27,0.01 c-0.17,0.01-0.09,0.01-0.14,0.02l-0.07,0.01l-0.14,0.02l-0.57,0.1l-1.15,0.21c-0.37,0.1-0.74,0.24-1.11,0.36 c-0.37,0.14-0.75,0.22-1.1,0.4l-1.08,0.53l-0.54,0.27l-0.46,0.3l-0.91,0.59l-0.28,0.19l-0.22,0.18l-0.44,0.36l-0.89,0.73 l-0.89,0.73c-0.3,0.24-0.6,0.49-0.84,0.75l-1.55,1.56l-0.78,0.78l-0.14,0.14l-0.09,0.1l-0.18,0.21l-0.36,0.42l-1.44,1.68 c-0.97,1.1-1.94,2.2-2.92,3.3c-1.01,1.04-2.05,2.1-3.11,3c-0.27,0.23-0.52,0.46-0.8,0.69l-0.88,0.68l-0.44,0.34 c-0.08,0.07-0.28,0.2-0.41,0.29l-0.89,0.62c-0.59,0.4-1.2,0.77-1.8,1.14l-0.89,0.47c-0.29,0.16-0.58,0.32-0.94,0.46l-1.02,0.42 l-0.26,0.1l-0.06,0.03c-0.01,0-0.01,0-0.01,0.01l-0.12,0.04l-0.51,0.17c-0.69,0.24-1.37,0.44-2.05,0.62 c-0.69,0.22-1.34,0.31-2,0.45c-0.31,0.08-0.69,0.11-1.05,0.15l-1.09,0.11l-0.14,0.01l-0.07,0.01c0,0,0,0,0,0c0,0,0,0,0,0 l-0.25-0.01l-0.5-0.02l-1-0.03c-0.67-0.08-1.34-0.2-2.01-0.32c-0.67-0.18-1.32-0.32-2.01-0.53c-0.7-0.21-1.37-0.41-2.03-0.64 c-0.67-0.21-1.33-0.44-1.95-0.7c-0.31-0.13-0.64-0.24-0.94-0.38l-0.84-0.43c-0.56-0.23-1.15-0.68-1.73-1.07l-0.22-0.15l-0.09-0.06 c0,0,0,0,0,0l-0.04-0.04l-0.35-0.33l-0.7-0.65c-0.46-0.46-0.87-1-1.3-1.48c-0.43-0.55-0.86-1.09-1.28-1.63 c-0.45-0.54-0.83-1.04-1.33-1.59c-0.47-0.5-0.94-1-1.41-1.5c-0.93-1.01-1.89-1.92-2.83-2.83c-0.92-0.89-1.91-1.85-2.96-2.66 c-2.13-1.68-4.44-2.89-6.9-3.56c-0.62-0.15-1.21-0.34-1.86-0.39c-0.32-0.04-0.63-0.08-0.94-0.12l-0.47-0.06l-0.44-0.01 c-0.6-0.01-1.18-0.02-1.77-0.03c-0.57,0.02-1.13,0.04-1.69,0.06c-1.13,0.07-2.21,0.09-3.35,0.25c-0.56,0.07-1.12,0.13-1.61,0.26 c-0.25,0.06-0.51,0.11-0.76,0.17l-0.37,0.08c-0.22,0.05-0.28,0.09-0.42,0.14c-2.04,0.64-3.77,1.64-5.35,2.56 c-1.54,0.95-3.01,1.79-4.33,2.66c-0.67,0.41-1.3,0.88-1.9,1.32c-0.63,0.42-1.09,0.9-1.59,1.32c-0.99,0.94-1.78,1.74-2.44,2.6 c-0.66,0.85-1.02,1.7-1.32,2.31c-0.29,0.61-0.53,1.09-0.7,1.41c-0.17,0.32-0.25,0.48-0.25,0.48c-0.1,0.19-0.03,0.44,0.16,0.55 c0.2,0.11,0.45,0.04,0.56-0.15c0,0,0.09-0.16,0.27-0.47c0.18-0.31,0.45-0.77,0.78-1.4c0.34-0.62,0.69-1.36,1.3-2.08 c0.6-0.72,1.47-1.55,2.39-2.36c1.01-0.87,2.1-1.64,3.44-2.42c1.31-0.81,2.81-1.61,4.37-2.5c1.57-0.85,3.23-1.73,5.09-2.25 c0.1-0.03,0.27-0.1,0.3-0.1l0.38-0.08c0.25-0.05,0.51-0.1,0.76-0.15c0.52-0.13,1.01-0.16,1.51-0.21c0.97-0.12,2.08-0.13,3.17-0.18 c0.55-0.01,1.11-0.02,1.68-0.03c0.55,0.02,1.11,0.04,1.67,0.06l0.43,0.02l0.4,0.06l0.8,0.13c0.53,0.05,1.08,0.23,1.62,0.38 c2.16,0.62,4.31,1.81,6.14,3.33c0.95,0.77,1.81,1.63,2.74,2.57c0.92,0.93,1.87,1.86,2.73,2.84c0.45,0.48,0.9,0.96,1.35,1.45 c0.4,0.45,0.85,1.03,1.27,1.55c0.41,0.54,0.83,1.07,1.25,1.61c0.48,0.55,0.91,1.12,1.43,1.65l0.82,0.78l0.41,0.39l0.05,0.05 c0,0.01,0.16,0.12,0.12,0.09l0.11,0.07l0.22,0.15c0.59,0.39,1.11,0.81,1.85,1.16l1.05,0.54c0.35,0.16,0.69,0.28,1.03,0.43 c0.69,0.29,1.38,0.53,2.07,0.76c2.71,0.89,5.65,1.9,8.94,1.68l1.09-0.1c0.36-0.03,0.72-0.06,1.12-0.15c0.77-0.15,1.59-0.28,2.3-0.5 c0.74-0.19,1.47-0.4,2.18-0.65l0.54-0.17l0.13-0.04l0.19-0.07l0.26-0.1l1.03-0.41c0.34-0.12,0.7-0.31,1.06-0.5l1.07-0.56 c0.67-0.4,1.33-0.8,1.96-1.22l0.94-0.65c0.17-0.12,0.28-0.19,0.49-0.35l0.44-0.34l0.88-0.68c0.29-0.24,0.59-0.51,0.88-0.76 c1.19-1.03,2.22-2.1,3.27-3.19c0.98-1.12,1.97-2.25,2.95-3.37l1.43-1.69l0.36-0.42l0.18-0.21l0.09-0.11 c0.02-0.03-0.04,0.04,0.01-0.01l0.05-0.05l0.77-0.79l1.54-1.57c0.25-0.28,0.52-0.49,0.79-0.71l0.8-0.66l0.8-0.66l0.4-0.33l0.2-0.16 c0,0,0.01-0.01,0.01,0l0.06-0.04l0.11-0.08l0.91-0.6l0.45-0.3l0.43-0.21l0.86-0.43c0.28-0.15,0.62-0.22,0.92-0.34 c0.31-0.1,0.62-0.22,0.94-0.31l0.97-0.18l0.48-0.09l0.12-0.02l0.06-0.01c-0.01,0,0.02,0,0.04-0.01l0.22-0.01l1.07-0.05 c0.34,0,0.73-0.06,1.04-0.02l0.94,0.09c1.26,0.1,2.56,0.46,3.78,0.89l0.19,0.06l0.24,0.11l0.48,0.21c0.32,0.14,0.54,0.29,0.81,0.43 c0.53,0.31,1.06,0.68,1.56,1.07c0.99,0.78,1.95,1.76,2.77,2.66c0.86,1.03,1.7,2.04,2.54,3.05c0.77,1.05,1.53,2.08,2.27,3.1 c0.39,0.5,0.78,1,1.17,1.49c0.45,0.49,0.9,0.97,1.34,1.45c0.92,0.91,1.85,1.74,2.82,2.5c0.13,0.1,0.21,0.18,0.39,0.3l0.36,0.26 c0.23,0.17,0.5,0.35,0.79,0.52c0.28,0.18,0.57,0.33,0.86,0.46c0.29,0.15,0.58,0.27,0.89,0.37c1.21,0.44,2.48,0.59,3.69,0.52 c0.29-0.02,0.57-0.06,0.85-0.09c0,0.98-0.01,1.96-0.01,2.93c0,0.7-0.01,1.39-0.01,2.08l0,0.52c0,0.24,0.02,0.36,0.02,0.55 l0.06,1.01c0.02,0.66,0.12,1.37,0.21,2.07c0.08,0.68,0.19,1.29,0.23,1.93c0.02,0.3,0.04,0.59,0.05,0.89 c-0.13,0.05-0.25,0.11-0.38,0.16c-0.45,0.2-0.94,0.29-1.41,0.45c-0.46,0.16-1.01,0.24-1.54,0.35c-0.26,0.05-0.51,0.1-0.77,0.15 c-0.25,0.02-0.51,0.05-0.76,0.08c-1.02,0.07-2.06-0.01-3.05-0.32c-0.24-0.09-0.49-0.17-0.73-0.27l-0.71-0.35l-0.66-0.4l-0.72-0.53 c-0.4-0.37-0.8-0.75-1.2-1.13c-0.39-0.43-0.75-0.89-1.14-1.34c-0.73-0.96-1.44-1.97-2.16-3.03c-0.73-1.05-1.57-2.1-2.37-3.18 c-0.82-1.06-1.71-2.02-2.57-3.05c-0.92-1.05-1.91-2.06-3.03-2.98c-0.26-0.25-0.58-0.45-0.9-0.67l-0.96-0.63 c-0.33-0.24-0.63-0.34-0.94-0.5l-0.94-0.45l-0.12-0.06l-0.06-0.03c0.05,0.02-0.13-0.06-0.14-0.06l-0.27-0.09l-0.55-0.17 c-0.37-0.11-0.73-0.24-1.1-0.32c-0.75-0.1-1.49-0.28-2.26-0.31l-1.15-0.04c-0.39-0.02-0.77-0.02-1.11,0.01l-1.07,0.07l-0.53,0.03 l-0.13,0.01c-0.14,0.02-0.12,0.02-0.19,0.03l-0.29,0.05c-0.76,0.16-1.56,0.22-2.29,0.53l-1.12,0.39c-0.36,0.16-0.72,0.36-1.08,0.54 c-0.76,0.36-1.33,0.77-1.94,1.17l-0.23,0.15l-0.11,0.08l-0.1,0.07l-0.06,0.04l-0.45,0.33l-0.89,0.67 c-0.58,0.47-1.17,0.93-1.75,1.43c-0.56,0.52-1.2,1.04-1.68,1.57l-0.77,0.79c-0.32,0.32-0.5,0.58-0.75,0.87l-1.42,1.72 c-0.96,1.13-1.92,2.26-2.88,3.39l-1.51,1.42c-0.52,0.48-0.99,0.99-1.61,1.44l-1.75,1.37l-0.44,0.34l-0.22,0.17 c0.06-0.05-0.01,0.01-0.01,0.01l-0.06,0.04l-0.11,0.08l-0.89,0.61c-0.59,0.42-1.21,0.76-1.81,1.14c-0.62,0.32-1.18,0.64-1.83,0.94 c-2.64,1.2-5.27,1.54-8.22,1.71c-0.69,0.05-1.39,0.02-2.09,0.04c-0.7,0-1.38-0.09-2.07-0.13c-0.67-0.11-1.29-0.18-1.98-0.33 l-1.05-0.27l-0.26-0.07l-0.07-0.02c0,0-0.01,0-0.03-0.01l-0.1-0.04l-0.46-0.16c-2.44-0.88-4.5-2.79-6.72-4.51 c-0.53-0.43-1.06-0.86-1.59-1.29c-0.49-0.43-0.97-0.86-1.45-1.29c-0.95-0.98-1.88-1.96-2.81-2.92c-0.93-0.96-1.86-1.91-2.77-2.85 l-0.68-0.7l-0.37-0.37l-0.35-0.34c-0.46-0.45-0.93-0.9-1.42-1.35c-0.98-0.89-1.98-1.72-3.2-2.42c-0.31-0.2-0.57-0.3-0.85-0.44 l-0.21-0.1l-0.05-0.03c-0.09-0.05-0.06-0.03-0.1-0.04l-0.11-0.04l-0.46-0.17c-0.61-0.22-1.21-0.46-1.83-0.58 c-0.62-0.14-1.22-0.31-1.86-0.36c-0.31-0.04-0.63-0.08-0.94-0.11l-0.47-0.05l-0.44-0.01c-0.6,0-1.1-0.03-1.77-0.02 c-0.59,0.05-1.17,0.09-1.75,0.14c-2.29,0.27-4.43,0.82-6.38,1.39c-1.95,0.56-3.82,1.17-5.57,1.95c-0.4,0.21-0.8,0.41-1.19,0.61 l-0.29,0.15c-0.17,0.09-0.21,0.13-0.32,0.19c-0.18,0.12-0.37,0.24-0.55,0.36c-0.36,0.24-0.72,0.47-1.06,0.7 c-0.33,0.25-0.66,0.5-0.98,0.74c-1.28,0.96-2.37,1.97-3.3,2.85c-0.96,0.92-1.77,1.68-2.51,2.41c-0.76,0.68-1.3,1.46-1.72,2.05 c-0.69,1.21-1.06,1.85-1.06,1.85l-0.01,0.01c-0.11,0.19-0.05,0.43,0.14,0.55c0.19,0.12,0.45,0.06,0.57-0.13c0,0,0.4-0.63,1.14-1.8 c0.42-0.52,0.87-1.15,1.65-1.8c0.75-0.67,1.61-1.44,2.57-2.3c0.98-0.88,2.04-1.79,3.29-2.67c0.31-0.22,0.63-0.45,0.96-0.68 c0.34-0.21,0.69-0.42,1.04-0.63c0.18-0.11,0.35-0.22,0.53-0.32c0.08-0.04,0.21-0.13,0.24-0.14l0.29-0.14 c0.39-0.19,0.8-0.38,1.2-0.58c1.59-0.63,3.4-1.17,5.36-1.67c1.96-0.52,3.98-1,6.12-1.21c0.53-0.03,1.07-0.07,1.62-0.1 c0.01,0,0.11-0.01,0.06,0l0.11,0l0.21,0.01l0.43,0.02c0.29,0.01,0.57,0.02,0.86,0.03l0.44,0.01l0.4,0.06l0.81,0.12 c0.54,0.05,1.08,0.22,1.63,0.35c0.56,0.11,1.08,0.34,1.61,0.54l0.4,0.15l0.1,0.04c0,0,0.02,0.01,0.03,0.01l0.04,0.02l0.21,0.1 c0.26,0.14,0.58,0.28,0.78,0.43c0.92,0.55,1.87,1.34,2.76,2.19c0.45,0.43,0.89,0.88,1.35,1.33l0.34,0.35l0.14,0.15l0.17,0.18 l0.67,0.72c0.89,0.96,1.8,1.93,2.71,2.91c0.92,0.97,1.86,1.96,2.8,2.95c0.52,0.49,1.07,0.98,1.61,1.46 c0.54,0.44,1.08,0.89,1.63,1.34c1.09,0.87,2.15,1.76,3.33,2.64c1.17,0.88,2.5,1.7,3.97,2.25l0.55,0.2l0.14,0.05l0.18,0.05 l0.26,0.07l1.04,0.28c0.72,0.17,1.53,0.29,2.29,0.41c0.76,0.05,1.52,0.15,2.28,0.16c0.76-0.01,1.52,0.02,2.29-0.03 c2.86-0.12,6.19-0.54,8.96-1.82c0.7-0.31,1.43-0.7,2.13-1.07c0.65-0.41,1.34-0.78,1.96-1.22l0.94-0.65l0.28-0.2l0.22-0.17 l0.44-0.35l1.74-1.38c0.59-0.43,1.14-1.01,1.71-1.53l1.72-1.65c0.95-1.14,1.9-2.27,2.85-3.41l1.39-1.71 c0.23-0.27,0.48-0.61,0.68-0.81l0.77-0.8c0.51-0.56,1.03-0.96,1.53-1.45c0.52-0.46,1.09-0.91,1.64-1.36l0.86-0.65l0.43-0.32 l0.04-0.03c0.01-0.01,0.02-0.01,0.02-0.01l0.11-0.08l0.23-0.15c0.6-0.4,1.22-0.84,1.78-1.09c0.29-0.14,0.57-0.3,0.86-0.44 l0.93-0.32c0.6-0.27,1.27-0.31,1.9-0.45l0.24-0.05c0.02-0.01,0.13-0.02,0.07-0.02l0.13-0.01l0.53-0.04l1.07-0.07 c0.37-0.04,0.69-0.03,1.01-0.01l0.97,0.03c0.65,0.02,1.29,0.17,1.93,0.25c0.31,0.07,0.61,0.18,0.91,0.27l0.45,0.14l0.23,0.07 c0.01,0,0,0,0,0l0.04,0.02l0.12,0.06l0.94,0.45c0.3,0.16,0.66,0.28,0.89,0.47l0.76,0.51c0.25,0.17,0.51,0.32,0.76,0.55 c1.01,0.79,1.94,1.71,2.8,2.66c0.87,1.01,1.81,1.98,2.61,2.98c0.78,1.02,1.57,1.97,2.32,3c1.49,2.05,2.9,4.2,5.03,5.85l0.73,0.52 l0.86,0.51l0.88,0.41c0.3,0.12,0.61,0.21,0.91,0.32c1.23,0.36,2.5,0.44,3.69,0.33c0.3-0.04,0.59-0.07,0.89-0.1 c0.28-0.06,0.56-0.12,0.84-0.18c0.53-0.12,1.05-0.2,1.6-0.4c0.49-0.17,0.99-0.29,1.44-0.49c0,0.4-0.01,0.8-0.01,1.19 c-0.04,0.63-0.1,1.17-0.15,1.81c-0.06,0.65-0.13,1.29-0.11,1.93c0.01,0.65-0.04,1.25,0.02,1.93c0.04,0.61,0.08,1.21,0.12,1.81 c0.09,0.61,0.18,1.22,0.27,1.83c0.08,0.56,0.19,1.11,0.2,1.67c0.04,0.55,0.07,1.1,0.11,1.64c0.01,0.56,0.03,1.12,0.04,1.67 c0.03,1.1,0.06,2.17,0.09,3.22c0.02,0.52,0.03,1.04,0.05,1.55c0.01,0.24,0.01,0.48,0.02,0.72c0,0.25-0.01,0.5-0.01,0.75 c-0.01,0.49,0,0.99-0.03,1.46c-0.05,0.45-0.1,0.9-0.15,1.34c-0.05,0.48-0.11,0.95-0.16,1.41c-0.01,0.47-0.01,0.92-0.02,1.37 c-0.03,0.91,0.04,1.76,0.08,2.56c0.08,1.61,0.16,3.09,0.23,4.42c0.28,5.35,0.44,8.41,0.44,8.41l0,0.01 c0.01,0.22,0.2,0.39,0.42,0.39c0.23,0,0.41-0.19,0.4-0.42c0,0-0.05-3.06-0.15-8.42c-0.03-1.34-0.07-2.83-0.11-4.44 c-0.01-0.81-0.06-1.65-0.01-2.48c0.02-0.42,0.04-0.85,0.05-1.29c0.06-0.43,0.12-0.87,0.19-1.32c0.07-0.49,0.14-0.98,0.21-1.48 c0.05-0.49,0.05-0.97,0.07-1.47c0.01-0.25,0.02-0.5,0.03-0.75c0-0.26,0-0.53,0-0.8c0-0.51,0-1.03,0-1.55 c0-1.05-0.01-2.12-0.01-3.22c0-0.55-0.01-1.1-0.01-1.67c-0.03-0.58-0.05-1.17-0.08-1.76c-0.01-0.6-0.11-1.19-0.19-1.79 c-0.07-0.56-0.15-1.12-0.23-1.69c-0.03-0.6-0.06-1.2-0.09-1.8c-0.04-0.54,0.02-1.17,0.02-1.75c-0.01-0.6,0.07-1.2,0.14-1.8 c0.06-0.6,0.15-1.32,0.2-1.97c0.02-0.64,0.03-1.28,0.05-1.93c0-0.07-0.01-0.13-0.01-0.2C326.93,196.07,328.29,194.81,329.53,193.5z M167.87,109.84c0.21-2.8,0.47-5.81,0.79-9.04c1.54-17.57,2.33-26.75,2.36-27.54L171,72.73c-0.02-0.43-0.1-0.85-0.24-1.28 c-0.29-0.92-1.43-1.87-3.4-2.86c-0.72-0.4-1.28-0.7-1.68-0.9c-0.92-0.39-1.5-0.62-1.76-0.68c-0.33-0.13-0.62-0.19-0.88-0.18 c-1.28,0.19-2.31,1.02-3.08,2.48c-7.88,19.9-13.61,35.65-17.19,47.23c-0.68,2.24-1.62,5.18-2.83,8.8 c-2.63,8.18-3.91,13.02-3.85,14.52c0.11,1.07,0.62,1.9,1.55,2.51c1.64,0.86,2.88,1.31,3.72,1.35c1.22-0.12,2.29-1.49,3.21-4.1 l3.08-9.77l11.51-4c-0.23,3.8-0.26,7.94-0.08,12.44l0.01,0.21c0.15,2.21,1.55,3.33,4.19,3.37c2.5-0.17,3.8-1.51,3.89-4.02 c0-0.07-0.01-0.14-0.01-0.21C167,127.28,167.24,118.01,167.87,109.84z M111.2,111.06c8.03-8.19,12.79-15.96,14.3-23.31 c1.06-5.47,0.26-9.55-2.42-12.23c-3.48-3.43-8.53-5.01-15.14-4.75c-0.53-0.41-1.28-0.73-2.26-0.98c-0.26-0.06-0.55-0.12-0.88-0.18 c-2.01-0.49-3.09-0.73-3.21-0.73c-1.21,0.19-2.13,2.09-2.76,5.69c-0.27,1.37-0.55,3.06-0.86,5.07l-9.38,63.74 c0,0.07,0.01,0.21,0.02,0.43c0.04,1.07,1.64,1.61,4.79,1.63c0.64,0.04,1.1,0.06,1.35,0.05c0.13-0.01,0.32,0.02,0.58,0.08 c2.18-0.09,3.4-1.92,3.64-5.51c0.52-6.31,1.21-12.95,2.09-19.92c1.12-0.9,2.15-1.77,3.08-2.59l11.39,24.09 c0.5,1.2,1.29,1.7,2.38,1.51l5.64-1.19c0.32-0.08,0.63-0.24,0.95-0.47c1.18-0.98,1.45-2.24,0.81-3.79l-13.99-26.34l-0.1-0.21 L111.2,111.06z M74.19,80.72l8.47-0.34c1.09-0.04,1.77-0.68,2.05-1.9l0.71-4c-0.01-0.14-0.01-0.36-0.03-0.64 c-0.01-0.21-0.05-0.46-0.13-0.75c-0.44-1.41-1.37-2.09-2.78-2.03l-20.7,1.05c-1.08,0.26-1.76,0.93-2.04,2.01l-0.58,4.85 c-0.06,0.07-0.09,0.18-0.08,0.33c0.01,0.14,0.04,0.32,0.12,0.53c0.37,1.13,1.13,1.67,2.28,1.62l6.35-0.36l-9,58.79 c-0.06,0.22-0.08,0.43-0.07,0.65c0.05,1.14,0.53,2.02,1.46,2.62l3.96,2.52c0.4,0.27,0.88,0.39,1.46,0.37 c1.4-0.27,2.36-1.2,2.88-2.8l6.87-59.03c-0.01-0.28,0.01-0.61,0.06-0.97C75.34,82.24,74.92,81.4,74.19,80.72z M58.41,201.97 c0,12.91,10.53,23.38,23.53,23.38c12.99,0,23.53-10.47,23.53-23.38c0-12.91-10.53-23.38-23.53-23.38 C68.94,178.59,58.41,189.06,58.41,201.97z M91.48,278.55c-6.38,0-6.38,9.55-6.38,14.69v16.68c-0.32-0.02-0.63-0.04-0.92-0.06 c-0.87-0.06-1.51-0.02-1.95-0.04c-0.44,0-0.67,0-0.67,0c-0.22,0-0.41,0.17-0.42,0.39c-0.01,0.23,0.17,0.42,0.39,0.43 c0,0,0.23,0.01,0.67,0.03c0.44,0.03,1.1,0.02,1.93,0.1c0.29,0.02,0.62,0.06,0.97,0.09v21.95l-8.43,4.83l-0.51,7.84h-4.41 l-2.06,14.78h10.34l1.5-14.78h-3.57l0.69-6.18l6.44-3.01v39.72c-1.99,0.22-3.56,2.39-3.56,5.06c0,2.32,1.18,4.25,2.8,4.88 c-0.1,0.16-0.09,0.36,0.05,0.5c0,0,0.2,0.2,0.57,0.59c0.04,0.04,0.1,0.1,0.14,0.15v19.59c0,3.12,2.53,5.65,5.65,5.65h41.48 c-0.61,1.62-1.07,3.14-1.41,4.44h9.13h0.47h3.2c0,0.02,0,0.04,0.01,0.06c0.72,5.16,4.95,8.83,9.43,8.2 c3.83-0.54,6.6-4.04,6.88-8.26h3.6h0.73h8.4c0,0-0.11-1.83-0.65-4.44h81.26c-0.55,1.5-0.98,2.91-1.3,4.13h9.13h0.47h3.2 c0,0.02,0,0.04,0.01,0.06c0.72,5.16,4.94,8.83,9.43,8.2c3.83-0.54,6.6-4.04,6.89-8.26h3.6h0.73h8.4c0,0-0.1-1.69-0.59-4.13h7.16 h3.95h3.95c1.4,0,2.68-0.51,3.66-1.35c0.02,0.07,0.05,0.13,0.07,0.2c0.07,0.18,0.26,0.29,0.45,0.26c0.23-0.04,0.38-0.25,0.34-0.47 c-0.04-0.24-0.09-0.49-0.13-0.73c0.78-0.97,1.25-2.2,1.25-3.54v-0.81v-67.56v-10.65h0l0.02,0c0.22-0.01,0.39-0.19,0.39-0.41 c0-0.23-0.19-0.41-0.41-0.41v-16.85l0.04,0c0.22-0.01,0.39-0.2,0.38-0.42c-0.01-0.23-0.2-0.4-0.42-0.4v-27.51L91.48,278.55z M213.37,63.72c-1.43-0.3-2.4-0.48-2.92-0.53c-2.06-0.13-3.61,1.36-4.64,4.48l-16.26,53.41l2.36-44.16 c0.19-3.29,0.13-5.51-0.17-6.64c-0.46-1.77-2.02-2.99-4.68-3.67c-1.89-0.5-3.33-0.3-4.32,0.6l-0.63,1.1l-1.89,36.74 c-0.04,0.57-0.1,1.51-0.18,2.79c-0.1,2.22-0.2,3.9-0.28,5.05c-0.73,15.33-0.13,23.84,1.81,25.55c1.6,1.51,2.67,2.47,3.2,2.87 c2.84,1.89,5.39,0.46,7.64-4.28c1.43-2.92,3.99-9.56,7.68-19.93c7.92-22.05,13.52-38.46,16.82-49.25c0-0.07,0.02-0.18,0.08-0.32 C217.31,65.6,216.1,64.32,213.37,63.72z M256.46,67.87c0.04-0.5-0.01-1-0.16-1.49c-0.44-1.34-1.37-1.98-2.78-1.92l-20.5,1.26 c-1.15,0.12-1.83,0.79-2.04,2.01l-0.56,5.17l0,0.11l0,0.11l-9.33,60.31c-0.13,1.44,0.33,2.52,1.39,3.27l3.47,2.22l0.1,0.1 c0.4,0.27,0.85,0.43,1.37,0.48l19.34-1.21c1.09-0.12,1.77-0.75,2.05-1.91l0.68-4.74c0.05-0.43,0-0.89-0.15-1.39 c-0.5-1.34-1.43-1.98-2.78-1.92l-15.38,1.27l1.13-7.76l13.76-0.88c1.09-0.04,1.77-0.68,2.05-1.91l0.68-4.64 c0.04-0.5-0.01-1-0.16-1.49c-0.5-1.34-1.43-1.98-2.78-1.93L233.65,112l4.43-31.16c0.15-1.01,0.18-1.86,0.09-2.58 c-0.16-0.78-0.78-1.65-1.84-2.61c-0.2-0.06-0.43-0.23-0.7-0.51l18.09-1.16c1.09-0.04,1.77-0.64,2.05-1.8L256.46,67.87z M291.18,129.61c0.04-0.5-0.01-1-0.16-1.49c-0.44-1.34-1.37-1.98-2.78-1.92l-15.58,1.27l8.59-59.42c0.13-1.51-0.4-2.63-1.58-3.37 l-4.42-2.07c-0.2-0.06-0.42-0.12-0.68-0.19c-0.97-0.03-1.56,0.49-1.77,1.57l-10.3,67.32c-0.14,1.44,0.33,2.56,1.39,3.37l3.47,2.22 c0.26,0.13,0.62,0.26,1.08,0.39c0.26,0.06,0.52,0.09,0.77,0.08l19.24-1.21c1.09-0.04,1.77-0.68,2.05-1.9L291.18,129.61z M39.75,409.61c-0.05-0.92-0.1-1.88-0.15-2.86c-0.04-0.99-0.09-2-0.14-3.05c-0.05-0.52-0.1-1.05-0.15-1.59 c-0.04-0.52-0.12-1.01-0.14-1.56c-0.02-0.55-0.05-1.1-0.07-1.65c-0.01-0.55-0.02-1.11-0.04-1.67c-0.13-4.57-0.14-9.46-0.08-14.7 c0.02-1.3,0.04-2.62,0.05-3.95l0.01-1.01l0-0.25l0-0.06l0-0.1l-0.01-0.13l-0.03-0.53c-0.05-0.7-0.05-1.42-0.17-2.12 c-0.09-0.66-0.18-1.33-0.27-2c-0.08-0.65-0.09-1.37-0.14-2.06c-0.03-1.3,0-2.76-0.01-4.16c0-1.44,0.02-2.84-0.01-4.33 c-0.01-1.44-0.03-2.89-0.04-4.36c0-0.73-0.01-1.47-0.01-2.21c0.02-0.71-0.02-1.42,0.05-2.13c0.06-0.75,0.12-1.51,0.19-2.26 c0.04-0.78,0.02-1.5,0.04-2.25c-0.16-3.11-0.34-6.08-0.53-9.08c-0.1-1.52-0.2-3.04-0.3-4.56l-0.04-0.57l-0.02-0.28l0-0.07 c0-0.07,0,0.01,0-0.02l0-0.14l0.01-1.13l0.02-2.25l0.02-2.28l0.01-1.14c0-0.46-0.04-0.8-0.06-1.21l-0.07-1.18l-0.14-1.17 c-0.09-0.79-0.21-1.4-0.25-2.18l-0.07-1.13l-0.03-0.57l0-0.52l0.02-2.23c0.01-1.52,0.02-3.03,0.03-4.53 c0.02-2.95,0.11-5.87,0.07-8.88c-0.01-1.46-0.03-2.91-0.04-4.36l-0.01-1.11l-0.06-1.11c-0.03-0.74-0.1-1.47-0.19-2.2 c-0.37-2.7-0.34-5.54-0.46-8.28c-0.13-2.75-0.15-5.39-0.21-8.01c-0.01-0.66-0.03-1.31-0.04-1.96c-0.05-0.66-0.09-1.33-0.14-1.98 c-0.07-0.64-0.19-1.32-0.27-1.91c-0.08-0.58-0.19-1.14-0.22-1.77c-0.03-0.6-0.11-1.26-0.1-1.78c0-0.6,0.01-1.19,0.01-1.78 c0.01-1.18,0.01-2.34,0.02-3.47c0-0.58,0-1.16,0.01-1.73c-0.01-0.55-0.02-1.1-0.03-1.65c-0.02-1.09-0.03-2.15-0.05-3.18 c-0.01-0.52-0.02-1.03-0.03-1.54c-0.01-0.51-0.01-1.01-0.02-1.51c-0.01-0.98-0.01-1.93-0.02-2.84c-0.01-0.93-0.01-1.82-0.02-2.69 c0-0.22,0-0.43,0-0.64l0-0.16l0-0.1l-0.01-0.08l-0.03-0.32c-0.03-0.43-0.07-0.84-0.1-1.25c-0.05-0.81-0.23-1.61-0.33-2.31 c-0.06-0.35-0.11-0.69-0.16-1.02c-0.03-0.35-0.06-0.69-0.08-1.02c-0.35-5.3-0.56-8.32-0.56-8.32c-0.01-0.22-0.2-0.39-0.42-0.38 c-0.23,0.01-0.41,0.19-0.4,0.42c0,0,0.02,0.76,0.05,2.18c0.05,1.44,0.06,3.48,0.19,6.18c0.02,0.33,0.04,0.67,0.05,1.02 c0.05,0.36,0.09,0.73,0.14,1.11c0.08,0.76,0.23,1.47,0.25,2.26c0.02,0.39,0.04,0.79,0.06,1.19l0.01,0.31l0,0.08c0,0,0,0.05,0,0.02 l0,0.04l0,0.16c0,0.21-0.01,0.43-0.01,0.64c-0.02,0.86-0.04,1.76-0.06,2.69c-0.02,0.93-0.04,1.89-0.07,2.89 c-0.01,0.49-0.02,0.98-0.03,1.49c0,0.51-0.01,1.02-0.01,1.54c0,1.04-0.01,2.11-0.01,3.2c0,0.55,0,1.1-0.01,1.66 c-0.01,0.55-0.02,1.1-0.04,1.66c-0.03,1.14-0.05,2.31-0.08,3.5c-0.01,0.6-0.03,1.2-0.04,1.81c-0.02,0.68,0.05,1.23,0.07,1.86 c0.01,0.6,0.11,1.26,0.2,1.92c0.08,0.65,0.17,1.21,0.23,1.83c0.03,0.61,0.06,1.23,0.1,1.85c0,0.64,0,1.28,0,1.93 c0.01,2.6-0.02,5.33,0.06,8.06c0.11,2.74,0.05,5.52,0.42,8.47c0.08,0.69,0.15,1.38,0.17,2.07l0.05,1.05l0,1.06 c0,1.45,0.01,2.91,0.01,4.38c0.02,2.86-0.09,5.87-0.12,8.9c-0.02,1.48-0.04,2.97-0.06,4.47l-0.03,2.29l0,0.61l0.03,0.57l0.06,1.13 c0.03,0.73,0.18,1.62,0.25,2.34l0.13,1.09l0.06,1.09c0.01,0.35,0.05,0.76,0.05,1.06l0,1.14l0,2.28l0,2.3l0,1.15v0.14l0.01,0.19 l0.02,0.28l0.04,0.57c0.11,1.5,0.22,3.01,0.33,4.51c0.2,3,0.39,5.98,0.58,8.95c-0.01,0.74,0.01,1.51-0.02,2.22 c-0.06,0.73-0.11,1.45-0.17,2.18c-0.07,0.77-0.03,1.54-0.04,2.3c0.01,0.74,0.02,1.47,0.03,2.2c0.02,1.47,0.04,2.93,0.07,4.38 c0.03,1.4,0.02,2.87,0.03,4.28c0,0.72,0.01,1.43,0.01,2.14c0.01,0.73-0.02,1.38,0.03,2.17c0.06,0.71,0.08,1.37,0.18,2.1 c0.11,0.7,0.21,1.4,0.32,2.09c0.13,0.65,0.13,1.31,0.19,1.95l0.04,0.49l0.01,0.12c0,0.05,0,0,0,0.03v0.06l0,0.25l0,1.01 c0,1.34,0.01,2.67,0.01,3.98c0.03,5.2,0.13,10.19,0.33,14.73c0.02,0.58,0.05,1.15,0.07,1.71c0.03,0.56,0.07,1.11,0.1,1.65 c0.02,0.54,0.12,1.11,0.18,1.65c0.06,0.52,0.13,1.04,0.19,1.54c0.08,1.03,0.15,2.03,0.22,3.01c0.08,0.98,0.16,1.93,0.23,2.86 c0.38,3.65,0.35,6.87,0.44,9.55c0.16,5.32,0.24,8.35,0.24,8.35c0.01,0.22,0.19,0.4,0.41,0.4c0.23,0,0.41-0.18,0.41-0.41l0-0.01 c0,0,0.02-3.04,0.05-8.36C39.91,416.58,40.03,413.34,39.75,409.61z M326.74,183.18c-0.52,0.2-1.06,0.37-1.6,0.56 c-0.12,0.04-0.24,0.06-0.36,0.1c-0.02,1.14-0.05,2.27-0.07,3.39c-0.01,0.68-0.03,1.36-0.04,2.04l-0.01,0.51 c-0.01,0.1,0.01,0.32,0.01,0.47l0.04,1.01c0.01,0.69,0.1,1.31,0.17,1.93c0.06,0.65,0.17,1.35,0.21,2.02c0,0.04,0,0.08,0.01,0.12 c0.1-0.06,0.2-0.12,0.31-0.17c0.04-0.02,0.14-0.08,0.12-0.07l0.15-0.11l0.29-0.22c0.2-0.15,0.39-0.29,0.58-0.43 c0.41-0.28,0.71-0.59,1.04-0.88c0.32-0.3,0.65-0.57,0.95-0.91c1.24-1.24,2.21-2.6,3.17-3.84c0.2-0.27,0.39-0.54,0.58-0.81v-8.45 c-1.18,1.12-2.49,2.15-4.08,3.03C327.71,182.71,327.23,182.95,326.74,183.18z" fill="#d46bca"/></g><g id="change3_1"><path d="M89.05,338.41h50.89l-0.15,7.08h-3.68l1.5,14.78h1.86l-0.12,5.69l-7.29,5.61H94.49l-5.44-6.5V338.41z M89.05,291.07v15.82h55.43v-22.03H93.93C89.13,285.99,89.05,291.07,89.05,291.07z M153.69,404.52 c-11.89-1.72-13.28,12.34-13.28,12.34h3.2c-0.69-5.13,2.35-9.79,6.82-10.42c4.49-0.63,8.71,3.04,9.43,8.2 c0.11,0.75,0.12,1.5,0.07,2.22h3.6C163.52,416.87,162.25,405.76,153.69,404.52z M274.84,404.21 c-11.89-1.72-13.28,12.34-13.28,12.34h3.2c-0.69-5.14,2.35-9.79,6.82-10.42c4.49-0.63,8.71,3.04,9.43,8.2 c0.11,0.75,0.12,1.5,0.07,2.22h3.6C284.68,416.56,283.41,405.46,274.84,404.21z M84.94,385.86c0,0,0.14,0.11,0.39,0.32 c0.03,0,0.07,0.01,0.1,0.01c0.14,0,0.27-0.04,0.41-0.05c1.95-0.27,3.48-2.41,3.48-5.05c0-2.32-1.19-4.26-2.8-4.88 c-0.35-0.13-0.7-0.23-1.08-0.23c-0.01,0-0.03,0.01-0.04,0.01c-0.01,0-0.02,0-0.03,0c-0.09,0-0.17,0.02-0.26,0.03 c-1.99,0.22-3.56,2.39-3.56,5.06c0,2.32,1.18,4.25,2.8,4.88c0.02-0.03,0.03-0.06,0.05-0.08C84.54,385.73,84.78,385.72,84.94,385.86 z M130.97,381.08c0-2.32-1.19-4.26-2.8-4.88c-0.35-0.13-0.7-0.23-1.08-0.23c-0.01,0-0.03,0.01-0.04,0.01c-0.01,0-0.02,0-0.03,0 c-2.11,0.05-3.81,2.31-3.81,5.1c0,2.5,1.37,4.57,3.17,5.01c0.03,0.01,0.06,0.01,0.09,0.01c0.21,0.04,0.41,0.08,0.63,0.08 c0.14,0,0.27-0.04,0.41-0.05C129.44,385.86,130.97,383.72,130.97,381.08z M145.9,360.27v5.08l31.35-3.95v-22.99H145.9v7.08 l2.06,14.78H145.9z M187.7,284.86h-38.41v22.03h38.41V284.86z M225.26,289.94v-3.11h-33.89v3.11H225.26z M191.37,292.19v13.85 h33.89v-13.85H191.37z M276.31,339.65h-38.06v21.83h38.06V339.65z M264.66,284.86h-33.89v21.18h33.89V284.86z M230.77,340.84v-2.43 H187.7v2.43H230.77z M230.77,344.45H187.7v18.02h43.07V344.45z M299.37,288.81l-26.49-1.98v15.53h35.41 C307.73,291.35,299.37,288.81,299.37,288.81z M129.9,399.9c-1.4,0-2.54,1.27-2.54,2.85c0,1.57,1.14,2.85,2.54,2.85 s2.54-1.27,2.54-2.85C132.44,401.17,131.3,399.9,129.9,399.9z M89.58,401.51c-1.41,0-2.54,1.28-2.54,2.85 c0,1.57,1.14,2.85,2.54,2.85c1.4,0,2.54-1.28,2.54-2.85C92.13,402.78,90.99,401.51,89.58,401.51z M81.94,225.34 c12.99,0,23.53-10.47,23.53-23.38c0-12.91-10.53-23.38-23.53-23.38c-12.99,0-23.53,10.47-23.53,23.38 C58.41,214.88,68.94,225.34,81.94,225.34z" fill="#5b6946"/></g><g id="change4_1"><path d="M85.1,332.81v3.48l-6.44,3.01l-0.69,6.18h3.57l-1.5,14.78H69.7l2.06-14.78h4.41l0.51-7.84L85.1,332.81z M289.7,371.04c-2.54-0.13-5.08-0.32-7.61-0.5c-0.41-0.03-0.83-0.07-1.24-0.11c0.01,2.31,0.02,4.75,0.04,7.28 c1.52-0.07,3.03-0.13,4.55-0.19c2.63-0.07,5.26-0.13,7.9-0.15c1.32-0.02,2.63-0.03,3.95-0.01c0.18,0,0.36,0,0.54,0 c-0.24-0.95-0.46-1.91-0.67-2.87c-0.22-1.05-0.42-2.1-0.62-3.15c-1.01-0.03-2.01-0.08-3.02-0.12 C292.24,371.18,290.97,371.11,289.7,371.04z M300.25,379.52c-0.98,0.04-1.96,0.08-2.94,0.12c-1.32,0.05-2.63,0.09-3.95,0.11 c-2.63,0.07-5.26,0.09-7.9,0.11c-1.52,0-3.05-0.02-4.57-0.04c0.02,3.2,0.05,6.51,0.08,9.86c0.43-0.05,0.86-0.11,1.29-0.16 c2.44-0.28,4.88-0.51,7.32-0.72c2.44-0.19,4.89-0.38,7.33-0.51c1.15-0.07,2.31-0.14,3.46-0.19v-5.53 C300.34,381.55,300.29,380.54,300.25,379.52z M289.85,368.67c1.27,0.09,2.54,0.18,3.8,0.29c0.04,0,0.07,0.01,0.11,0.01 c-0.27-1.46-0.5-2.92-0.72-4.38c-0.18-1.29-0.35-2.58-0.51-3.87c-0.28,0.05-0.56,0.1-0.84,0.15c-0.62,0.11-1.24,0.21-1.86,0.3 c-1.24,0.2-2.49,0.33-3.74,0.47c-1.25,0.12-2.51,0.21-3.77,0.26c-0.48,0.02-0.97,0.02-1.46,0.03c-0.01,1.9-0.02,3.98-0.02,6.21 c0.46,0.02,0.93,0.03,1.39,0.06C284.77,368.35,287.31,368.48,289.85,368.67z M282.07,360.06c1.23-0.28,2.47-0.51,3.71-0.72 c1.24-0.19,2.49-0.38,3.74-0.51c0.62-0.08,1.25-0.15,1.88-0.2c0.63-0.05,1.25-0.12,1.88-0.15l0.12-0.01 c0.55-0.03,1.02,0.4,1.05,0.95c0.09,1.68,0.15,3.35,0.2,5.03c0.03,1.53,0.06,3.06,0.04,4.6c0.92,0.08,1.84,0.15,2.76,0.24 l0.08,0.01c0.48,0.05,0.84,0.43,0.88,0.89c0.13,1.36,0.24,2.72,0.33,4.08c0.06,1.03,0.11,2.07,0.14,3.1c0.5,0,1,0.01,1.49,0.01 v-38.98h-3.86c0,0-14.47,2.28-15.41,14.35c-0.13,1.66-0.2,4.29-0.24,7.61C281.27,360.26,281.67,360.15,282.07,360.06z M304.34,399.85c0.51,0,1.02,0,1.53,0.01c-0.42-1.57-0.81-3.15-1.2-4.73c-0.11-0.48-0.22-0.97-0.33-1.45V399.85z M311.91,410.93 c-0.59-1.54-1.12-3.1-1.65-4.65c-0.47-1.41-0.92-2.82-1.36-4.24c-0.95,0.04-1.9,0.06-2.84,0.09c-0.57,0.02-1.14,0.02-1.71,0.03 v10.26h3.95C309.67,412.43,310.93,411.87,311.91,410.93z M300.39,402.22v10.21h-7.16c-0.48-2.42-1.36-5.56-2.9-8.56 c-0.09-0.09-0.18-0.18-0.27-0.27c-0.69-0.71-1.47-1.52-2.32-2.4c-0.45-0.39-0.9-0.83-1.39-1.23c-0.51-0.39-0.98-0.81-1.58-1.22 c-0.29-0.21-0.58-0.42-0.87-0.63c-0.29-0.18-0.58-0.37-0.87-0.56c-0.3-0.2-0.61-0.38-0.93-0.54c-0.31-0.17-0.63-0.36-0.95-0.52 c-0.65-0.27-1.22-0.59-2.03-0.81l-0.57-0.18l-0.24-0.08c-0.01,0-0.02-0.01-0.01,0l-0.04-0.01l-0.07-0.02l-0.14-0.03 c-0.38-0.09-0.76-0.19-1.15-0.28c-0.38-0.07-0.75-0.15-1.13-0.22c-0.39-0.09-0.74-0.12-1.09-0.15c-0.37-0.02-0.67-0.1-1.09-0.08 l-1.23,0.06l-0.15,0.01l-0.08,0h0l-0.25,0.05c-0.18,0.03-0.35,0.06-0.53,0.1c-0.35,0.09-0.71,0.17-1.06,0.3 c-0.71,0.23-1.41,0.55-2.12,0.89c-0.7,0.35-1.48,0.72-2.14,1.06c-0.33,0.17-0.66,0.34-0.98,0.51c-0.31,0.2-0.62,0.4-0.93,0.59 c-0.32,0.19-0.6,0.4-0.88,0.62c-0.28,0.22-0.56,0.4-0.84,0.65c-0.28,0.24-0.57,0.48-0.84,0.71c-0.24,0.19-0.53,0.47-0.79,0.69 c-1.08,0.94-2.05,1.81-2.84,2.6c-0.39,0.41-0.81,0.97-1.09,1.31c-0.33,0.46-0.65,0.89-0.95,1.29c-0.58,0.81-1.06,1.48-1.32,2.1 c-0.3,0.6-0.5,1.17-0.66,1.51c-0.15,0.36-0.23,0.55-0.23,0.55c-0.09,0.21-0.33,0.31-0.54,0.22c-0.19-0.08-0.29-0.29-0.24-0.48 l0-0.01c0,0,0.05-0.2,0.14-0.58c0.12-0.38,0.18-0.92,0.46-1.64c0.23-0.74,0.68-1.57,1.18-2.45c0.25-0.44,0.52-0.9,0.8-1.39 l0.05-0.09l0.09-0.13l0.12-0.18c0.08-0.12,0.17-0.24,0.25-0.36c0.18-0.24,0.32-0.49,0.54-0.75c0.86-1.05,1.84-2.03,2.84-3.01 c0.26-0.25,0.52-0.51,0.79-0.77c0.26-0.25,0.53-0.5,0.8-0.76c0.27-0.25,0.61-0.51,0.91-0.76c0.31-0.26,0.63-0.52,0.97-0.74 c0.34-0.23,0.68-0.46,1.02-0.7c0.36-0.21,0.73-0.41,1.1-0.62c0.74-0.42,1.42-0.73,2.17-1.12c0.74-0.37,1.53-0.74,2.38-1.03 c0.42-0.16,0.86-0.27,1.31-0.39c0.22-0.05,0.46-0.08,0.68-0.12l0.34-0.06l0.13-0.01l0.04,0l0.08,0l0.15-0.01l1.24-0.05 c0.4-0.02,0.92,0.06,1.37,0.09c0.47,0.04,0.93,0.09,1.34,0.19c0.42,0.09,0.85,0.17,1.26,0.26c0.4,0.11,0.8,0.22,1.2,0.33l0.36,0.1 l0.28,0.1l0.56,0.2c0.38,0.11,0.78,0.29,1.18,0.47c-0.01-0.87-0.01-1.74-0.02-2.61c0.47-0.01,0.94,0,1.4-0.01 c2.45-0.05,4.9-0.15,7.35-0.26c2.45-0.14,4.89-0.28,7.33-0.47c1.1-0.08,2.2-0.17,3.3-0.27v9.45c-1.72,0.01-3.43,0.03-5.15,0.05 c-2.07,0.05-4.14,0.13-6.2,0.23c0.62,0.73,1.14,1.39,1.62,2.01c1.53,0.05,3.06,0.08,4.6,0.1 C296.96,402.23,298.68,402.23,300.39,402.22z M278.27,395.42l-0.02-0.01l-0.02-0.01C278.26,395.42,278.26,395.42,278.27,395.42z M304.34,387.94L304.34,387.94c0.51-0.01,0.94,0.36,1.02,0.85c0.32,2.01,0.61,4.02,0.9,6.04c0.22,1.68,0.44,3.36,0.62,5.05 c0.92,0.01,1.84,0.03,2.77,0.06l0.08,0c0.46,0.02,0.83,0.34,0.93,0.76c0.41,1.71,0.79,3.43,1.17,5.15 c0.29,1.41,0.57,2.81,0.83,4.23c0.81-1.12,1.3-2.55,1.3-4.12v-67.56h-9.6V387.94z M159.92,416.87c-0.28,4.22-3.06,7.72-6.88,8.26 c-4.48,0.63-8.71-3.04-9.43-8.2c0-0.02,0-0.04-0.01-0.06c-0.69-5.13,2.35-9.79,6.82-10.42c4.49-0.63,8.71,3.04,9.43,8.2 C159.96,415.4,159.97,416.14,159.92,416.87z M155.11,415.31c-0.32-2.26-2.16-3.86-4.13-3.59c-1.96,0.28-3.3,2.33-2.98,4.59 s2.16,3.86,4.13,3.59C154.09,419.62,155.42,417.56,155.11,415.31z M281.08,416.56c-0.28,4.22-3.06,7.72-6.89,8.26 c-4.49,0.63-8.71-3.04-9.43-8.2c0-0.02,0-0.04-0.01-0.06c-0.69-5.14,2.35-9.79,6.82-10.42c4.49-0.63,8.71,3.04,9.43,8.2 C281.12,415.09,281.13,415.83,281.08,416.56z M276.27,415c-0.32-2.26-2.16-3.86-4.13-3.59c-1.96,0.27-3.3,2.33-2.98,4.59 c0.32,2.26,2.16,3.86,4.13,3.59C275.25,419.31,276.58,417.25,276.27,415z M85.36,375.98L85.36,375.98 c0.01,0.01,0.02,0.01,0.03,0.01C85.38,375.98,85.36,375.98,85.36,375.98z M89.31,381.08c0,2.64-1.53,4.78-3.48,5.05 c3.48,0,8.57-0.9,8.57-0.9l0.05-6.56c-3.06-1.34-6.28-2.12-7.94-2.48C88.13,376.82,89.31,378.76,89.31,381.08z M127.01,375.98 L127.01,375.98c0.01,0.01,0.02,0.01,0.03,0.01C127.03,375.98,127.01,375.98,127.01,375.98z M126.37,386.1c0.03,0,0.06,0,0.09,0 C126.43,386.1,126.4,386.1,126.37,386.1L126.37,386.1z M311.43,326.96c-1.65,0-4.02,0.08-7.08,0.03c-1.53-0.01-3.22-0.03-5.06-0.04 c-1.84,0.04-3.84,0.07-5.97,0.11c-0.27,0.01-0.53,0.01-0.8,0.02c-0.23,0.01-0.53-0.02-0.79-0.02c-0.54-0.02-1.1-0.05-1.66-0.07 c-1.13-0.05-2.28-0.1-3.47-0.15c-0.61-0.01-1.17-0.08-1.84-0.05c-0.62,0.02-1.24,0.05-1.87,0.07c-1.26,0.05-2.54,0.1-3.85,0.16 c-0.33,0.01-0.66,0.03-0.99,0.04c-0.25,0-0.62-0.02-0.93-0.03c-0.65-0.03-1.3-0.03-1.95-0.13c-0.69-0.08-1.39-0.16-2.1-0.24 c-0.7-0.05-1.39-0.06-2.1-0.09c-1.49,0.03-2.9,0.1-4.37,0.15c-0.73,0.03-1.46,0.05-2.2,0.08c-0.35,0-0.78,0.05-1.07,0.02 l-1.11-0.04c-1.49-0.06-3-0.11-4.53-0.17l-1.16-0.04c-0.47,0-0.82,0.02-1.24,0.04c-0.41,0.02-0.81,0.02-1.22,0.05l-1.22,0.15 c-0.78,0.08-1.42,0.22-2.26,0.22l-1.19,0.04c-0.31,0.02-0.74-0.03-1.1-0.04l-1.14-0.05l-1.14-0.17c-0.79-0.11-1.78-0.31-2.55-0.3 l-1.23-0.05l-0.15-0.01l-0.14,0l-0.08,0l-0.31,0.01l-0.62,0.02c-0.83,0.02-1.66,0.04-2.5,0.07c-1.65,0.05-3.32,0.09-5,0.14 c-3.42,0.09-6.75,0.19-10.23,0.35c-0.86,0.03-1.72,0.07-2.58,0.11c-0.76,0-1.64-0.03-2.45-0.07l-2.63-0.26 c-0.9-0.04-1.7-0.06-2.65-0.09c-1.73-0.05-3.46-0.09-5.19-0.14l-1.31-0.03l-0.33-0.01l-0.36,0.01l-0.66,0.02l-2.64,0.08 c-3.49,0.11-6.97,0.22-10.44,0.33c-1.74,0.06-3.47,0.13-5.2,0.19c-0.84,0.02-1.77,0.08-2.54,0.08c-0.83-0.04-1.66,0-2.48-0.1 c-0.78-0.06-1.78-0.18-2.63-0.21c-0.87-0.02-1.73-0.03-2.59-0.05c-1.69-0.03-3.38-0.05-5.06-0.08l-1.26-0.02 c-0.48,0.01-0.89,0.04-1.34,0.06c-0.88,0.01-1.75,0.15-2.6,0.28l-1.13,0.16c-0.38,0.05-0.82,0.05-1.22,0.08l-0.62,0.03l-0.31,0.02 l-0.08,0c0,0-0.02,0-0.04,0h-0.14l-1.23,0c-1.63,0-3.25-0.01-4.85-0.01c-1.65-0.01-3.06-0.03-4.63-0.25l-1.26-0.14 c-0.4-0.02-0.78-0.02-1.17-0.04l-0.58-0.01l-0.29-0.01l-0.15,0c-0.14,0-0.13,0-0.2,0l-1.19,0.05c-0.79,0.01-1.58,0.11-2.35,0.19 c-0.72,0.07-1.41,0.17-2.18,0.18l-1.12,0.05c-0.31,0.02-0.72,0.01-1.08,0.01c-0.74,0-1.47,0-2.19,0.01 c-1.46,0.01-2.9,0.01-4.31,0.02c-0.72,0.03-1.44,0.05-2.15,0.1c-0.69,0.07-1.37,0.14-2.05,0.22c-0.63,0.09-1.32,0.1-1.98,0.13 c-0.32,0.01-0.7,0.04-0.96,0.03c-0.32,0-0.64-0.01-0.96-0.01c-0.32,0-0.64-0.01-0.95-0.01c-0.32-0.02-0.63-0.05-0.94-0.07 c-0.65-0.05-1.3-0.09-1.94-0.14c-1.26-0.02-2.49-0.03-3.69-0.05c-1.19-0.01-2.35-0.01-3.47-0.02c-1.12,0-2.23-0.05-3.34,0.05 c-1.08,0.02-2.18,0.24-3.11,0.37c-0.91,0.18-1.9,0.19-2.81,0.26c-0.4,0.03-0.87-0.01-1.29-0.02c-0.43-0.02-0.85,0.01-1.25-0.06 c-0.84-0.11-1.65-0.21-2.41-0.3c-0.78-0.07-1.49-0.05-2.17-0.08c-0.73-0.01-1.33,0.02-1.94,0.03c-1.18,0.03-2.19,0.05-3.01,0.07 c-1.63,0.04-2.51,0.06-2.51,0.06c-0.22,0.01-0.4,0.18-0.4,0.41c0,0.23,0.18,0.41,0.41,0.42c0,0,0.87,0.01,2.51,0.03 c0.82,0.01,1.83,0.02,3.01,0.03c0.58,0.01,1.26,0,1.88,0.03c0.67,0.05,1.41,0.05,2.15,0.14c0.75,0.12,1.53,0.24,2.36,0.36 c0.43,0.08,0.87,0.06,1.33,0.1c0.46,0.02,0.89,0.07,1.41,0.05c0.93-0.04,1.86-0.02,2.91-0.19c1.04-0.13,1.97-0.29,3.02-0.28 c1.02-0.07,2.1,0.01,3.24,0.04c1.13,0.04,2.3,0.07,3.49,0.11c1.19,0.04,2.4,0.07,3.64,0.11c0.61,0.05,1.22,0.11,1.85,0.17 c0.33,0.03,0.65,0.06,0.99,0.09c0.33,0.01,0.66,0.02,1,0.03c0.34,0.01,0.67,0.02,1.01,0.03c0.4,0.01,0.68-0.01,1.03-0.02 c0.67-0.02,1.33-0.02,2.05-0.1c0.68-0.06,1.36-0.12,2.05-0.18c0.67-0.04,1.35-0.04,2.04-0.06c1.41,0.02,2.83,0.03,4.29,0.05 c0.73,0.01,1.47,0.02,2.21,0.03c0.38,0,0.71,0.02,1.15,0.01l1.12-0.03c0.73,0,1.54-0.09,2.33-0.16c0.73-0.06,1.47-0.15,2.22-0.14 l1.12-0.03c0.03,0,0.14,0,0.09,0l0.15,0.01l0.29,0.01l0.58,0.02c0.39,0.02,0.78,0.03,1.16,0.05l1.08,0.14 c1.55,0.24,3.33,0.29,4.89,0.3c1.61,0.01,3.23,0.03,4.87,0.04l1.23,0.01l0.15,0l0.21-0.01l0.31-0.01l0.62-0.03 c0.42-0.03,0.81-0.02,1.25-0.07l1.34-0.18c0.8-0.11,1.57-0.24,2.37-0.24l1.17-0.05l1.26,0.03c1.69,0.03,3.39,0.07,5.1,0.1 c0.84,0.02,1.68,0.04,2.52,0.07c0.86,0.04,1.56,0.14,2.49,0.22c0.88,0.11,1.78,0.08,2.67,0.12c0.95,0,1.75-0.05,2.63-0.07 c1.73-0.05,3.46-0.11,5.19-0.16c1.73-0.05,3.47-0.09,5.2-0.14l5.25-0.18l2.59-0.09l0.65-0.02l0.29-0.01l0.33,0.01l1.31,0.03 c1.75,0.04,3.5,0.08,5.25,0.11c0.79,0.02,1.72,0.03,2.55,0.07l2.54,0.24c0.91,0.04,1.76,0.07,2.72,0.06 c0.86-0.04,1.72-0.08,2.58-0.12c3.38-0.17,6.85-0.29,10.17-0.39c1.69-0.05,3.36-0.11,5.03-0.16c0.82-0.03,1.64-0.05,2.46-0.08 l0.61-0.02l0.31-0.01l0.08,0c0.08,0-0.02,0,0.02,0l0.15,0.01l1.23,0.05c0.87,0,1.49,0.17,2.3,0.26l1.26,0.18l1.27,0.05 c0.44,0,0.81,0.05,1.3,0.02l1.19-0.06c0.76-0.01,1.68-0.18,2.46-0.28l1.12-0.16c0.37-0.03,0.75-0.04,1.12-0.07 c0.36-0.02,0.77-0.05,1.08-0.05l1.16,0.03c1.54,0.04,3.07,0.07,4.58,0.1l1.13,0.03c0.45,0.02,0.76-0.03,1.15-0.04 c0.74-0.04,1.47-0.08,2.2-0.12c1.43-0.07,2.84-0.14,4.22-0.21c0.7,0.02,1.41,0.02,2.09,0.06c0.67,0.07,1.34,0.13,2,0.2 c0.7,0.09,1.39,0.09,2.08,0.11c0.36,0,0.65,0.03,1.06,0.01c0.33-0.02,0.66-0.04,0.98-0.05c1.3-0.07,2.58-0.15,3.82-0.21 c0.62-0.04,1.23-0.07,1.84-0.11c0.55-0.05,1.2,0,1.78,0c1.2,0.02,2.36,0.04,3.49,0.06c0.57,0.01,1.13,0.02,1.68,0.03 c0.28,0,0.53,0.02,0.84,0c0.27-0.01,0.54-0.02,0.8-0.04c2.12-0.09,4.1-0.18,5.93-0.26c1.84-0.03,3.53-0.06,5.05-0.08 c0.76-0.01,1.49-0.02,2.17-0.03c0.68-0.03,1.32-0.05,1.92-0.08c1.18-0.05,2.19-0.1,3.01-0.13c1.62-0.07,2.49-0.11,2.5-0.11h0 l0.02,0c0.22-0.01,0.39-0.19,0.39-0.41c0-0.23-0.19-0.41-0.41-0.41c0,0,0,0,0,0C313.94,326.93,313.07,326.94,311.43,326.96z M86.48,388.72c0.63,0.73,1.33,1.77,2.49,2.73c0.28,0.26,0.59,0.46,0.91,0.68c0.32,0.23,0.65,0.45,1.01,0.63 c0.37,0.2,0.67,0.38,1.13,0.61c0.19,0.08,0.37,0.17,0.57,0.25c0.19,0.09,0.37,0.17,0.65,0.24c0.25,0.07,0.51,0.16,0.77,0.2 c0.27,0.03,0.54,0.06,0.81,0.07c0.26-0.02,0.54-0.03,0.79-0.06c0.23-0.04,0.47-0.08,0.71-0.11c0.87-0.18,1.69-0.2,2.6-0.17 c1.95,0.12,4,0.24,6.14,0.34c2.21,0.04,4.35,0.04,6.57,0.03c2.23,0.12,4.5,0.25,6.76,0.37l0.78,0.06c0.31,0.01,0.49,0.08,0.72,0.12 c0.43,0.07,0.95,0.25,1.54,0.42c0.3,0.08,0.66,0.16,1,0.21c0.37,0.01,0.75,0.07,1.1,0c0.34-0.06,0.72-0.09,1.02-0.2l0.92-0.31 l0.06-0.02c-0.07,0.03,0.12-0.05,0.11-0.05l0.02-0.01l0.09-0.05l0.19-0.09l0.37-0.19l0.37-0.19l0.45-0.32 c0.3-0.22,0.61-0.44,0.82-0.72c0.24-0.27,0.47-0.53,0.62-0.81l0.25-0.42l0.19-0.38c0.13-0.26,0.25-0.49,0.37-0.69 c0.11-0.22,0.24-0.43,0.37-0.61c0.14-0.18,0.25-0.39,0.41-0.56l0.47-0.52l0.12-0.13l0.05-0.05l0.07-0.07l0.29-0.27 c0.38-0.36,0.76-0.71,1.13-1.06c0.75-0.7,1.48-1.39,2.2-2.06c0.04-0.04,0.08-0.08,0.12-0.12c0.87-0.13,1.43-0.23,1.43-0.23 l0.01-1.14c0.17-0.17,0.35-0.33,0.51-0.5c0.64-0.66,1.26-1.29,1.85-1.9c0.59-0.61,1.16-1.2,1.7-1.75c0.27-0.28,0.53-0.55,0.78-0.82 c0.11-0.12,0.28-0.3,0.35-0.36c0.13-0.12,0.26-0.24,0.39-0.36c0.26-0.23,0.5-0.46,0.74-0.68c0.24-0.23,0.47-0.43,0.7-0.58 c0.47-0.34,0.91-0.66,1.3-0.94c0.85-0.56,1.4-1.17,1.81-1.53c0.4-0.37,0.61-0.57,0.61-0.57c0.15-0.14,0.17-0.38,0.05-0.55 c-0.14-0.18-0.39-0.22-0.57-0.08l-0.03,0.03c0,0-0.22,0.17-0.64,0.48c-0.42,0.31-1,0.8-1.84,1.28c-0.43,0.27-0.91,0.57-1.44,0.89 c-0.28,0.16-0.53,0.35-0.78,0.55c-0.25,0.2-0.52,0.41-0.79,0.62c-0.14,0.11-0.27,0.22-0.42,0.33c-0.2,0.16-0.29,0.25-0.44,0.39 c-0.27,0.25-0.56,0.5-0.85,0.76c-0.57,0.53-1.18,1.08-1.81,1.65c-0.37,0.34-0.77,0.71-1.16,1.07l0.02-2.86 c-3.06-1.34-6.28-2.12-7.94-2.48c1.61,0.62,2.8,2.56,2.8,4.88c0,2.64-1.53,4.78-3.48,5.05c1.11,0,2.38-0.09,3.6-0.22 c-0.07,0.06-0.13,0.11-0.19,0.17c-0.39,0.33-0.78,0.67-1.17,1.02l-0.3,0.26l-0.07,0.07c-0.06,0.05-0.06,0.06-0.09,0.09l-0.15,0.16 l-0.62,0.64c-0.8,0.9-1.36,2.1-1.83,2.83c-0.11,0.21-0.25,0.34-0.39,0.48c-0.12,0.17-0.28,0.25-0.43,0.36l-0.22,0.17l-0.38,0.18 l-0.38,0.18l-0.19,0.09l-0.06,0.03l-0.04,0.01l-0.67,0.22c-0.23,0.09-0.42,0.07-0.63,0.12c-0.21,0.05-0.39-0.01-0.59,0 c-0.21-0.04-0.4-0.08-0.65-0.15c-0.5-0.14-1.05-0.35-1.74-0.48c-0.33-0.06-0.7-0.15-0.96-0.16l-0.92-0.08 c-2.25-0.13-4.46-0.25-6.77-0.34c-2.23,0.03-4.43,0.06-6.56,0.09c-2.12-0.06-4.17-0.11-6.13-0.14c-1.04,0-2.13,0.09-3.05,0.33 c-0.91,0.23-1.52,0.3-2.17,0.12c-0.15-0.01-0.35-0.09-0.54-0.16c-0.2-0.07-0.39-0.15-0.58-0.22c-0.27-0.12-0.68-0.32-1-0.47 c-0.35-0.15-0.66-0.32-0.96-0.5c-0.3-0.17-0.6-0.33-0.85-0.53c-1.05-0.72-1.8-1.64-2.52-2.37c-0.73-0.73-1.33-1.25-1.75-1.58 c-0.09-0.08-0.17-0.14-0.24-0.2c-0.25-0.21-0.39-0.32-0.39-0.32c-0.16-0.13-0.4-0.12-0.55,0.02c-0.02,0.02-0.04,0.05-0.05,0.08 c-0.1,0.16-0.09,0.36,0.05,0.5c0,0,0.2,0.2,0.57,0.59c0.04,0.04,0.1,0.1,0.14,0.15c0.16,0.16,0.34,0.34,0.53,0.56 C85.88,388.03,86.16,388.36,86.48,388.72z M177.25,399.71c0,0,1.19-0.07,3.28-0.13c1.05-0.03,2.32-0.07,3.78-0.12 c1.45-0.02,3.1-0.04,4.88-0.03c0.27,0,0.55,0,0.83,0c-0.04-0.25-0.09-0.52-0.14-0.84c-0.08-0.39-0.16-0.82-0.26-1.29 c-0.09-0.48-0.2-1.05-0.28-1.63c-0.06-0.57-0.12-1.16-0.16-1.77c-0.05-0.69-0.06-1.27-0.09-1.93c-0.01-0.65-0.02-1.3-0.03-1.96 c-0.02-0.66,0.01-1.31,0.01-1.96c0.01-0.65,0.02-1.26,0.07-1.92c0.05-0.64,0.1-1.26,0.18-1.85c0.11-0.57,0.22-1.15,0.34-1.6 c0.1-0.46,0.22-0.86,0.3-1.25c0.06-0.4,0.13-0.74,0.19-1.03c0.11-0.57,0.2-0.89,0.2-0.89c0.06-0.22,0.29-0.36,0.51-0.3 c0.17,0.04,0.28,0.18,0.31,0.33l0,0c0,0,0.06,0.33,0.13,0.91c0.04,0.29,0.08,0.64,0.11,1.04c0.03,0.41,0.01,0.89,0,1.42 c-0.01,0.52-0.02,1.01-0.05,1.56c0.02,0.54,0.04,1.11,0.03,1.7c0.02,0.61,0.03,1.24,0.05,1.88c0.01,0.65,0.03,1.3,0.02,1.96 c-0.01,0.66-0.02,1.31-0.02,1.96c-0.01,0.63-0.06,1.32-0.06,1.86c0,0.61-0.04,1.22-0.05,1.77c0.02,0.54,0,1.03,0.01,1.53 c0.02,0.93-0.05,1.71-0.12,2.28c1.19-0.03,2.43-0.09,3.74-0.13c1.05-0.04,2.12-0.07,3.22-0.11c0.54,0.01,1.08,0.03,1.63,0.04 c0.54,0,1.17,0.11,1.76,0.17c0.56,0.06,1.07,0.14,1.62,0.17c0.54,0.01,1.08,0.03,1.63,0.04c1.15,0.01,2.32,0.03,3.5,0.04 c1.17,0.01,2.35,0.03,3.53,0.04c1.18-0.03,2.36-0.06,3.54-0.09c1.19-0.03,2.37-0.06,3.56-0.08c0.59-0.02,1.19-0.04,1.78-0.06 c0.58-0.04,1.06-0.12,1.66-0.18c1.2-0.17,2.47-0.16,3.61-0.19c1.15-0.01,2.29-0.01,3.41-0.01c1.12,0,2.23,0,3.31,0 c0.56,0.04,1.11,0.08,1.66,0.11c0.5,0.01,1.1,0.16,1.64,0.24c0.21,0.04,0.41,0.08,0.61,0.11c-0.03-0.21-0.06-0.44-0.08-0.7 c-0.03-0.35-0.09-0.74-0.09-1.17c0.01-0.43,0-0.89,0.03-1.38c0.03-0.51,0.02-0.94,0.07-1.44c0.05-0.47,0.04-1.01,0.04-1.55 c0.01-0.53,0.01-1.08,0.03-1.62c0,0,0,0.01,0,0.01l0-0.01l0-0.03l0-0.05l0-0.1l-0.01-0.2l-0.01-0.41 c-0.01-0.27-0.01-0.54-0.02-0.81c-0.01-0.54,0-1.07,0.01-1.58c0.01-1.02,0.06-1.99,0.13-2.82c0.13-1.66,0.36-2.78,0.36-2.78 c0.05-0.23,0.27-0.38,0.5-0.33c0.16,0.03,0.28,0.15,0.32,0.3c0,0,0.32,1.09,0.57,2.74c0.13,0.82,0.26,1.78,0.35,2.83 c0.05,0.52,0.1,1.06,0.13,1.61c0.01,0.27,0.03,0.55,0.04,0.83l0.02,0.42l0.01,0.47c-0.02,0.55-0.06,1.1-0.09,1.65 c-0.04,0.54-0.08,1.07-0.19,1.63c-0.08,0.53-0.21,1.09-0.3,1.53c-0.09,0.45-0.2,0.88-0.29,1.27c-0.14,0.78-0.26,1.44-0.37,1.91 c0.36,0.04,0.73,0.06,1.08,0.1c0.23,0.02,0.45,0.04,0.68,0.05c0.16,0.02,0.45,0,0.67,0c0.47,0,0.92-0.01,1.37-0.01 c3.58-0.02,6.56-0.03,8.65-0.04c2.1,0.01,3.3,0.01,3.3,0.01c0.23,0,0.41,0.18,0.41,0.41c0,0.21-0.16,0.39-0.37,0.41l-0.04,0 c0,0-1.18,0.1-3.26,0.29c-1.05,0.08-2.32,0.18-3.78,0.3c-1.44,0.1-3.07,0.21-4.85,0.33c-1.71,0.13-3.95,0.21-5.94-0.21 c-0.47-0.05-0.89-0.17-1.44-0.16c-0.51-0.02-1.02-0.03-1.53-0.05c-1.07,0.03-2.17,0.07-3.28,0.1c-1.12,0.03-2.26,0.06-3.41,0.09 c-1.15,0.05-2.22,0.07-3.35,0.24c-0.57,0.07-1.26,0.16-1.86,0.21c-0.59,0.02-1.18,0.05-1.78,0.07c-1.19,0.04-2.39,0.07-3.59,0.11 c-1.2,0.03-2.41,0.06-3.61,0.09c-1.19-0.02-2.38-0.04-3.56-0.07c-1.17-0.03-2.35-0.03-3.48-0.08c-0.6-0.03-1.2-0.06-1.8-0.09 c-0.59-0.05-1.19-0.16-1.74-0.23c-0.52-0.06-0.98-0.17-1.54-0.19c-0.55-0.03-1.09-0.06-1.63-0.08c-1.06,0-2.09-0.01-3.09-0.01 c-1.02,0-2.02-0.01-2.99-0.01c-0.24,0-0.48,0-0.72-0.01c-0.27,0-0.48-0.02-0.72-0.03c-0.47-0.03-0.93-0.05-1.38-0.07 c-1.81-0.09-3.43-0.19-4.89-0.29c-1.45-0.07-2.71-0.13-3.75-0.18c-2.09-0.1-3.28-0.18-3.28-0.18c-0.23-0.02-0.4-0.21-0.38-0.44 C176.88,399.88,177.04,399.72,177.25,399.71z M236.6,391.63L236.6,391.63C236.6,391.64,236.6,391.6,236.6,391.63z M257.28,325.24 h47.06v-12.71h-47.06V325.24z M137.61,360.27h1.86h6.43h2.06l-2.06-14.78h-2.09l-1.78-11.07l-11.06-4.09l-0.89,2.54l10.87,3.58 l1.01,9.04h-2.17h-3.68L137.61,360.27z M171.58,409.98c0.22-0.05,0.36-0.27,0.31-0.49c0,0-0.05-0.21-0.14-0.59 c-0.11-0.39-0.18-0.96-0.43-1.69c-0.14-0.36-0.24-0.79-0.45-1.2c-0.2-0.41-0.41-0.88-0.64-1.33c-0.23-0.46-0.48-0.94-0.74-1.45 c-0.26-0.51-0.61-1.06-0.94-1.63c-0.38-0.53-0.76-1.1-1.19-1.66c-0.44-0.54-0.91-1.14-1.4-1.65c-0.24-0.27-0.49-0.54-0.74-0.81 c-0.29-0.3-0.57-0.56-0.86-0.84c-0.55-0.58-1.24-1.05-1.91-1.57c-0.73-0.44-1.53-0.98-2.24-1.28l-0.55-0.26l-0.28-0.13l-0.03-0.02 l-0.08-0.03l-0.02-0.01l-0.08-0.03l-0.16-0.05c-0.42-0.14-0.84-0.28-1.27-0.42c-1.69-0.45-3.78-0.57-5.35-0.4l-0.16,0.01 l-0.23,0.02l-0.31,0.04l-0.63,0.08c-0.41,0.05-0.83,0.11-1.27,0.18c-0.43,0.07-0.85,0.12-1.29,0.21c-0.46,0.11-0.92,0.22-1.37,0.32 c-0.47,0.1-0.8,0.28-1.2,0.41l-0.57,0.22c-0.18,0.08-0.06,0.03-0.1,0.05l-0.02,0.01l-0.04,0.02l-0.07,0.04l-0.14,0.08l-0.29,0.17 c-0.38,0.22-0.77,0.43-1.13,0.67c-0.34,0.25-0.68,0.5-1.02,0.75c-0.67,0.5-1.26,1.05-1.84,1.55c-0.55,0.51-1.1,1.03-1.63,1.55 c-1.07,1.01-2.01,2.05-2.85,3.1c-0.41,0.52-0.71,0.97-1.09,1.5c-0.31,0.49-0.6,0.95-0.88,1.38c-0.55,0.87-1.04,1.7-1.31,2.43 c-0.31,0.72-0.43,1.26-0.56,1.64c-0.12,0.38-0.18,0.58-0.18,0.58l0,0.01c-0.06,0.19,0.03,0.4,0.21,0.49 c0.2,0.1,0.45,0.02,0.55-0.19c0,0,0.09-0.19,0.27-0.54c0.18-0.34,0.42-0.91,0.75-1.51c0.31-0.62,0.81-1.29,1.44-2.08 c0.32-0.4,0.66-0.82,1.02-1.27c0.33-0.38,0.75-0.9,1.15-1.34c0.82-0.84,1.77-1.78,2.85-2.69c0.53-0.46,1.09-0.93,1.68-1.42 c0.58-0.47,1.14-0.96,1.76-1.38c0.3-0.21,0.61-0.42,0.92-0.63c0.32-0.19,0.65-0.35,0.97-0.53l0.24-0.13l0.12-0.07l0.06-0.03 l0.03-0.02l0,0l0.52-0.19l0.58-0.21c0.2-0.08,0.39-0.14,0.56-0.17c1.28-0.33,3.14-0.51,4.64-0.7c0.83-0.05,1.72-0.15,2.39-0.06 c0.71,0,1.47,0.19,2.21,0.33c0.36,0.11,0.72,0.22,1.08,0.33l0.14,0.04l0.07,0.02l0.02,0.01c0.02,0.01,0.02,0.01,0,0l0.27,0.12 l0.56,0.24c0.8,0.3,1.32,0.69,1.96,1.03c0.3,0.21,0.59,0.43,0.88,0.64c0.3,0.2,0.58,0.43,0.84,0.67c0.27,0.23,0.53,0.46,0.79,0.69 c0.26,0.26,0.52,0.52,0.78,0.77c0.53,0.51,0.95,1,1.41,1.48c0.44,0.48,0.83,0.98,1.21,1.45c0.34,0.5,0.67,0.97,0.99,1.42 c0.31,0.48,0.61,0.94,0.89,1.37c0.28,0.43,0.5,0.82,0.73,1.19c0.24,0.36,0.35,0.72,0.51,1.04c0.29,0.64,0.47,1.2,0.62,1.56 c0.14,0.36,0.21,0.56,0.21,0.56l0,0.01C171.18,409.92,171.38,410.03,171.58,409.98z M97.46,404.89l0.38,4.76h22.64l-0.71-4.76 H97.46z M177.23,368.21c0.14,0.09,0.38,0.33,0.56,0.5c0.18,0.2,0.36,0.4,0.5,0.66c0.32,0.49,0.44,1.19,0.4,1.72 c-0.09,1.1-0.43,1.8-0.58,2.51c-0.08,0.35-0.15,0.69-0.18,1.03c-0.02,0.17-0.03,0.34-0.03,0.51l-0.01,0.56 c0.01,1.59-0.01,3.19-0.02,4.77c-0.02,1.63-0.04,3.05,0.28,4.53l0.1,0.65c0.03,0.23,0.04,0.49,0.05,0.74 c0.03,0.24-0.03,0.51-0.05,0.77l-0.05,0.38l-0.1,0.35c-0.07,0.23-0.14,0.47-0.22,0.69l-0.28,0.61l-0.14,0.3l-0.07,0.15l-0.02,0.04 l-0.01,0.02l-0.05,0.08l-0.04,0.06l-0.32,0.51c-0.13,0.19-0.36,0.45-0.55,0.66c-0.2,0.22-0.49,0.39-0.75,0.56 c-0.29,0.12-0.63,0.26-0.93,0.29c-0.29,0.02-0.63,0.06-0.86,0.01c-1.05-0.13-1.75-0.4-2.58-0.7c-0.38-0.15-0.89-0.39-1.29-0.66 c-0.42-0.3-0.85-0.69-1.11-1.16c-0.27-0.46-0.43-0.88-0.57-1.25c-0.14-0.35-0.27-0.68-0.43-0.97c-0.63-1.22-1.81-2.14-3.04-3.2 c-1.2-0.94-2.45-1.87-3.82-2.54l-1.03-0.51l-0.26-0.13l-0.26-0.1l-0.56-0.21c-0.75-0.31-1.48-0.52-2.22-0.75 c-0.73-0.25-1.51-0.36-2.27-0.54c-0.77-0.13-1.55-0.21-2.32-0.32l-0.06-0.01c-0.08-0.01-0.15-0.05-0.21-0.1 c-0.27-0.24-0.54-0.47-0.79-0.73c-0.26-0.25-0.5-0.53-0.72-0.83c-0.22-0.29-0.43-0.61-0.58-0.96c-0.16-0.35-0.27-0.73-0.32-1.12 c-0.04-0.2-0.01-0.4-0.01-0.59c0.03-0.19,0.05-0.39,0.1-0.58c0.06-0.18,0.1-0.38,0.19-0.55c0.08-0.17,0.15-0.35,0.25-0.51 c0.18-0.33,0.4-0.63,0.63-0.91c0.23-0.28,0.48-0.54,0.72-0.8l0.01-0.01c0.54-0.54,1.25-1.14,2.08-1.45 c0.85-0.31,1.78-0.26,2.57-0.13c0.8,0.13,1.56,0.24,2.32,0.25c0.38,0,0.76,0,1.14-0.05l1.19-0.12c0.8-0.05,1.56-0.2,2.4-0.17 l2.4-0.01c0.78-0.02,1.54-0.15,2.31-0.21l0.29-0.03c0.03,0,0.13-0.01,0.11-0.01l0.15-0.03l0.58-0.12c0.32-0.09,0.65-0.2,0.99-0.34 c0.67-0.28,1.28-0.67,2.01-1.09c0.35-0.21,0.79-0.42,1.27-0.57c0.5-0.13,1.07-0.18,1.59-0.07 C175.77,367.18,176.52,367.69,177.23,368.21z M176.52,370.36c-0.04-0.09-0.13-0.2-0.2-0.3c-0.11-0.1-0.13-0.17-0.31-0.31 c-0.53-0.45-1.14-0.87-1.66-0.98c-0.93-0.37-2.3,0.83-3.95,1.39c-0.4,0.14-0.84,0.26-1.29,0.35l-0.6,0.09l-0.15,0.02 c-0.11,0.02-0.12,0.01-0.19,0.01l-0.31,0.01c-0.82,0.03-1.64,0.11-2.45,0.08l-2.38-0.13c-0.75-0.08-1.57,0.03-2.36,0.06l-1.19,0.08 c-0.41,0.04-0.83,0.03-1.25,0.01c-0.83-0.04-1.65-0.2-2.42-0.32c-0.78-0.14-1.49-0.17-2.15,0.06c-0.67,0.25-1.21,0.68-1.8,1.25 c-0.23,0.24-0.45,0.48-0.65,0.73c-0.2,0.25-0.39,0.52-0.54,0.8c-0.09,0.13-0.14,0.28-0.2,0.42c-0.07,0.14-0.09,0.29-0.14,0.43 c-0.04,0.15-0.05,0.29-0.07,0.44c0.01,0.15-0.02,0.29,0.02,0.44c0.03,0.29,0.12,0.58,0.25,0.85c0.13,0.28,0.3,0.54,0.49,0.79 c0.2,0.25,0.42,0.49,0.66,0.71c0.2,0.2,0.42,0.38,0.64,0.56c0.75,0.08,1.51,0.13,2.26,0.24l1.2,0.22c0.4,0.06,0.8,0.14,1.2,0.25 c0.8,0.2,1.6,0.39,2.34,0.65l0.57,0.18l0.3,0.1l0.28,0.12l1.14,0.48c1.52,0.65,2.91,1.56,4.25,2.51c1.21,0.95,2.69,1.93,3.65,3.52 c0.49,0.77,0.77,1.66,1.07,2.08c0.27,0.41,0.76,0.66,1.42,0.89c0.67,0.23,1.5,0.46,2.03,0.5c0.16,0.03,0.22-0.02,0.33-0.01 c0.09-0.01,0.13-0.06,0.2-0.07c0.05-0.08,0.13-0.09,0.19-0.17c0.06-0.1,0.11-0.12,0.21-0.26l0.3-0.52l0.19-0.42l0.22-0.48 l0.13-0.45c0.16-0.6,0.15-1.06-0.01-1.84c-0.07-0.4-0.16-0.78-0.21-1.25l-0.09-0.68l-0.03-0.6l-0.02-0.65l0.01-0.6l0.02-1.2 c0.04-1.6,0.05-3.19,0.11-4.78l0.03-0.63c0.01-0.23,0.03-0.46,0.07-0.68c0.06-0.45,0.16-0.89,0.28-1.31 c0.23-0.83,0.56-1.62,0.62-2.11C176.63,370.68,176.63,370.55,176.52,370.36z M168.84,373.82h5.58v-1.77l-5.58,0.35V373.82z M311.32,309.34c-0.85,0.03-1.91,0.06-3.14,0.09c-0.61,0-1.31,0.08-1.96,0.02c-0.7-0.03-1.45-0.07-2.24-0.1 c-1.59-0.06-3.32-0.17-5.28-0.22c-1.92-0.04-3.99-0.07-6.2-0.12c-0.56-0.02-1.15,0.03-1.74,0.05c-0.3,0.01-0.59,0.02-0.89,0.04 c-0.3,0.04-0.6,0.09-0.9,0.13c-0.56,0.08-1.14,0.16-1.72,0.25c-0.57,0.08-1.21,0.06-1.82,0.1l-0.47,0.02l-0.12,0 c0.05,0-0.05,0-0.07-0.01l-0.23-0.01c-0.31-0.02-0.63-0.03-0.94-0.05c-0.63-0.03-1.27-0.06-1.91-0.09c-1.3-0.06-2.63-0.13-4-0.19 c-1.38,0.04-2.8,0.08-4.24,0.12c-0.71,0.02-1.42,0.04-2.15,0.07c-0.35,0.01-0.76,0.03-1.05,0.03c-0.36-0.01-0.71-0.02-1.07-0.03 c-0.72-0.01-1.44-0.07-2.17-0.13c-0.74-0.05-1.57-0.16-2.31-0.16c-1.52-0.05-3.06-0.09-4.63-0.14c-0.78-0.02-1.56-0.05-2.35-0.07 l-1.19-0.04l-0.6-0.02c-0.26,0-0.43,0.02-0.65,0.02c-0.84,0.05-1.7,0.04-2.54,0.22c-0.91,0.14-1.51,0.27-2.31,0.35l-1.23,0.06 l-0.62,0.03l-0.53-0.03c-0.78-0.05-1.57-0.05-2.36-0.21l-1.27-0.19c-0.45-0.06-0.92-0.15-1.33-0.15l-1.27-0.06l-0.69-0.03 l-0.64-0.01c-1.7-0.03-3.41-0.07-5.14-0.1c-1.77-0.06-3.5,0.03-5.26,0.03c-1.77,0.03-3.48,0.03-5.36,0.12 c-0.92,0.08-1.87,0.21-2.65,0.3c-0.79,0.11-1.81,0.09-2.59,0.13c-1.77-0.08-3.55-0.17-5.33-0.25l-1.35-0.06l-0.34-0.02l-0.22-0.01 h-0.17l-0.68,0l-2.71-0.01c-3.61-0.05-7.3,0.07-10.92,0.14c-3.54-0.04-7.26-0.14-10.88-0.03c-1.81,0.02-3.63,0.09-5.35,0.03 c-0.89-0.02-1.69-0.12-2.67-0.19c-0.48-0.04-0.94-0.07-1.38-0.07l-1.34-0.03c-1.81,0.06-3.62,0.11-5.41,0.17 c-0.88,0.03-1.75,0.05-2.62,0.08c-0.89,0.02-1.77,0.04-2.65,0.06c-1.77,0.04-3.48,0.06-5.25,0.13c-0.89,0.01-1.79,0.11-2.65,0.19 l-1.21,0.12l-1.28,0.05l-0.64,0.02l-0.28,0.01l-0.31-0.01l-1.23-0.03c-0.41,0-0.81-0.03-1.22-0.08l-1.26-0.11 c-0.9-0.1-1.73-0.11-2.55-0.13l-0.62-0.02l-0.66,0.01l-1.24,0.01c-3.29,0.06-6.48,0.11-9.6,0.1c-3.13,0.03-6.15-0.02-9.09-0.04 c-0.37,0-0.73-0.01-1.1-0.01c-0.4,0-0.76,0.03-1.14,0.05c-0.38,0.02-0.75,0.04-1.12,0.06c-0.37,0.03-0.73,0.1-1.1,0.14 c-0.68,0.09-1.35,0.19-2.01,0.28c-0.69,0.04-1.38,0.07-2.06,0.11c-5.44,0.03-10.42,0.06-14.83,0.08c-0.54-0.01-1.07-0.02-1.59-0.03 c-0.52-0.02-1.03-0.09-1.53-0.14c-0.53-0.05-1.06-0.1-1.57-0.15c-0.5-0.01-0.99-0.02-1.47-0.03c-0.24,0-0.48-0.01-0.71-0.01 c-0.24,0.01-0.49,0.02-0.73,0.03c-0.46,0.02-0.91,0.04-1.35,0.06c-0.88,0.04-1.72,0.08-2.52,0.11c-0.79,0.04-1.55,0.07-2.25,0.1 c-0.68,0.04-1.35,0.01-1.95,0.01c-0.82,0-1.54-0.05-2.21-0.1c-0.32-0.02-0.63-0.04-0.92-0.06c-0.87-0.06-1.51-0.02-1.95-0.04 c-0.44,0-0.67,0-0.67,0c-0.22,0-0.41,0.17-0.42,0.39c-0.01,0.23,0.17,0.42,0.39,0.43c0,0,0.23,0.01,0.67,0.03 c0.44,0.03,1.1,0.02,1.93,0.1c0.29,0.02,0.62,0.06,0.97,0.09c0.64,0.07,1.36,0.14,2.17,0.17c0.63,0.01,1.29,0.08,2.03,0.05 c0.71-0.01,1.46-0.03,2.26-0.04c0.79-0.02,1.63-0.03,2.5-0.05c0.44-0.01,0.88-0.02,1.34-0.03c0.22,0,0.44-0.01,0.67-0.01 c0.23,0.01,0.47,0.02,0.71,0.03c0.48,0.02,0.97,0.05,1.46,0.07c0.48,0.06,0.96,0.12,1.46,0.18c0.53,0.06,1.06,0.15,1.61,0.19 c0.55,0.03,1.11,0.05,1.68,0.08c2.22,0.05,4.58,0.1,7.07,0.15c2.5,0.02,5.13,0.04,7.87,0.06c0.68-0.02,1.37-0.05,2.07-0.07 c0.7-0.07,1.53-0.19,2.17-0.26c0.34-0.04,0.68-0.1,1.02-0.12c0.34-0.01,0.69-0.02,1.04-0.04c0.34-0.01,0.71-0.03,1.03-0.03 c0.36,0.01,0.73,0.02,1.1,0.03c2.94,0.07,6,0.16,9.11,0.18c3.13,0.05,6.36,0.06,9.63,0.05l1.23-0.01l0.58,0l0.62,0.02 c0.83,0.02,1.67,0.04,2.44,0.13c1.63,0.18,3.44,0.3,5.19,0.23l1.28-0.04l1.35-0.12c0.85-0.08,1.67-0.16,2.51-0.16 c1.69-0.05,3.46-0.06,5.2-0.1c0.87-0.01,1.75-0.03,2.63-0.04c0.89-0.02,1.79-0.05,2.68-0.07c1.75-0.05,3.51-0.09,5.28-0.14 l1.34,0.04l0.67,0.02l0.63,0.06c0.81,0.06,1.8,0.18,2.71,0.2c1.88,0.08,3.68,0.01,5.49,0c3.62-0.08,7.18,0.03,10.91,0.04 c3.65-0.09,7.22-0.23,10.86-0.2l2.72,0l0.68,0h0.15c0.01,0,0.05,0,0.05,0l0.08,0l0.34,0.01l1.35,0.06 c1.82,0.08,3.63,0.15,5.44,0.23c1-0.05,1.78-0.03,2.76-0.15c0.99-0.11,1.8-0.23,2.65-0.31c1.66-0.08,3.48-0.11,5.22-0.14 c1.74-0.01,3.5-0.11,5.19-0.05c1.74,0.03,3.46,0.05,5.17,0.07l0.64,0.01l0.26,0.01l0.32,0.01l1.27,0.05c0.44,0,0.8,0.08,1.18,0.13 l1.22,0.18c0.87,0.16,1.75,0.16,2.62,0.2l0.33,0.01l0.16,0.01l0.08,0l0.14-0.01l0.62-0.04l1.23-0.08c0.82-0.08,1.82-0.3,2.52-0.41 c0.75-0.18,1.52-0.16,2.27-0.23c0.18-0.01,0.4-0.03,0.54-0.03l0.6,0.01l1.19,0.02c0.79,0.01,1.58,0.03,2.36,0.04 c1.56,0.03,3.1,0.05,4.61,0.07c0.78-0.01,1.45,0.09,2.2,0.12c0.76,0.06,1.52,0.11,2.27,0.11c0.38,0.01,0.75,0.01,1.12,0.02 c0.43,0,0.75-0.03,1.12-0.04c0.72-0.03,1.44-0.07,2.15-0.1c1.4-0.06,2.76-0.13,4.1-0.19c1.36,0.05,2.7,0.09,4.01,0.13 c0.66,0.02,1.31,0.04,1.95,0.06c0.32,0.01,0.64,0.02,0.96,0.03l0.24,0.01l0.16,0l0.12-0.01l0.47-0.03 c0.63-0.05,1.22-0.05,1.85-0.14c0.62-0.1,1.22-0.2,1.82-0.3c0.28-0.05,0.56-0.09,0.84-0.14c0.28-0.03,0.56-0.04,0.83-0.06 c0.55-0.03,1.09-0.09,1.63-0.08c2.22-0.01,4.29-0.02,6.21-0.03c1.88,0,3.66,0.07,5.25,0.1c0.8,0.02,1.56,0.03,2.27,0.05 c0.76,0.03,1.38-0.06,2.01-0.09c1.23-0.08,2.28-0.14,3.13-0.19c1.69-0.11,2.6-0.16,2.6-0.16h0l0.04,0c0.22-0.01,0.39-0.2,0.38-0.42 c-0.01-0.23-0.2-0.4-0.42-0.4c0,0,0,0,0,0C313.94,309.26,313.03,309.29,311.32,309.34z M39.6,406.75c-0.04-0.99-0.09-2-0.14-3.05 c-0.05-0.52-0.1-1.05-0.15-1.59c-0.04-0.52-0.12-1.01-0.14-1.56c-0.02-0.55-0.05-1.1-0.07-1.65c-0.01-0.55-0.02-1.11-0.04-1.67 c-0.13-4.57-0.14-9.46-0.08-14.7c0.02-1.3,0.04-2.62,0.05-3.95l0.01-1.01l0-0.25l0-0.06l0-0.1l-0.01-0.13l-0.03-0.53 c-0.05-0.7-0.05-1.42-0.17-2.12c-0.09-0.66-0.18-1.33-0.27-2c-0.08-0.65-0.09-1.37-0.14-2.06c-0.03-1.3,0-2.76-0.01-4.16 c0-1.44,0.02-2.84-0.01-4.33c-0.01-1.44-0.03-2.89-0.04-4.36c0-0.73-0.01-1.47-0.01-2.21c0.02-0.71-0.02-1.42,0.05-2.13 c0.06-0.75,0.12-1.51,0.19-2.26c0.04-0.78,0.02-1.5,0.04-2.25c-0.16-3.11-0.34-6.08-0.53-9.08c-0.1-1.52-0.2-3.04-0.3-4.56 l-0.04-0.57l-0.02-0.28l0-0.07c0-0.07,0,0.01,0-0.02l0-0.14l0.01-1.13l0.02-2.25l0.02-2.28l0.01-1.14c0-0.46-0.04-0.8-0.06-1.21 l-0.07-1.18l-0.14-1.17c-0.09-0.79-0.21-1.4-0.25-2.18l-0.07-1.13l-0.03-0.57l0-0.52l0.02-2.23c0.01-1.52,0.02-3.03,0.03-4.53 c0.02-2.95,0.11-5.87,0.07-8.88c-0.01-1.46-0.03-2.91-0.04-4.36l-0.01-1.11l-0.06-1.11c-0.03-0.74-0.1-1.47-0.19-2.2 c-0.37-2.7-0.34-5.54-0.46-8.28c-0.13-2.75-0.15-5.39-0.21-8.01c-0.01-0.66-0.03-1.31-0.04-1.96c-0.05-0.66-0.09-1.33-0.14-1.98 c-0.07-0.64-0.19-1.32-0.27-1.91c-0.08-0.58-0.19-1.14-0.22-1.77c-0.03-0.6-0.11-1.26-0.1-1.78c0-0.6,0.01-1.19,0.01-1.78 c0.01-1.18,0.01-2.34,0.02-3.47c0-0.58,0-1.16,0.01-1.73c-0.01-0.55-0.02-1.1-0.03-1.65c-0.02-1.09-0.03-2.15-0.05-3.18 c-0.01-0.52-0.02-1.03-0.03-1.54c-0.01-0.51-0.01-1.01-0.02-1.51c-0.01-0.98-0.01-1.93-0.02-2.84c-0.01-0.93-0.01-1.82-0.02-2.69 c0-0.22,0-0.43,0-0.64l0-0.16l0-0.1l-0.01-0.08l-0.03-0.32c-0.03-0.43-0.07-0.84-0.1-1.25c-0.05-0.81-0.23-1.61-0.33-2.31 c-0.06-0.35-0.11-0.69-0.16-1.02c-0.03-0.35-0.06-0.69-0.08-1.02c-0.35-5.3-0.56-8.32-0.56-8.32c-0.01-0.22-0.2-0.39-0.42-0.38 c-0.23,0.01-0.41,0.19-0.4,0.42c0,0,0.02,0.76,0.05,2.18c0.05,1.44,0.06,3.48,0.19,6.18c0.02,0.33,0.04,0.67,0.05,1.02 c0.05,0.36,0.09,0.73,0.14,1.11c0.08,0.76,0.23,1.47,0.25,2.26c0.02,0.39,0.04,0.79,0.06,1.19l0.01,0.31l0,0.08c0,0,0,0.05,0,0.02 l0,0.04l0,0.16c0,0.21-0.01,0.43-0.01,0.64c-0.02,0.86-0.04,1.76-0.06,2.69c-0.02,0.93-0.04,1.89-0.07,2.89 c-0.01,0.49-0.02,0.98-0.03,1.49c0,0.51-0.01,1.02-0.01,1.54c0,1.04-0.01,2.11-0.01,3.2c0,0.55,0,1.1-0.01,1.66 c-0.01,0.55-0.02,1.1-0.04,1.66c-0.03,1.14-0.05,2.31-0.08,3.5c-0.01,0.6-0.03,1.2-0.04,1.81c-0.02,0.68,0.05,1.23,0.07,1.86 c0.01,0.6,0.11,1.26,0.2,1.92c0.08,0.65,0.17,1.21,0.23,1.83c0.03,0.61,0.06,1.23,0.1,1.85c0,0.64,0,1.28,0,1.93 c0.01,2.6-0.02,5.33,0.06,8.06c0.11,2.74,0.05,5.52,0.42,8.47c0.08,0.69,0.15,1.38,0.17,2.07l0.05,1.05l0,1.06 c0,1.45,0.01,2.91,0.01,4.38c0.02,2.86-0.09,5.87-0.12,8.9c-0.02,1.48-0.04,2.97-0.06,4.47l-0.03,2.29l0,0.61l0.03,0.57l0.06,1.13 c0.03,0.73,0.18,1.62,0.25,2.34l0.13,1.09l0.06,1.09c0.01,0.35,0.05,0.76,0.05,1.06l0,1.14l0,2.28l0,2.3l0,1.15v0.14l0.01,0.19 l0.02,0.28l0.04,0.57c0.11,1.5,0.22,3.01,0.33,4.51c0.2,3,0.39,5.98,0.58,8.95c-0.01,0.74,0.01,1.51-0.02,2.22 c-0.06,0.73-0.11,1.45-0.17,2.18c-0.07,0.77-0.03,1.54-0.04,2.3c0.01,0.74,0.02,1.47,0.03,2.2c0.02,1.47,0.04,2.93,0.07,4.38 c0.03,1.4,0.02,2.87,0.03,4.28c0,0.72,0.01,1.43,0.01,2.14c0.01,0.73-0.02,1.38,0.03,2.17c0.06,0.71,0.08,1.37,0.18,2.1 c0.11,0.7,0.21,1.4,0.32,2.09c0.13,0.65,0.13,1.31,0.19,1.95l0.04,0.49l0.01,0.12c0,0.05,0,0,0,0.03v0.06l0,0.25l0,1.01 c0,1.34,0.01,2.67,0.01,3.98c0.03,5.2,0.13,10.19,0.33,14.73c0.02,0.58,0.05,1.15,0.07,1.71c0.03,0.56,0.07,1.11,0.1,1.65 c0.02,0.54,0.12,1.11,0.18,1.65c0.06,0.52,0.13,1.04,0.19,1.54c0.08,1.03,0.15,2.03,0.22,3.01c0.08,0.98,0.16,1.93,0.23,2.86 c0.38,3.65,0.35,6.87,0.44,9.55c0.16,5.32,0.24,8.35,0.24,8.35c0.01,0.22,0.19,0.4,0.41,0.4c0.23,0,0.41-0.18,0.41-0.41l0-0.01 c0,0,0.02-3.04,0.05-8.36c-0.02-2.64,0.1-5.88-0.18-9.61C39.7,408.68,39.65,407.73,39.6,406.75z M341.8,149.9 c-0.22-0.05-0.44,0.08-0.5,0.3c0,0-0.18,0.72-0.51,2.08c-0.09,0.33-0.2,0.69-0.31,1.09c-0.14,0.39-0.33,0.81-0.51,1.26 c-0.43,0.91-0.91,1.98-1.5,3.13c-0.57,1.16-1.3,2.39-2.12,3.67c-0.23,0.32-0.47,0.65-0.71,0.98c-0.12,0.17-0.24,0.33-0.36,0.5 c-0.12,0.15-0.25,0.31-0.38,0.46c-0.27,0.32-0.54,0.65-0.81,0.98c-0.29,0.31-0.59,0.63-0.89,0.96c-0.29,0.29-0.6,0.59-0.93,0.89 c-1.01,0.92-2.18,1.82-3.47,2.4c-0.45,0.17-0.91,0.33-1.38,0.51c-0.47,0.16-0.96,0.26-1.45,0.4c-0.42,0.13-0.9,0.2-1.38,0.28 l0.02-0.83l0.01-0.56l0-0.14l0-0.12l0-0.07l-0.02-0.28c-0.05-0.75-0.09-1.5-0.14-2.26c-0.09-1.5-0.18-3-0.28-4.51 c-0.01-1.49-0.02-2.98-0.03-4.47c-0.01-1.5-0.01-3.06-0.05-4.58c-0.03-1.52-0.06-3.05-0.08-4.58c-0.04-1.53,0.05-3.03,0.06-4.54 l0.05-2.3l0.03-1.15c0.01-0.48-0.04-0.82-0.05-1.24l-0.07-1.2l-0.16-1.18c-0.09-0.8-0.23-1.39-0.27-2.18 c-0.04-0.74-0.11-1.57-0.12-2.24l-0.08-2.29c-0.05-1.51-0.11-3.02-0.16-4.52c0.02-0.72,0-1.44,0.04-2.16 c0.07-0.75,0.14-1.51,0.21-2.26c0.05-0.41,0.05-0.78,0.05-1.15l0.01-1.12c0.01-0.83-0.07-1.56-0.1-2.34 c-0.05-0.75-0.19-1.56-0.27-2.24l-0.14-1.02l-0.06-1.09l-0.06-1.05l-0.03-1.09c-0.02-0.72-0.04-1.44-0.05-2.16 c-0.03-1.43-0.09-2.86-0.09-4.26c0.03-1.39,0.06-2.78,0.09-4.14c0.01-0.69,0.02-1.38,0.03-2.06l0.01-0.51l0-0.13l0-0.11l0-0.07 l-0.02-0.26l-0.07-1.05c-0.03-0.7-0.13-1.39-0.24-2.07c-0.09-0.68-0.2-1.23-0.26-1.88c-0.04-0.64-0.08-1.28-0.12-1.92 c0.01-0.64,0.02-1.28,0.03-1.91c0.02-1.27,0.04-2.52,0.06-3.75l0.01-0.92l0.01-0.46c0.01-0.24-0.02-0.33-0.03-0.5 c-0.05-0.61-0.09-1.22-0.14-1.82c-0.09-1.2-0.18-2.37-0.27-3.52c-0.04-0.55-0.1-1.18-0.12-1.65c0.01-0.54,0.02-1.07,0.03-1.59 c-0.01-0.53,0.12-1.04,0.17-1.55c0.08-0.56,0.15-1.12,0.23-1.67c0.04-0.54,0.03-1.04,0.04-1.56c0-0.27,0.01-0.54,0.01-0.81 c-0.02-0.25-0.04-0.5-0.06-0.75c-0.07-1-0.15-1.96-0.22-2.9c-0.07-0.93-0.14-1.83-0.2-2.7c-0.02-0.22-0.03-0.43-0.05-0.65 l-0.01-0.16c0-0.02-0.01-0.08,0-0.05l0-0.08l-0.01-0.32c-0.01-0.42-0.02-0.83-0.03-1.23c-0.03-1.61-0.06-3.09-0.09-4.43 c-0.13-5.36-0.21-8.42-0.21-8.42c-0.01-0.22-0.18-0.4-0.41-0.4c-0.23,0-0.41,0.18-0.42,0.41c0,0-0.04,3.06-0.11,8.42 c-0.01,1.34-0.03,2.83-0.04,4.44c0,0.41-0.01,0.82-0.01,1.24l0,0.32l0,0.08l0,0.11l0.01,0.16c0.01,0.21,0.02,0.43,0.03,0.65 c0.04,0.87,0.08,1.77,0.12,2.7c0.04,0.92,0.08,1.88,0.13,2.86c0.01,0.25,0.02,0.49,0.03,0.74c-0.01,0.24-0.02,0.47-0.03,0.71 c-0.03,0.5-0.03,1.04-0.09,1.54c-0.08,0.49-0.16,0.98-0.24,1.48c-0.07,0.55-0.22,1.11-0.22,1.68c-0.02,0.57-0.05,1.16-0.07,1.74 c0.01,0.65,0.06,1.15,0.09,1.75c0.07,1.14,0.14,2.31,0.2,3.49c0.03,0.59,0.07,1.18,0.1,1.78c0,0.13,0.03,0.34,0.02,0.41l-0.02,0.46 l-0.03,0.92c-0.04,1.24-0.09,2.51-0.13,3.79c-0.02,0.65-0.04,1.3-0.07,1.96c0.03,0.66,0.06,1.33,0.09,2 c0.04,0.66,0.17,1.41,0.24,2.06c0.08,0.64,0.17,1.28,0.18,1.93l0.05,0.97l0.01,0.24l0,0.06c0,0.03,0-0.05,0,0.01l0,0.13l-0.02,0.51 c-0.02,0.68-0.05,1.37-0.07,2.06c-0.04,1.4-0.07,2.81-0.11,4.23c0,1.42,0.05,2.83,0.07,4.27c0.01,0.72,0.03,1.44,0.04,2.16 l0.02,1.09l0.06,1.13l0.06,1.09l0.14,1.16l0.14,1.09c0.04,0.35,0.1,0.7,0.11,1.06c0.02,0.69,0.1,1.45,0.08,2.1l-0.02,1.12 c0,0.38-0.01,0.75-0.06,1.08c-0.07,0.74-0.14,1.47-0.22,2.21c-0.05,0.78-0.04,1.57-0.06,2.35c0.04,1.51,0.09,3.03,0.13,4.55 l0.07,2.27c0.02,0.85,0.08,1.55,0.11,2.33c0.03,0.73,0.2,1.65,0.28,2.37l0.14,1.09l0.06,1.09c0.01,0.35,0.05,0.77,0.05,1.05 l-0.02,1.15l-0.04,2.3c-0.01,1.55-0.09,3.11-0.03,4.64c0.04,1.53,0.07,3.06,0.11,4.58c0.05,1.53,0.05,3.02,0.07,4.55 c0.02,1.54,0.04,3.07,0.06,4.6c0.1,1.5,0.2,2.99,0.3,4.48c0.05,0.74,0.1,1.47,0.15,2.2l0.02,0.27l0,0.07c0-0.08,0,0.02,0,0.02 l0,0.14l-0.01,0.56l-0.02,1.11c0,0.02,0,0.03,0,0.05c-1.94,0.07-3.87-0.36-5.51-1.69c-0.79-0.62-1.59-1.54-2.29-2.5 c-0.71-0.97-1.4-2.03-2.13-3.1c-0.72-1.08-1.39-2.11-2.1-3.25c-0.71-1.12-1.53-2.36-2.37-3.36c-0.94-1.13-1.96-2.1-3.12-3 c-0.27-0.24-0.58-0.45-0.91-0.65l-0.97-0.61c-0.33-0.22-0.64-0.36-0.96-0.51l-0.95-0.45l-0.24-0.11l-0.06-0.03 c0.04,0.01-0.12-0.05-0.13-0.05l-0.13-0.04l-0.53-0.18l-1.07-0.35c-0.74-0.16-1.47-0.32-2.23-0.45c-0.77-0.06-1.58-0.15-2.33-0.16 l-1.08,0.05l-0.54,0.02l-0.27,0.01l-0.14,0.01c-0.01,0-0.18,0.02-0.14,0.01l-0.08,0.01c-1.63,0.19-3.16,0.83-4.5,1.61 c-0.67,0.39-1.3,0.82-1.93,1.26c-0.59,0.42-1.2,0.88-1.8,1.33c-0.6,0.44-1.18,0.94-1.77,1.41c-0.58,0.5-1.17,1.04-1.73,1.56 l-0.78,0.8l-0.39,0.4c-0.19,0.18-0.27,0.31-0.41,0.47c-0.5,0.61-1.01,1.22-1.43,1.84l-1.28,1.77c-0.38,0.57-0.91,1.14-1.38,1.71 l-0.18,0.21l-0.04,0.05c0,0,0,0.01-0.01,0.01l-0.09,0.08l-0.38,0.34l-0.76,0.69c-0.58,0.42-1.13,0.84-1.74,1.26l-1.86,1.25 l-0.93,0.63c-0.35,0.25-0.64,0.47-0.95,0.71c-1.2,0.94-2.3,1.87-3.47,2.56c-2.25,1.38-5.14,1.46-8.07,1.62 c-1.46,0.06-2.89,0.11-4.28,0.05c-0.7-0.01-1.31-0.13-1.97-0.17l-1.05-0.24l-0.53-0.12l-0.1-0.02c-0.01,0-0.02-0.01-0.02-0.01 l-0.06-0.02l-0.22-0.08c-1.2-0.42-2.31-1.13-3.39-1.97c-1.05-0.84-2.23-1.8-3.21-2.66c-0.51-0.44-1.02-0.88-1.53-1.32 c-0.51-0.44-0.97-0.98-1.45-1.46c-0.47-0.48-0.93-0.96-1.39-1.44c-0.46-0.52-0.91-1.03-1.36-1.54c-0.46-0.51-0.9-1.02-1.36-1.51 c-0.46-0.48-0.92-0.96-1.38-1.43l-0.68-0.71l-0.34-0.35c-0.17-0.16-0.27-0.24-0.41-0.36l-0.78-0.67l-0.39-0.33l-0.42-0.29 c-1.07-0.79-2.28-1.5-3.41-2.05c-0.58-0.27-1.08-0.53-1.72-0.79c-0.57-0.24-1.15-0.48-1.74-0.7c-1.19-0.43-2.4-0.76-3.67-0.91 c-0.32-0.03-0.66-0.08-0.95-0.08c-0.29,0-0.58-0.01-0.86-0.01c-0.6,0.03-1.19,0.07-1.78,0.1c-2.28,0.19-4.51,0.58-6.49,1.16 c-2.01,0.62-3.83,1.4-5.52,2.25c-0.4,0.22-0.79,0.44-1.18,0.66c-0.2,0.11-0.37,0.2-0.59,0.34c-0.19,0.12-0.37,0.25-0.55,0.37 c-0.36,0.25-0.72,0.49-1.07,0.72c-0.35,0.24-0.65,0.52-0.97,0.77c-0.64,0.49-1.21,1.01-1.75,1.51c-0.55,0.49-1.03,0.98-1.5,1.43 c-0.48,0.46-0.91,0.92-1.32,1.33c-0.41,0.43-0.81,0.79-1.13,1.24c-0.71,0.81-1.1,1.62-1.44,2.25c-0.65,1.24-0.99,1.91-0.99,1.91 c-0.1,0.19-0.03,0.44,0.16,0.55c0.2,0.11,0.45,0.05,0.56-0.15c0,0,0.37-0.65,1.07-1.86c0.36-0.59,0.75-1.33,1.42-2.03 c0.29-0.38,0.72-0.73,1.12-1.13c0.42-0.4,0.85-0.83,1.33-1.26c1.93-1.79,4.24-3.81,7.5-5.37c1.59-0.74,3.36-1.44,5.28-1.96 c1.95-0.52,3.98-0.84,6.17-0.98c0.53-0.02,1.07-0.04,1.62-0.07c0.29,0.01,0.57,0.02,0.86,0.03c0.29,0.01,0.52,0.06,0.78,0.08 c1.05,0.15,2.14,0.45,3.22,0.87c0.54,0.2,1.08,0.44,1.64,0.69c0.49,0.21,1.09,0.53,1.64,0.79c1.1,0.57,2.07,1.17,3.05,1.92 l0.37,0.27l0.34,0.31l0.68,0.61l0.32,0.29l0.33,0.36l0.67,0.72c0.45,0.48,0.9,0.97,1.35,1.46c0.45,0.49,0.87,1,1.3,1.5 c0.44,0.5,0.88,1.01,1.32,1.51c0.48,0.51,0.97,1.01,1.45,1.52c0.49,0.49,0.92,1.01,1.46,1.49c0.54,0.48,1.09,0.95,1.63,1.43 c1.12,0.99,2.13,1.82,3.3,2.76c1.16,0.91,2.48,1.79,4.01,2.34l0.28,0.1l0.07,0.03c0.06,0.02-0.03,0,0.14,0.04l0.13,0.03l0.53,0.13 l1.06,0.25c0.78,0.09,1.62,0.23,2.37,0.25c1.52,0.08,3.02,0.03,4.51-0.02c0.73-0.03,1.47-0.06,2.24-0.11 c0.38-0.03,0.76-0.04,1.14-0.08l1.16-0.16c0.77-0.06,1.57-0.34,2.35-0.52l0.15-0.04c0.01,0,0.16-0.05,0.13-0.04l0.06-0.03l0.26-0.1 l0.52-0.21c0.37-0.18,0.79-0.39,1.15-0.59c1.41-0.82,2.6-1.82,3.75-2.71l0.84-0.63l0.92-0.64l1.85-1.26 c0.62-0.42,1.26-0.92,1.88-1.38l0.9-0.82l0.45-0.41l0.11-0.1l0.13-0.15l0.18-0.21c0.48-0.58,0.97-1.11,1.43-1.78l1.33-1.86 c0.86-1.23,1.68-2.18,2.77-3.27c0.52-0.49,1.02-0.95,1.56-1.42c0.56-0.45,1.09-0.92,1.68-1.35c2.32-1.78,4.59-3.48,7.1-3.79 l0.06-0.01c0.08-0.01-0.05,0-0.01,0l0.14-0.01l0.27-0.01l0.54-0.03l1.08-0.05c0.68,0.01,1.3,0.1,1.94,0.13 c0.65,0.11,1.3,0.25,1.94,0.38l0.94,0.31l0.47,0.15l0.12,0.04c0.01,0,0.01,0,0,0l0.05,0.02l0.24,0.11l0.95,0.44 c0.32,0.15,0.64,0.29,0.89,0.47l0.79,0.5c0.27,0.16,0.53,0.33,0.78,0.54c1.03,0.77,2.01,1.67,2.81,2.6 c0.92,1.05,1.57,2.04,2.3,3.13c0.7,1.09,1.46,2.22,2.19,3.27c1.49,2.06,2.78,4.28,4.97,5.98l0.75,0.51l0.91,0.5 c0.3,0.12,0.61,0.25,0.91,0.37c0.31,0.11,0.62,0.18,0.93,0.27c1.02,0.24,2.04,0.3,3.02,0.26c-0.02,0.9-0.04,1.8-0.06,2.69 c0,0.38-0.02,0.71-0.01,1.14l0.06,1.09c0.04,0.72,0.08,1.44,0.12,2.16c0.06,1.27,0.15,2.56,0.19,3.78c-0.06,0-0.12,0.01-0.16,0.02 c-0.25,0.02-0.51,0.05-0.76,0.07c-1.02,0.04-2.03-0.11-3-0.48c-0.24-0.08-0.48-0.19-0.71-0.32c-0.24-0.11-0.47-0.24-0.68-0.38 c-0.4-0.23-0.98-0.67-1.36-0.99c-0.9-0.74-1.77-1.54-2.6-2.39c-0.39-0.44-0.78-0.87-1.18-1.32c-0.38-0.5-0.76-1.01-1.15-1.51 c-0.74-1.05-1.5-2.11-2.26-3.19c-0.82-1.02-1.65-2.05-2.49-3.1c-0.28-0.33-0.48-0.53-0.72-0.8l-0.72-0.75 c-0.5-0.5-1.02-0.98-1.58-1.45c-0.57-0.46-1.17-0.88-1.82-1.27c-0.33-0.18-0.7-0.4-1.02-0.54l-0.47-0.21l-0.24-0.11 c-0.17-0.07-0.2-0.07-0.3-0.11c-1.39-0.5-2.81-0.91-4.37-1.05l-1.17-0.1c-0.4-0.04-0.72,0.01-1.09,0.01l-1.07,0.04l-0.27,0.01 c-0.17,0.01-0.09,0.01-0.14,0.02l-0.07,0.01l-0.14,0.02l-0.57,0.1l-1.15,0.21c-0.37,0.1-0.74,0.24-1.11,0.36 c-0.37,0.14-0.75,0.22-1.1,0.4l-1.08,0.53l-0.54,0.27l-0.46,0.3l-0.91,0.59l-0.28,0.19l-0.22,0.18l-0.44,0.36l-0.89,0.73 l-0.89,0.73c-0.3,0.24-0.6,0.49-0.84,0.75l-1.55,1.56l-0.78,0.78l-0.14,0.14l-0.09,0.1l-0.18,0.21l-0.36,0.42l-1.44,1.68 c-0.97,1.1-1.94,2.2-2.92,3.3c-1.01,1.04-2.05,2.1-3.11,3c-0.27,0.23-0.52,0.46-0.8,0.69l-0.88,0.68l-0.44,0.34 c-0.08,0.07-0.28,0.2-0.41,0.29l-0.89,0.62c-0.59,0.4-1.2,0.77-1.8,1.14l-0.89,0.47c-0.29,0.16-0.58,0.32-0.94,0.46l-1.02,0.42 l-0.26,0.1l-0.06,0.03c-0.01,0-0.01,0-0.01,0.01l-0.12,0.04l-0.51,0.17c-0.69,0.24-1.37,0.44-2.05,0.62 c-0.69,0.22-1.34,0.31-2,0.45c-0.31,0.08-0.69,0.11-1.05,0.15l-1.09,0.11l-0.14,0.01l-0.07,0.01c0,0,0,0,0,0c0,0,0,0,0,0 l-0.25-0.01l-0.5-0.02l-1-0.03c-0.67-0.08-1.34-0.2-2.01-0.32c-0.67-0.18-1.32-0.32-2.01-0.53c-0.7-0.21-1.37-0.41-2.03-0.64 c-0.67-0.21-1.33-0.44-1.95-0.7c-0.31-0.13-0.64-0.24-0.94-0.38l-0.84-0.43c-0.56-0.23-1.15-0.68-1.73-1.07l-0.22-0.15l-0.09-0.06 c0,0,0,0,0,0l-0.04-0.04l-0.35-0.33l-0.7-0.65c-0.46-0.46-0.87-1-1.3-1.48c-0.43-0.55-0.86-1.09-1.28-1.63 c-0.45-0.54-0.83-1.04-1.33-1.59c-0.47-0.5-0.94-1-1.41-1.5c-0.93-1.01-1.89-1.92-2.83-2.83c-0.92-0.89-1.91-1.85-2.96-2.66 c-2.13-1.68-4.44-2.89-6.9-3.56c-0.62-0.15-1.21-0.34-1.86-0.39c-0.32-0.04-0.63-0.08-0.94-0.12l-0.47-0.06l-0.44-0.01 c-0.6-0.01-1.18-0.02-1.77-0.03c-0.57,0.02-1.13,0.04-1.69,0.06c-1.13,0.07-2.21,0.09-3.35,0.25c-0.56,0.07-1.12,0.13-1.61,0.26 c-0.25,0.06-0.51,0.11-0.76,0.17l-0.37,0.08c-0.22,0.05-0.28,0.09-0.42,0.14c-2.04,0.64-3.77,1.64-5.35,2.56 c-1.54,0.95-3.01,1.79-4.33,2.66c-0.67,0.41-1.3,0.88-1.9,1.32c-0.63,0.42-1.09,0.9-1.59,1.32c-0.99,0.94-1.78,1.74-2.44,2.6 c-0.66,0.85-1.02,1.7-1.32,2.31c-0.29,0.61-0.53,1.09-0.7,1.41c-0.17,0.32-0.25,0.48-0.25,0.48c-0.1,0.19-0.03,0.44,0.16,0.55 c0.2,0.11,0.45,0.04,0.56-0.15c0,0,0.09-0.16,0.27-0.47c0.18-0.31,0.45-0.77,0.78-1.4c0.34-0.62,0.69-1.36,1.3-2.08 c0.6-0.72,1.47-1.55,2.39-2.36c1.01-0.87,2.1-1.64,3.44-2.42c1.31-0.81,2.81-1.61,4.37-2.5c1.57-0.85,3.23-1.73,5.09-2.25 c0.1-0.03,0.27-0.1,0.3-0.1l0.38-0.08c0.25-0.05,0.51-0.1,0.76-0.15c0.52-0.13,1.01-0.16,1.51-0.21c0.97-0.12,2.08-0.13,3.17-0.18 c0.55-0.01,1.11-0.02,1.68-0.03c0.55,0.02,1.11,0.04,1.67,0.06l0.43,0.02l0.4,0.06l0.8,0.13c0.53,0.05,1.08,0.23,1.62,0.38 c2.16,0.62,4.31,1.81,6.14,3.33c0.95,0.77,1.81,1.63,2.74,2.57c0.92,0.93,1.87,1.86,2.73,2.84c0.45,0.48,0.9,0.96,1.35,1.45 c0.4,0.45,0.85,1.03,1.27,1.55c0.41,0.54,0.83,1.07,1.25,1.61c0.48,0.55,0.91,1.12,1.43,1.65l0.82,0.78l0.41,0.39l0.05,0.05 c0,0.01,0.16,0.12,0.12,0.09l0.11,0.07l0.22,0.15c0.59,0.39,1.11,0.81,1.85,1.16l1.05,0.54c0.35,0.16,0.69,0.28,1.03,0.43 c0.69,0.29,1.38,0.53,2.07,0.76c2.71,0.89,5.65,1.9,8.94,1.68l1.09-0.1c0.36-0.03,0.72-0.06,1.12-0.15c0.77-0.15,1.59-0.28,2.3-0.5 c0.74-0.19,1.47-0.4,2.18-0.65l0.54-0.17l0.13-0.04l0.19-0.07l0.26-0.1l1.03-0.41c0.34-0.12,0.7-0.31,1.06-0.5l1.07-0.56 c0.67-0.4,1.33-0.8,1.96-1.22l0.94-0.65c0.17-0.12,0.28-0.19,0.49-0.35l0.44-0.34l0.88-0.68c0.29-0.24,0.59-0.51,0.88-0.76 c1.19-1.03,2.22-2.1,3.27-3.19c0.98-1.12,1.97-2.25,2.95-3.37l1.43-1.69l0.36-0.42l0.18-0.21l0.09-0.11 c0.02-0.03-0.04,0.04,0.01-0.01l0.05-0.05l0.77-0.79l1.54-1.57c0.25-0.28,0.52-0.49,0.79-0.71l0.8-0.66l0.8-0.66l0.4-0.33l0.2-0.16 c0,0,0.01-0.01,0.01,0l0.06-0.04l0.11-0.08l0.91-0.6l0.45-0.3l0.43-0.21l0.86-0.43c0.28-0.15,0.62-0.22,0.92-0.34 c0.31-0.1,0.62-0.22,0.94-0.31l0.97-0.18l0.48-0.09l0.12-0.02l0.06-0.01c-0.01,0,0.02,0,0.04-0.01l0.22-0.01l1.07-0.05 c0.34,0,0.73-0.06,1.04-0.02l0.94,0.09c1.26,0.1,2.56,0.46,3.78,0.89l0.19,0.06l0.24,0.11l0.48,0.21c0.32,0.14,0.54,0.29,0.81,0.43 c0.53,0.31,1.06,0.68,1.56,1.07c0.99,0.78,1.95,1.76,2.77,2.66c0.86,1.03,1.7,2.04,2.54,3.05c0.77,1.05,1.53,2.08,2.27,3.1 c0.39,0.5,0.78,1,1.17,1.49c0.45,0.49,0.9,0.97,1.34,1.45c0.92,0.91,1.85,1.74,2.82,2.5c0.13,0.1,0.21,0.18,0.39,0.3l0.36,0.26 c0.23,0.17,0.5,0.35,0.79,0.52c0.28,0.18,0.57,0.33,0.86,0.46c0.29,0.15,0.58,0.27,0.89,0.37c1.21,0.44,2.48,0.59,3.69,0.52 c0.29-0.02,0.57-0.06,0.85-0.09c0,0.98-0.01,1.96-0.01,2.93c0,0.7-0.01,1.39-0.01,2.08l0,0.52c0,0.24,0.02,0.36,0.02,0.55 l0.06,1.01c0.02,0.66,0.12,1.37,0.21,2.07c0.08,0.68,0.19,1.29,0.23,1.93c0.02,0.3,0.04,0.59,0.05,0.89 c-0.13,0.05-0.25,0.11-0.38,0.16c-0.45,0.2-0.94,0.29-1.41,0.45c-0.46,0.16-1.01,0.24-1.54,0.35c-0.26,0.05-0.51,0.1-0.77,0.15 c-0.25,0.02-0.51,0.05-0.76,0.08c-1.02,0.07-2.06-0.01-3.05-0.32c-0.24-0.09-0.49-0.17-0.73-0.27l-0.71-0.35l-0.66-0.4l-0.72-0.53 c-0.4-0.37-0.8-0.75-1.2-1.13c-0.39-0.43-0.75-0.89-1.14-1.34c-0.73-0.96-1.44-1.97-2.16-3.03c-0.73-1.05-1.57-2.1-2.37-3.18 c-0.82-1.06-1.71-2.02-2.57-3.05c-0.92-1.05-1.91-2.06-3.03-2.98c-0.26-0.25-0.58-0.45-0.9-0.67l-0.96-0.63 c-0.33-0.24-0.63-0.34-0.94-0.5l-0.94-0.45l-0.12-0.06l-0.06-0.03c0.05,0.02-0.13-0.06-0.14-0.06l-0.27-0.09l-0.55-0.17 c-0.37-0.11-0.73-0.24-1.1-0.32c-0.75-0.1-1.49-0.28-2.26-0.31l-1.15-0.04c-0.39-0.02-0.77-0.02-1.11,0.01l-1.07,0.07l-0.53,0.03 l-0.13,0.01c-0.14,0.02-0.12,0.02-0.19,0.03l-0.29,0.05c-0.76,0.16-1.56,0.22-2.29,0.53l-1.12,0.39c-0.36,0.16-0.72,0.36-1.08,0.54 c-0.76,0.36-1.33,0.77-1.94,1.17l-0.23,0.15l-0.11,0.08l-0.1,0.07l-0.06,0.04l-0.45,0.33l-0.89,0.67 c-0.58,0.47-1.17,0.93-1.75,1.43c-0.56,0.52-1.2,1.04-1.68,1.57l-0.77,0.79c-0.32,0.32-0.5,0.58-0.75,0.87l-1.42,1.72 c-0.96,1.13-1.92,2.26-2.88,3.39l-1.51,1.42c-0.52,0.48-0.99,0.99-1.61,1.44l-1.75,1.37l-0.44,0.34l-0.22,0.17 c0.06-0.05-0.01,0.01-0.01,0.01l-0.06,0.04l-0.11,0.08l-0.89,0.61c-0.59,0.42-1.21,0.76-1.81,1.14c-0.62,0.32-1.18,0.64-1.83,0.94 c-2.64,1.2-5.27,1.54-8.22,1.71c-0.69,0.05-1.39,0.02-2.09,0.04c-0.7,0-1.38-0.09-2.07-0.13c-0.67-0.11-1.29-0.18-1.98-0.33 l-1.05-0.27l-0.26-0.07l-0.07-0.02c0,0-0.01,0-0.03-0.01l-0.1-0.04l-0.46-0.16c-2.44-0.88-4.5-2.79-6.72-4.51 c-0.53-0.43-1.06-0.86-1.59-1.29c-0.49-0.43-0.97-0.86-1.45-1.29c-0.95-0.98-1.88-1.96-2.81-2.92c-0.93-0.96-1.86-1.91-2.77-2.85 l-0.68-0.7l-0.37-0.37l-0.35-0.34c-0.46-0.45-0.93-0.9-1.42-1.35c-0.98-0.89-1.98-1.72-3.2-2.42c-0.31-0.2-0.57-0.3-0.85-0.44 l-0.21-0.1l-0.05-0.03c-0.09-0.05-0.06-0.03-0.1-0.04l-0.11-0.04l-0.46-0.17c-0.61-0.22-1.21-0.46-1.83-0.58 c-0.62-0.14-1.22-0.31-1.86-0.36c-0.31-0.04-0.63-0.08-0.94-0.11l-0.47-0.05l-0.44-0.01c-0.6,0-1.1-0.03-1.77-0.02 c-0.59,0.05-1.17,0.09-1.75,0.14c-2.29,0.27-4.43,0.82-6.38,1.39c-1.95,0.56-3.82,1.17-5.57,1.95c-0.4,0.21-0.8,0.41-1.19,0.61 l-0.29,0.15c-0.17,0.09-0.21,0.13-0.32,0.19c-0.18,0.12-0.37,0.24-0.55,0.36c-0.36,0.24-0.72,0.47-1.06,0.7 c-0.33,0.25-0.66,0.5-0.98,0.74c-1.28,0.96-2.37,1.97-3.3,2.85c-0.96,0.92-1.77,1.68-2.51,2.41c-0.76,0.68-1.3,1.46-1.72,2.05 c-0.69,1.21-1.06,1.85-1.06,1.85l-0.01,0.01c-0.11,0.19-0.05,0.43,0.14,0.55c0.19,0.12,0.45,0.06,0.57-0.13c0,0,0.4-0.63,1.14-1.8 c0.42-0.52,0.87-1.15,1.65-1.8c0.75-0.67,1.61-1.44,2.57-2.3c0.98-0.88,2.04-1.79,3.29-2.67c0.31-0.22,0.63-0.45,0.96-0.68 c0.34-0.21,0.69-0.42,1.04-0.63c0.18-0.11,0.35-0.22,0.53-0.32c0.08-0.04,0.21-0.13,0.24-0.14l0.29-0.14 c0.39-0.19,0.8-0.38,1.2-0.58c1.59-0.63,3.4-1.17,5.36-1.67c1.96-0.52,3.98-1,6.12-1.21c0.53-0.03,1.07-0.07,1.62-0.1 c0.01,0,0.11-0.01,0.06,0l0.11,0l0.21,0.01l0.43,0.02c0.29,0.01,0.57,0.02,0.86,0.03l0.44,0.01l0.4,0.06l0.81,0.12 c0.54,0.05,1.08,0.22,1.63,0.35c0.56,0.11,1.08,0.34,1.61,0.54l0.4,0.15l0.1,0.04c0,0,0.02,0.01,0.03,0.01l0.04,0.02l0.21,0.1 c0.26,0.14,0.58,0.28,0.78,0.43c0.92,0.55,1.87,1.34,2.76,2.19c0.45,0.43,0.89,0.88,1.35,1.33l0.34,0.35l0.14,0.15l0.17,0.18 l0.67,0.72c0.89,0.96,1.8,1.93,2.71,2.91c0.92,0.97,1.86,1.96,2.8,2.95c0.52,0.49,1.07,0.98,1.61,1.46 c0.54,0.44,1.08,0.89,1.63,1.34c1.09,0.87,2.15,1.76,3.33,2.64c1.17,0.88,2.5,1.7,3.97,2.25l0.55,0.2l0.14,0.05l0.18,0.05 l0.26,0.07l1.04,0.28c0.72,0.17,1.53,0.29,2.29,0.41c0.76,0.05,1.52,0.15,2.28,0.16c0.76-0.01,1.52,0.02,2.29-0.03 c2.86-0.12,6.19-0.54,8.96-1.82c0.7-0.31,1.43-0.7,2.13-1.07c0.65-0.41,1.34-0.78,1.96-1.22l0.94-0.65l0.28-0.2l0.22-0.17 l0.44-0.35l1.74-1.38c0.59-0.43,1.14-1.01,1.71-1.53l1.72-1.65c0.95-1.14,1.9-2.27,2.85-3.41l1.39-1.71 c0.23-0.27,0.48-0.61,0.68-0.81l0.77-0.8c0.51-0.56,1.03-0.96,1.53-1.45c0.52-0.46,1.09-0.91,1.64-1.36l0.86-0.65l0.43-0.32 l0.04-0.03c0.01-0.01,0.02-0.01,0.02-0.01l0.11-0.08l0.23-0.15c0.6-0.4,1.22-0.84,1.78-1.09c0.29-0.14,0.57-0.3,0.86-0.44 l0.93-0.32c0.6-0.27,1.27-0.31,1.9-0.45l0.24-0.05c0.02-0.01,0.13-0.02,0.07-0.02l0.13-0.01l0.53-0.04l1.07-0.07 c0.37-0.04,0.69-0.03,1.01-0.01l0.97,0.03c0.65,0.02,1.29,0.17,1.93,0.25c0.31,0.07,0.61,0.18,0.91,0.27l0.45,0.14l0.23,0.07 c0.01,0,0,0,0,0l0.04,0.02l0.12,0.06l0.94,0.45c0.3,0.16,0.66,0.28,0.89,0.47l0.76,0.51c0.25,0.17,0.51,0.32,0.76,0.55 c1.01,0.79,1.94,1.71,2.8,2.66c0.87,1.01,1.81,1.98,2.61,2.98c0.78,1.02,1.57,1.97,2.32,3c1.49,2.05,2.9,4.2,5.03,5.85l0.73,0.52 l0.86,0.51l0.88,0.41c0.3,0.12,0.61,0.21,0.91,0.32c1.23,0.36,2.5,0.44,3.69,0.33c0.3-0.04,0.59-0.07,0.89-0.1 c0.28-0.06,0.56-0.12,0.84-0.18c0.53-0.12,1.05-0.2,1.6-0.4c0.49-0.17,0.99-0.29,1.44-0.49c0,0.4-0.01,0.8-0.01,1.19 c-0.04,0.63-0.1,1.17-0.15,1.81c-0.06,0.65-0.13,1.29-0.11,1.93c0.01,0.65-0.04,1.25,0.02,1.93c0.04,0.61,0.08,1.21,0.12,1.81 c0.09,0.61,0.18,1.22,0.27,1.83c0.08,0.56,0.19,1.11,0.2,1.67c0.04,0.55,0.07,1.1,0.11,1.64c0.01,0.56,0.03,1.12,0.04,1.67 c0.03,1.1,0.06,2.17,0.09,3.22c0.02,0.52,0.03,1.04,0.05,1.55c0.01,0.24,0.01,0.48,0.02,0.72c0,0.25-0.01,0.5-0.01,0.75 c-0.01,0.49,0,0.99-0.03,1.46c-0.05,0.45-0.1,0.9-0.15,1.34c-0.05,0.48-0.11,0.95-0.16,1.41c-0.01,0.47-0.01,0.92-0.02,1.37 c-0.03,0.91,0.04,1.76,0.08,2.56c0.08,1.61,0.16,3.09,0.23,4.42c0.28,5.35,0.44,8.41,0.44,8.41l0,0.01 c0.01,0.22,0.2,0.39,0.42,0.39c0.23,0,0.41-0.19,0.4-0.42c0,0-0.05-3.06-0.15-8.42c-0.03-1.34-0.07-2.83-0.11-4.44 c-0.01-0.81-0.06-1.65-0.01-2.48c0.02-0.42,0.04-0.85,0.05-1.29c0.06-0.43,0.12-0.87,0.19-1.32c0.07-0.49,0.14-0.98,0.21-1.48 c0.05-0.49,0.05-0.97,0.07-1.47c0.01-0.25,0.02-0.5,0.03-0.75c0-0.26,0-0.53,0-0.8c0-0.51,0-1.03,0-1.55 c0-1.05-0.01-2.12-0.01-3.22c0-0.55-0.01-1.1-0.01-1.67c-0.03-0.58-0.05-1.17-0.08-1.76c-0.01-0.6-0.11-1.19-0.19-1.79 c-0.07-0.56-0.15-1.12-0.23-1.69c-0.03-0.6-0.06-1.2-0.09-1.8c-0.04-0.54,0.02-1.17,0.02-1.75c-0.01-0.6,0.07-1.2,0.14-1.8 c0.06-0.6,0.15-1.32,0.2-1.97c0.02-0.64,0.03-1.28,0.05-1.93c0-0.07-0.01-0.13-0.01-0.2c1.77-1,3.13-2.26,4.38-3.58 c1.09-1.15,1.94-2.36,2.74-3.47c0.14-0.2,0.28-0.4,0.42-0.59c0.9-1.32,1.71-2.53,2.3-3.74c0.15-0.3,0.3-0.6,0.44-0.88 c0.12-0.28,0.23-0.56,0.34-0.83c0.22-0.52,0.41-1.09,0.56-1.59c0.3-1.04,0.31-1.96,0.38-2.61c0.07-0.68,0.15-1.19,0.22-1.54 c0.06-0.35,0.09-0.53,0.09-0.53l0-0.02c0.04-0.22-0.1-0.43-0.32-0.47c-0.22-0.05-0.44,0.09-0.49,0.31c0,0-0.04,0.18-0.12,0.54 c-0.09,0.36-0.19,0.89-0.29,1.6c-0.1,0.72-0.14,1.54-0.44,2.44c-0.16,0.46-0.32,0.92-0.58,1.45c-0.12,0.26-0.24,0.53-0.37,0.81 c-0.14,0.26-0.28,0.52-0.43,0.8c-0.46,0.87-1.06,1.77-1.73,2.71c-0.19,0.27-0.38,0.53-0.58,0.81c-0.96,1.24-1.93,2.6-3.17,3.84 c-0.29,0.34-0.62,0.61-0.95,0.91c-0.33,0.29-0.63,0.6-1.04,0.88c-0.19,0.14-0.39,0.29-0.58,0.43l-0.29,0.22l-0.15,0.11 c0.02-0.01-0.08,0.05-0.12,0.07c-0.1,0.06-0.2,0.12-0.31,0.17c0-0.04,0-0.08-0.01-0.12c-0.03-0.67-0.14-1.37-0.21-2.02 c-0.07-0.63-0.16-1.24-0.17-1.93l-0.04-1.01c0-0.15-0.02-0.38-0.01-0.47l0.01-0.51c0.01-0.68,0.03-1.36,0.04-2.04 c0.02-1.12,0.05-2.25,0.07-3.39c0.12-0.03,0.24-0.05,0.36-0.1c0.54-0.19,1.08-0.36,1.6-0.56c0.49-0.24,0.98-0.47,1.46-0.7 c1.6-0.89,2.9-1.92,4.08-3.03c0.21-0.2,0.43-0.4,0.64-0.61c0.32-0.34,0.63-0.68,0.93-1.01c0.3-0.34,0.56-0.7,0.83-1.03 c0.13-0.17,0.27-0.34,0.4-0.51c0.12-0.18,0.24-0.37,0.36-0.55c0.22-0.34,0.44-0.68,0.65-1c0.81-1.43,1.42-2.77,1.93-3.95 c0.51-1.19,1.01-2.22,1.42-3.15c0.21-0.47,0.41-0.89,0.58-1.29c0.14-0.42,0.27-0.81,0.39-1.15c0.32-1.37,0.49-2.11,0.49-2.11 c0.05-0.21-0.08-0.43-0.29-0.49c-0.22-0.06-0.44,0.07-0.5,0.29l-0.01,0.02c0,0-0.19,0.71-0.55,2.03c-0.12,0.31-0.25,0.66-0.39,1.04 c-0.18,0.38-0.39,0.79-0.61,1.23c-0.44,0.9-0.99,1.94-1.53,3.12c-0.27,0.59-0.58,1.19-0.89,1.83c-0.32,0.63-0.68,1.23-1.05,1.89 c-0.22,0.32-0.45,0.65-0.68,0.98c-0.11,0.16-0.22,0.32-0.33,0.48c-0.13,0.15-0.26,0.31-0.39,0.47c-0.27,0.31-0.52,0.64-0.81,0.95 c-0.18,0.19-0.37,0.38-0.56,0.57c-0.12,0.12-0.23,0.23-0.34,0.35c-1.23,1.17-2.76,2.38-4.46,3.24c-0.44,0.2-0.88,0.4-1.33,0.6 c-0.45,0.15-0.91,0.3-1.38,0.45c-0.04-1.15-0.1-2.28-0.15-3.43c-0.03-0.72-0.07-1.44-0.1-2.16l-0.05-1.09c0-0.3,0.02-0.7,0.02-1.04 c0.03-0.98,0.05-1.96,0.08-2.95c0.05-0.01,0.11-0.02,0.16-0.03c0.54-0.12,1.06-0.18,1.61-0.35c0.54-0.16,1.09-0.27,1.61-0.47 c0.51-0.21,1.02-0.41,1.52-0.61c1.09-0.54,1.99-1.19,2.81-1.89c0.69-0.59,1.33-1.22,1.94-1.85c0.31-0.35,0.61-0.7,0.91-1.04 c0.28-0.35,0.55-0.7,0.82-1.05c0.14-0.18,0.26-0.32,0.4-0.53c0.12-0.17,0.23-0.34,0.35-0.51c0.23-0.34,0.46-0.67,0.68-1 c0.85-1.4,1.55-2.69,2.11-3.89c0.58-1.2,1.01-2.27,1.41-3.22c0.18-0.5,0.36-0.95,0.49-1.37c0.11-0.43,0.2-0.82,0.29-1.17 c0.28-1.38,0.43-2.11,0.43-2.11C342.15,150.16,342.01,149.95,341.8,149.9z" fill="#191919"/></g></g></svg>