<?xml version="1.0" encoding="UTF-8" standalone="no"?><svg xmlns="http://www.w3.org/2000/svg" xmlns:xlink="http://www.w3.org/1999/xlink" fill="#000000" height="232.7" preserveAspectRatio="xMidYMid meet" version="1" viewBox="-3.3 0.0 485.2 232.7" width="485.2" zoomAndPan="magnify"><g><g id="change1_1"><path d="M472.46,156.98L472.46,156.98c-0.02,0.01-0.03,0.01-0.05,0.01c-0.67,0.16-1.36,0.26-2.06,0.26 c-0.53,0-1.05-0.06-1.56-0.15c-0.78-0.01-1.58-0.02-2.4-0.06c0.02,0.84,0.04,1.69,0.05,2.53h3.9v5.07c0,0-1.39-0.01-3.85-0.02 c0.01,2.41,0,4.83-0.04,7.29c-0.02,0.71-0.03,1.43-0.05,2.15c-0.01,0.62-0.05,1.26-0.07,1.89h5.01c0,0,4.04,15.98-6.91,23.41h-3.62 v1.9h-2.73c-4.3,10.22-13.95,16.74-24.09,15.31c-8.84-1.24-15.66-8.17-18.14-17.21h-17.87v2.76h-13.64l0.34-2.76h-48.2 c0.64,2.04,1.19,3.97,1.66,5.75h-25.3h-1.3h-8.85c-0.01,0.05-0.01,0.11-0.02,0.16c-2,14.29-13.7,24.46-26.12,22.72 c-10.61-1.49-18.32-11.18-19.09-22.88h-9.95h-2.02h-23.27c0,0,0.13-2.2,0.64-5.75h-76.08c0.53,1.72,0.99,3.36,1.4,4.89h-25.3h-1.3 h-8.58c-0.01,1.32-0.1,2.66-0.29,4.01c-2,14.29-13.7,24.46-26.13,22.72c-11.76-1.65-19.95-13.37-19.1-26.73h-9.95h-2.02H32.26 c0,0,0.14-2.46,0.74-6.39H7.64c-10.96-7.43-6.91-23.41-6.91-23.41h10.8c-3.42-17.28-7-47.93-2.33-90.01 c0.27-2.39,0.56-4.82,0.88-7.28C18.69,10.95,64.73,8.15,64.73,8.15L405.6,0c0,0,24.59,23.48,41.39,61.88 c3.66-0.66,6.54-2.33,8.73-4.2l2.32-16.16h17.68l-3.12,28.95L454,69.59l0.78-5.44c-2.06,1.01-4.1,1.65-5.97,2.04 c2.27,5.55,4.38,11.38,6.21,17.49c3.93,13.12,7.2,27.99,9.24,44.64c0.93-0.22,1.78-0.41,2.53-0.57c1.12-0.48,2.31-0.74,3.55-0.74 c0.05,0,0.1,0.01,0.15,0.01c0.03-0.01,0.06-0.01,0.06-0.01l0,0.01c6.26,0.15,11.3,6.85,11.3,15.11 C481.85,149.53,477.8,155.68,472.46,156.98z" fill="#faefe6"/></g><g id="change2_1"><path d="M466.44,159.57h-43.88c5.98-16.24,23.5-63.14,31.32-75.89c4.32,13.13,7.92,28.03,10.16,44.69 c-5.27,1.25-13,3.4-20.43,6.64l0.15,19.43c0,0,12.58,2.21,22.62,2.6C466.4,157.88,466.42,158.73,466.44,159.57z M39.42,174.46 H11.53c-3.42-17.28-7-47.93-2.33-90.01h307.3c0,0,4.64,0.28,12.03,1.8l-0.05,1.59c-0.04,1.14-0.08,2.27-0.12,3.4 c-0.09,2.28-0.18,4.54-0.27,6.77c-0.02,2.25-0.05,4.46-0.07,6.65c-0.01,0.54-0.01,1.08-0.02,1.62l-0.01,0.81l0.03,0.85 c0.05,1.07,0.11,2.12,0.16,3.16c0.11,2.09,0.22,4.13,0.32,6.12c0.1,1.98,0.2,3.91,0.29,5.78c0.02,0.47,0.05,0.93,0.07,1.38 c0.01,0.22,0.03,0.48,0.03,0.66l-0.01,0.68c-0.01,0.9-0.02,1.79-0.02,2.66c-0.01,1.74-0.02,3.42-0.03,5.01 c0.06,1.64,0.21,3.09,0.31,4.51c0.11,1.4,0.22,2.71,0.32,3.93c0.02,0.29,0.04,0.58,0.07,0.86c0,0.29,0,0.58,0,0.86 c0,0.56,0.01,1.09,0.01,1.6c0.02,0.52-0.05,0.96-0.08,1.39c-0.04,0.44-0.08,0.85-0.11,1.24c-0.04,0.4-0.08,0.77-0.11,1.11 c-0.01,0.34,0,0.65,0,0.93c0.01,1.11,0.02,1.7,0.02,1.7c0,0.24,0.19,0.44,0.44,0.45c0.25,0.01,0.47-0.18,0.48-0.44l0-0.04 c0,0,0.03-0.57,0.08-1.63c0.02-0.27,0.02-0.56,0.05-0.89c0.05-0.32,0.1-0.67,0.16-1.05c0.1-0.74,0.3-1.75,0.33-2.75 c0.02-0.51,0.04-1.04,0.06-1.6c0.01-0.28,0.02-0.57,0.03-0.86c0-0.35-0.02-0.61-0.03-0.93c-0.05-1.22-0.1-2.55-0.15-3.96 c-0.03-1.4-0.13-2.94-0.12-4.47c0.06-1.57,0.12-3.23,0.18-4.96c0.03-0.87,0.06-1.75,0.09-2.66l0.02-0.68 c0.01-0.27-0.01-0.47-0.01-0.71c-0.01-0.46-0.03-0.93-0.04-1.4c-0.05-1.88-0.1-3.81-0.15-5.81c-0.05-1.99-0.11-4.03-0.17-6.12 c-0.03-1.04-0.05-2.1-0.08-3.17l-0.02-0.75l0.01-0.81c0.01-0.54,0.02-1.08,0.03-1.62c0.04-2.16,0.08-4.36,0.12-6.58 c0.11-2.23,0.22-4.49,0.33-6.77c0.05-1.15,0.1-2.3,0.15-3.46l0.04-1.08c23.07,5.22,67.38,21.73,87.36,72.76h-61.89 c0,0-5.01,0.78-8.92,7.96c-2.32,4.26-3.97,6.94-4.94,8.43h-16.5c-9.94-16.64-26.51-32.05-54.05-32.16 c-24-0.1-36.53,16.3-43.04,32.16h-56.15c-0.06-0.21-0.11-0.42-0.18-0.61c-0.2-0.64-0.41-1.3-0.61-1.96 c-0.18-0.64-0.41-1.26-0.57-1.95c-0.76-2.7-0.67-5.59-0.93-8.84c-0.09-0.79-0.11-1.54-0.24-2.39c-0.12-0.79-0.24-1.58-0.36-2.38 c-0.25-1.6-0.46-3.22-0.69-4.85c-0.05-0.38-0.13-0.87-0.16-1.17l-0.05-1.17c-0.06-0.77-0.02-1.6-0.01-2.41l0.05-2.56 c0.01-0.86-0.04-1.68-0.05-2.52c-0.16-1.68-0.32-3.37-0.48-5.05c-0.14-1.64-0.33-3.35-0.42-4.92c-0.2-3.29-0.36-6.53-0.64-9.65 c-0.13-1.57-0.26-3.11-0.39-4.62c-0.07-0.75-0.13-1.5-0.19-2.23c-0.05-0.66-0.02-1.4-0.04-2.08c0.02-1.4,0.1-2.77,0.17-4.18 c0.04-0.7,0.03-1.36,0.03-2.01c0-0.34,0-0.67,0-1c-0.01-0.32-0.02-0.64-0.02-0.95c-0.11-5.02-0.3-9.19-0.39-12.11 c-0.08-2.93-0.12-4.6-0.12-4.6c-0.01-0.24-0.2-0.44-0.44-0.45c-0.25-0.01-0.47,0.18-0.48,0.44c0,0-0.02,0.42-0.07,1.2 c-0.04,0.78-0.13,1.93-0.17,3.4c-0.07,2.93-0.23,7.13-0.31,12.14c-0.01,0.31-0.01,0.63-0.02,0.95c-0.01,0.31-0.03,0.62-0.04,0.94 c-0.03,0.65-0.05,1.32-0.12,1.97c-0.1,1.3-0.24,2.72-0.3,4.19c-0.01,0.75-0.06,1.47-0.03,2.29c0.04,0.74,0.08,1.48,0.12,2.24 c0.1,1.5,0.2,3.04,0.3,4.6c0.22,3.13,0.31,6.37,0.51,9.66c0.08,1.72,0.26,3.32,0.39,5c0.16,1.64,0.31,3.28,0.47,4.93 c0.02,0.83,0.08,1.69,0.07,2.49l-0.04,2.45c-0.01,0.85-0.04,1.69,0.03,2.57l0.07,1.31c0.05,0.51,0.12,0.85,0.18,1.28 c0.25,1.63,0.49,3.25,0.77,4.83c0.14,0.79,0.27,1.58,0.4,2.37c0.14,0.72,0.18,1.56,0.28,2.32c0.13,1.56,0.26,3.09,0.38,4.59 c0.08,0.77,0.21,1.54,0.31,2.3l0.02,0.14l0.01,0.04l0.02,0.1l0.02,0.07l0.07,0.27l0.13,0.53c0.09,0.35,0.17,0.7,0.26,1.05 c0.18,0.7,0.46,1.42,0.68,2.11c0.23,0.7,0.46,1.29,0.68,1.92h-34.06c-9.88-16.96-26.54-32.91-54.56-33.02 C58.51,142.84,46,158.8,39.42,174.46z M371.32,127.75c-5.02,1.08-14.32,3.4-23.18,7.27l0.15,19.43c0,0,14.73,2.59,25.02,2.66 c0.51,0.09,1.03,0.15,1.56,0.15c0.71,0,1.39-0.1,2.06-0.26c0.02,0,0.04,0,0.05,0l0-0.01c5.35-1.31,9.39-7.46,9.39-14.86 c0-8.26-5.04-14.96-11.3-15.11l0-0.01c0,0-0.02,0-0.06,0.01c-0.05,0-0.1-0.01-0.15-0.01C373.64,127,372.44,127.27,371.32,127.75z M249.38,95.36h17.8v-5.63l-17.8,1.13V95.36z M243.51,99.72c0,0.31,0.01,0.62,0.01,0.94c0.01,0.62,0.02,1.26,0.03,1.92 c0.02,1.32,0.04,2.72,0.06,4.2c0.03,1.47,0.1,3.03,0.05,4.66c0,1.63-0.1,3.31,0.03,5.1c0.12,1.79,0.07,3.57,0.43,5.61 c0.03,0.26,0.13,0.54,0.21,0.81c0.07,0.27,0.18,0.54,0.33,0.81c0.13,0.28,0.27,0.52,0.44,0.74c0.16,0.24,0.32,0.46,0.48,0.65 c0.66,0.81,1.2,1.46,1.84,2.27c1.23,1.52,2.97,3.34,5.42,3.87l0.45,0.11l0.46,0.04c0.3,0.02,0.62,0.07,0.91,0.05 c0.51-0.02,1.03-0.03,1.55-0.05c1.03-0.03,2.08-0.08,3.12-0.09c1.04-0.02,2.09-0.04,3.15-0.06l1.59-0.03l0.4-0.01l0.1,0 c0,0,0,0,0,0l0.04,0l0.2,0.01l0.8,0.05c0.53,0.04,1.08,0.05,1.59,0.11l1.54,0.18c1.08,0.12,2.15,0.25,3.23,0.37l1.69,0.09 l0.85,0.04c0.36,0.02,0.57-0.01,0.86-0.01l3.25-0.13c2.16-0.08,4.35-0.2,6.43-0.26c1.08,0.02,2.17,0.03,3.23,0.07 c1.06,0.08,2.13,0.15,3.18,0.23c1.1,0.07,2.2,0.02,3.29,0.04c1.1-0.03,2.12-0.07,3.2-0.14c1.04-0.04,1.99-0.1,2.84,0.06 c0.88,0.17,1.78,0.48,2.7,0.84c0.44,0.18,0.89,0.36,1.33,0.54l0.68,0.33l0.34,0.16l0.28,0.17c0.38,0.21,0.76,0.43,1.13,0.71 c0.38,0.25,0.73,0.53,1.07,0.83c1.37,1.17,2.48,2.6,3.3,4.14c1.64,3.34,3.18,6.5,4.61,9.42c1.49,2.92,2.92,5.54,4.13,7.87 c0.31,0.58,0.6,1.15,0.89,1.69c0.26,0.51,0.48,1.1,0.71,1.61c0.23,0.53,0.44,1.03,0.65,1.51c0.21,0.48,0.34,0.94,0.51,1.38 c0.31,0.9,0.59,1.7,0.84,2.39c0.25,0.7,0.53,1.28,0.72,1.76c0.4,0.95,0.61,1.45,0.61,1.45c0.09,0.22,0.35,0.34,0.58,0.25 c0.24-0.08,0.36-0.35,0.28-0.59l-0.01-0.02c0,0-0.18-0.51-0.52-1.46c-0.16-0.48-0.4-1.05-0.6-1.75c-0.2-0.71-0.42-1.5-0.72-2.44 c-0.15-0.46-0.28-0.97-0.47-1.46c-0.19-0.49-0.38-1-0.58-1.54c-0.21-0.54-0.39-1.08-0.66-1.69c-0.26-0.56-0.54-1.15-0.82-1.75 c-1.13-2.42-2.42-5.12-3.83-8.04c-1.36-2.97-2.83-6.2-4.39-9.6c-0.89-1.78-2.12-3.47-3.69-4.89c-0.39-0.36-0.79-0.7-1.24-1.01 c-0.42-0.33-0.89-0.62-1.38-0.91c-0.25-0.16-0.48-0.28-0.7-0.38l-0.68-0.33c-0.49-0.21-0.99-0.42-1.48-0.63 c-0.97-0.39-2.01-0.77-3.16-1c-1.19-0.24-2.34-0.16-3.39-0.13c-1.02,0.05-2.1,0.09-3.12,0.1c-1.03-0.03-2.07,0.01-3.1-0.06 c-1.08-0.09-2.16-0.17-3.24-0.26c-1.09-0.05-2.16-0.06-3.25-0.1c-2.24,0.04-4.39,0.14-6.57,0.2l-3.26,0.11 c-1.02,0.06-2.06-0.06-3.09-0.09c-1.07-0.11-2.14-0.22-3.2-0.34l-1.66-0.18c-0.55-0.06-1.08-0.06-1.61-0.09l-0.8-0.04l-0.2-0.01 l-0.05,0l-0.11,0l-0.1,0l-0.4,0.01l-1.6,0.05c-1.06,0.03-2.12,0.06-3.18,0.1c-1.05,0.02-2.09,0.08-3.13,0.12 c-0.52,0.02-1.03,0.04-1.54,0.07c-0.22,0.02-0.41-0.03-0.62-0.03l-0.31-0.02l-0.29-0.07c-0.79-0.16-1.54-0.54-2.21-1.08 c-0.34-0.26-0.68-0.57-0.97-0.88c-0.15-0.16-0.3-0.3-0.45-0.48l-0.47-0.56c-0.59-0.72-1.31-1.54-1.88-2.2 c-0.59-0.68-0.88-1.22-1.06-2c-0.34-1.63-0.38-3.51-0.54-5.21c-0.18-1.71-0.13-3.43-0.18-5.06c-0.05-3.23-0.31-6.28-0.46-8.91 c-0.04-0.66-0.08-1.3-0.12-1.92c-0.02-0.3-0.04-0.59-0.05-0.88c-0.01-0.3-0.01-0.59-0.02-0.88c-0.03-1.15-0.06-2.2-0.08-3.15 c-0.12-3.8-0.19-5.97-0.19-5.97c-0.01-0.24-0.2-0.44-0.45-0.45c-0.25-0.01-0.47,0.19-0.47,0.45c0,0-0.06,2.17-0.17,5.97 c-0.02,0.95-0.04,2-0.07,3.15C243.52,99.13,243.51,99.42,243.51,99.72z M26.06,99.7c0.59-0.02,1.25-0.05,1.96-0.08 c0.35-0.01,0.71-0.03,1.09-0.04c0.38,0.01,0.77,0.01,1.17,0.02c0.4,0.01,0.82,0.01,1.25,0.02l0.32,0l0.31,0.02 c0.22,0.01,0.45,0.03,0.68,0.04c0.92,0.05,1.89,0.1,2.89,0.16c2.03,0.09,4.19,0.28,6.58,0.28c2.32-0.03,4.76-0.07,7.25-0.14 c2.53-0.05,5.14-0.11,7.79-0.16c0.66-0.02,1.32-0.03,1.98-0.05l0.99-0.02c0.24-0.02,0.64,0.01,0.96,0.02l2.01,0.07l1.91,0.17 l2.07,0.18l2.07,0.05c1.35,0.04,2.68,0.03,4.01,0.05c2.65,0.01,5.25,0.02,7.77,0.03c2.53,0.01,4.98,0.03,7.3,0.04 c0.3,0,0.6,0,0.9,0c0.28-0.01,0.57-0.03,0.85-0.04c0.56-0.03,1.11-0.06,1.66-0.09c1.09-0.09,2.25-0.26,3.19-0.37 c0.98-0.15,1.92-0.17,2.82-0.24c0.22-0.02,0.45-0.03,0.67-0.04l0.3-0.02l0.33,0c0.44,0,0.86-0.01,1.27-0.01 c1.64-0.01,3.07-0.02,4.25-0.03c2.36-0.04,3.71-0.06,3.71-0.06c0.23,0,0.43-0.19,0.45-0.43c0.02-0.25-0.17-0.47-0.42-0.49l-0.03,0 c0,0-1.34-0.1-3.69-0.27c-1.18-0.07-2.6-0.16-4.24-0.27c-0.41-0.03-0.83-0.05-1.27-0.08l-0.33-0.02l-0.36,0c-0.23,0-0.46,0-0.69,0 c-0.94,0-1.93-0.02-2.96,0.08c-1.07,0.07-2,0.16-3.08,0.2c-0.54,0-1.1,0.01-1.66,0.01c-0.28,0-0.56,0.01-0.85,0.01 c-0.27-0.01-0.54-0.02-0.82-0.03c-2.31-0.09-4.74-0.18-7.25-0.28c-2.53-0.06-5.14-0.13-7.79-0.2c-1.32-0.03-2.67-0.03-4-0.08 l-1.95-0.06l-1.95-0.18l-2.11-0.19l-2.01-0.05c-0.36,0-0.62-0.03-1.05-0.01l-1.01,0.03c-0.67,0.02-1.34,0.04-2.01,0.06 c-2.66,0.08-5.28,0.18-7.77,0.3c-2.55,0.11-4.99,0.24-7.3,0.37c-0.28,0.01-0.55,0.03-0.82,0.05c-0.28,0-0.56,0-0.84-0.01 c-0.56,0-1.11-0.01-1.65-0.01c-1.08,0-2.13,0-3.14,0c-1.01,0-1.98,0-2.9,0c-0.23,0-0.46,0.01-0.68,0.01l-0.36,0l-0.33,0.02 c-0.44,0.03-0.87,0.05-1.29,0.08c-0.42,0.03-0.82,0.05-1.21,0.08c-0.39,0.05-0.76,0.09-1.12,0.13c-0.7,0.08-1.34,0.16-1.93,0.23 c-1.13,0.16-2.09,0.18-2.71,0.24c-0.63,0.05-0.97,0.07-0.97,0.07c-0.23,0.02-0.42,0.21-0.42,0.45c-0.01,0.25,0.2,0.46,0.45,0.47 c0,0,0.34,0.01,0.97,0.03C23.94,99.68,24.85,99.78,26.06,99.7z M27.63,108.31c-0.02,0.25,0.16,0.48,0.42,0.5 c0,0,1.13,0.11,3.12,0.24c1.98,0.13,4.81,0.32,8.21,0.55c1.69,0.13,3.55,0.24,5.52,0.36c0.51,0.02,0.95,0.07,1.54,0.08 c0.5,0,1.01-0.01,1.52-0.01c0.99,0.02,2.16-0.12,3.22-0.2c0.51-0.04,1.03-0.08,1.55-0.13c0.52-0.01,1.05-0.02,1.58-0.02 c1.05-0.04,2.14,0.01,3.27,0.03c2.24,0.04,4.52,0.08,6.8,0.12c2.27-0.01,4.54-0.03,6.78-0.04c0.56-0.01,1.11-0.01,1.67-0.02 l0.42-0.01l0.21,0l0.26-0.01l0.82-0.05c1.09-0.06,2.17-0.12,3.24-0.18c1.05-0.06,2.09-0.13,3.1-0.19c0.51-0.03,1.01-0.07,1.5-0.1 c0.45-0.02,0.98-0.01,1.46-0.01c1.96-0.02,3.81-0.03,5.51-0.04c0.84-0.01,1.65-0.02,2.42-0.03c0.78,0,1.51-0.01,2.21-0.01 c1.39-0.01,2.6-0.01,3.59-0.02c2-0.02,3.14-0.05,3.14-0.05c0.23-0.01,0.42-0.18,0.44-0.41c0.03-0.25-0.16-0.48-0.41-0.5l-0.03,0 c0,0-1.13-0.12-3.1-0.29c-0.99-0.08-2.19-0.18-3.57-0.29c-0.69-0.06-1.43-0.11-2.2-0.18c-0.78-0.04-1.61-0.09-2.47-0.14 c-1.7-0.08-3.54-0.17-5.49-0.26c-0.5-0.02-0.96-0.05-1.51-0.05c-0.51,0.01-1.02,0.02-1.53,0.03c-1.04,0.03-2.09,0.05-3.17,0.08 c-1.06,0.03-2.15,0.06-3.24,0.1l-0.82,0.02l-0.1,0l-0.05,0l-0.01,0l-0.2,0l-0.42,0c-0.55,0-1.11-0.01-1.67-0.01 c-2.24,0-4.51-0.01-6.78-0.01c-2.26-0.03-4.53-0.06-6.75-0.09c-0.56-0.01-1.12-0.01-1.67-0.02c-0.29,0-0.53-0.01-0.86,0l-0.85,0.04 c-0.56,0.03-1.13,0.05-1.68,0.08c-0.55,0.06-1.1,0.12-1.65,0.18c-1.06,0.11-1.97,0.26-3.03,0.28c-0.51,0.03-1.02,0.06-1.52,0.08 c-0.42,0.02-0.96-0.01-1.43-0.01c-1.93-0.03-3.76-0.05-5.47-0.05c-0.86,0-1.69-0.01-2.48-0.01c-0.77,0.02-1.51,0.04-2.2,0.06 c-1.38,0.04-2.59,0.07-3.58,0.09c-1.99,0.06-3.13,0.12-3.13,0.12C27.84,107.91,27.65,108.08,27.63,108.31z M28.07,122.79 c0,0,0.83,0.04,2.27,0.1c1.45,0.05,3.5,0.12,5.95,0.14c0.15,0,0.31,0,0.46,0.01l0.45,0.03c0.32,0.02,0.65,0.05,0.98,0.07 c0.67,0.04,1.36,0.07,2.02,0.17c0.7,0.08,1.42,0.17,2.16,0.25c0.76,0.1,1.54,0.09,2.33,0.14c1.63,0.08,3.16,0.05,4.8,0.04 c1.62-0.02,3.25-0.01,4.91-0.04c1.65-0.02,3.29-0.03,4.92-0.05c1.63-0.04,3.23-0.08,4.78-0.11c1.54-0.05,3.04-0.13,4.45-0.19 c1.43-0.06,2.71-0.14,4.01-0.23c0.62-0.05,1.21-0.1,1.77-0.14c0.56-0.05,1.13-0.17,1.64-0.25c1.02-0.16,1.83-0.33,2.55-0.4 c1.41-0.14,2.22-0.24,2.22-0.24l0.03,0c0.22-0.03,0.39-0.2,0.4-0.43c0.02-0.25-0.18-0.47-0.43-0.48c0,0-0.83-0.05-2.3-0.09 c-0.72-0.02-1.65,0.07-2.63,0.1c-0.49,0.01-0.98,0.06-1.54,0.05c-0.56-0.01-1.16-0.02-1.78-0.03c-1.23-0.03-2.56-0.05-3.97-0.08 c-1.42-0.01-2.91-0.05-4.46-0.05c-1.54-0.02-3.13-0.04-4.75-0.05c-1.62,0-3.27-0.01-4.92-0.01c-1.64,0-3.31,0.06-4.93,0.08 c-0.81,0.02-1.61,0.04-2.41,0.05c-0.4,0.01-0.79,0.03-1.18,0.04c-0.36,0.02-0.75,0-1.13,0c-0.75-0.02-1.49,0.02-2.21-0.04 c-0.75-0.04-1.48-0.08-2.19-0.11c-0.75-0.05-1.43-0.04-2.1-0.04c-0.33,0.01-0.66,0.01-0.98,0.02c-0.17,0-0.34,0.01-0.51,0.01 c-0.16,0.01-0.32,0.03-0.47,0.04c-2.49,0.19-4.55,0.4-5.99,0.55c-1.44,0.17-2.26,0.26-2.26,0.26c-0.22,0.03-0.4,0.21-0.41,0.44 C27.62,122.56,27.82,122.78,28.07,122.79z M39.34,134.3c0.25,0.01,0.5,0.01,0.75,0.02c0.26,0.01,0.53,0.03,0.8,0.04 c0.54,0.02,1.09,0.04,1.66,0.06c1.12,0.04,2.28,0.09,3.47,0.11c1.18,0.02,2.39,0.06,3.59,0.06c1.2-0.02,2.41-0.05,3.59-0.07 c1.18-0.04,2.34-0.08,3.46-0.13c1.1-0.02,2.24-0.14,3.19-0.13c1.03,0,2.01-0.03,2.91-0.05c3.61-0.08,6.03-0.28,6.03-0.28 c0.21-0.02,0.38-0.17,0.42-0.39c0.04-0.25-0.13-0.49-0.38-0.53l-0.03-0.01c0,0-2.38-0.37-5.96-0.71c-0.9-0.08-1.87-0.18-2.9-0.26 c-0.28-0.02-0.48-0.04-0.82-0.06c-0.27-0.01-0.53-0.02-0.8-0.02c-0.54-0.02-1.1-0.03-1.66-0.04c-1.13-0.01-2.29-0.03-3.47-0.04 c-1.17,0-2.37,0.01-3.56,0.01c-1.2-0.03-2.39-0.01-3.57-0.02c-1.17-0.01-2.34,0.01-3.46,0.03c-1.14,0.02-2.18,0.01-3.27,0.11 c-1.05,0.09-2.05,0.11-2.96,0.28c-0.93,0.14-1.72,0.27-2.41,0.39c-0.69,0.14-1.34,0.19-1.86,0.26c-1.05,0.13-1.64,0.23-1.64,0.23 c-0.2,0.03-0.37,0.2-0.39,0.41c-0.02,0.25,0.16,0.48,0.42,0.51c0,0,0.6,0.06,1.65,0.14c0.53,0.03,1.16,0.1,1.91,0.07 c0.76,0,1.61-0.02,2.48-0.05C37.38,134.23,38.34,134.31,39.34,134.3z M441.26,164.84c3.34,0.47,6.4,1.76,9.04,3.66 c0.57-1.7,0.88-3.21,1.01-3.95c-8.64-0.03-19.41-0.05-30.56-0.04c-0.15,0.42-0.24,0.65-0.24,0.65c-0.07-0.22-0.16-0.43-0.23-0.65 c-7.45,0.01-15.05,0.04-22.29,0.09v11.36h21.36C424.27,168.22,432.58,163.62,441.26,164.84z M460.82,175.96h5.51 c0.02-0.63,0.06-1.27,0.07-1.89c0.02-0.72,0.03-1.44,0.05-2.15c0.04-2.46,0.05-4.89,0.04-7.29c-1.51-0.01-3.43-0.02-5.67-0.03 V175.96z M388.56,164.68c-17.44,0.19-31,0.57-31.98,1.28c-2.17,1.57-5.48,7.26-7,9.99h31.84 C386.28,175.03,388.13,166.97,388.56,164.68z M274.78,170.92c-23.74,3.44-27.26,34.2-27.26,34.2h9.95c-0.13-2-0.07-4.06,0.22-6.14 c2-14.29,13.7-24.46,26.13-22.72c12.38,1.74,20.81,14.64,18.89,28.86h8.85C311.56,205.12,307.7,166.15,274.78,170.92z M290.53,203.56c0.88-6.25-2.82-11.94-8.26-12.7c-5.44-0.76-10.56,3.69-11.44,9.94c-0.88,6.25,2.82,11.94,8.26,12.7 C284.54,214.27,289.66,209.82,290.53,203.56z M84.8,170.06c-23.74,3.44-27.26,34.2-27.26,34.2h9.95c0.05-0.76,0.12-1.53,0.23-2.29 c2-14.29,13.7-24.46,26.13-22.72c11.25,1.58,19.24,12.38,19.16,25.01h8.58C121.59,204.26,117.73,165.29,84.8,170.06z M409.82,83.82 c-7.63,1.02-12.93,8.55-11.82,16.83c1.1,8.28,8.18,14.17,15.82,13.15c7.64-1.02,12.93-8.55,11.82-16.83 C424.53,88.69,417.45,82.8,409.82,83.82z M92.3,193.85c-5.44-0.76-10.56,3.69-11.44,9.94c-0.88,6.25,2.82,11.94,8.26,12.7 c5.44,0.76,10.56-3.69,11.44-9.94C101.44,200.3,97.74,194.61,92.3,193.85z" fill="#d46bca"/></g><g id="change3_1"><path d="M440.7,62.14l2.64,4.66l1.88,3.33H398.8l-21-52.69h37.59L440.7,62.14z M323.9,17.44l18.35,52.69h48.94 l-20.8-52.69H323.9z M305.43,48.22c-2.99-7.9-8-18.08-16.34-30.78h-60.45v52.69h72.81l-4.73-21.91H305.43z M171.78,70.13h48.36 V17.4h-48.36V70.13z M113.01,70.97h51.2V18.24h-51.2V70.97z M371.32,127.75c1.12-0.48,2.31-0.74,3.55-0.74 c0.05,0,0.1,0.01,0.15,0.01c0.02,0,0.04,0,0.06,0c6.26,0.15,11.3,6.85,11.3,15.11c0,7.4-4.05,13.55-9.39,14.86 c-0.02,0-0.03,0.01-0.05,0.01c-0.67,0.16-1.36,0.26-2.06,0.26c-0.53,0-1.05-0.06-1.56-0.15c-5.62-1-9.95-7.31-9.95-14.97 C363.37,135.41,366.71,129.72,371.32,127.75z M375.03,128.84c-0.67-0.24-1.05-0.36-1.05-0.36c-0.18-0.05-0.38,0-0.5,0.15 c-0.17,0.2-0.14,0.49,0.06,0.66c0,0,0.31,0.26,0.88,0.68c0.28,0.21,0.62,0.46,1.01,0.75c0.36,0.29,0.74,0.61,1.05,0.95 c0.14,0.21,0.28,0.4,0.42,0.64c0.14,0.26,0.29,0.5,0.43,0.8c0.29,0.61,0.6,1.24,0.91,1.91l0.2,0.42l0.21,0.54 c0.15,0.36,0.29,0.72,0.44,1.08c0.19,0.7,0.37,1.33,0.55,2.06c0.14,0.75,0.34,1.48,0.43,2.24c0.11,0.75,0.26,1.51,0.35,2.21 c0.08,0.74,0.23,1.48,0.27,2.12c0.05,0.66,0.17,1.28,0.18,1.86c0.03,0.58,0.08,1.11,0.11,1.59c0,0.48,0.01,0.89,0.01,1.23 c0.02,0.69,0.04,1.09,0.04,1.09l0,0.05c0.01,0.19,0.14,0.36,0.33,0.42c0.24,0.07,0.5-0.06,0.58-0.31c0,0,0.12-0.39,0.3-1.09 c0.09-0.35,0.21-0.78,0.31-1.27c0.07-0.5,0.16-1.06,0.22-1.68c0.09-0.62,0.1-1.3,0.12-2.01c0.03-0.73,0-1.44-0.03-2.19 c-0.04-0.8-0.13-1.57-0.2-2.38c-0.08-0.8-0.27-1.63-0.41-2.46c-0.17-0.83-0.49-1.72-0.75-2.53c-0.16-0.36-0.32-0.71-0.48-1.07 l-0.25-0.52l-0.06-0.12l-0.02-0.03l-0.04-0.06l-0.07-0.12l-0.14-0.25c-0.19-0.33-0.38-0.65-0.57-0.96 c-0.21-0.31-0.41-0.62-0.6-0.92c-0.2-0.3-0.44-0.61-0.65-0.89c-0.24-0.28-0.53-0.55-0.78-0.79c-0.29-0.21-0.57-0.44-0.84-0.58 c-0.27-0.13-0.53-0.27-0.77-0.37C375.78,129.12,375.36,128.96,375.03,128.84z M472.46,156.98c-0.02,0-0.03,0.01-0.05,0.01 c-0.67,0.16-1.36,0.26-2.06,0.26c-0.53,0-1.05-0.06-1.56-0.15c-5.62-1-9.95-7.31-9.95-14.97c0-6.72,3.34-12.41,7.95-14.38 c1.12-0.48,2.31-0.74,3.55-0.74c0.05,0,0.1,0.01,0.15,0.01c0.02,0,0.04,0,0.06,0c6.26,0.15,11.3,6.85,11.3,15.11 C481.85,149.53,477.8,155.68,472.46,156.98z M477.43,151.59c0,0,0.12-0.39,0.32-1.08c0.09-0.35,0.22-0.77,0.33-1.26 c0.09-0.49,0.2-1.05,0.29-1.67c0.11-0.61,0.15-1.3,0.2-2.03c0.06-0.75,0.04-1.45,0.03-2.21c-0.03-0.84-0.13-1.59-0.2-2.42 c-0.09-0.81-0.29-1.64-0.43-2.46c-0.17-0.83-0.5-1.72-0.76-2.53c-0.16-0.36-0.33-0.71-0.49-1.07l-0.25-0.52l-0.06-0.11l-0.02-0.03 l-0.04-0.06l-0.07-0.12l-0.15-0.25c-0.19-0.33-0.39-0.65-0.57-0.97c-0.21-0.32-0.42-0.63-0.63-0.93c-0.2-0.3-0.47-0.6-0.69-0.89 c-0.25-0.28-0.56-0.54-0.83-0.77c-0.3-0.19-0.59-0.41-0.86-0.53c-0.27-0.12-0.54-0.25-0.77-0.34c-0.46-0.18-0.87-0.33-1.2-0.45 c-0.67-0.24-1.06-0.36-1.06-0.36c-0.18-0.05-0.38,0-0.5,0.15c-0.16,0.2-0.13,0.5,0.07,0.66c0,0,0.32,0.26,0.89,0.68 c0.29,0.21,0.63,0.46,1.03,0.74c0.38,0.28,0.78,0.59,1.1,0.93c0.15,0.2,0.29,0.38,0.44,0.61c0.14,0.26,0.3,0.48,0.44,0.77 c0.29,0.6,0.6,1.23,0.92,1.88l0.2,0.42l0.21,0.54c0.15,0.36,0.3,0.72,0.45,1.08c0.2,0.7,0.38,1.34,0.57,2.06 c0.14,0.75,0.35,1.48,0.45,2.24c0.11,0.74,0.27,1.53,0.34,2.18c0.06,0.74,0.21,1.49,0.21,2.12c0.02,0.65,0.12,1.26,0.11,1.85 c0,0.58,0.03,1.13,0.05,1.61c0,0.48-0.01,0.9-0.01,1.25c0,0.7,0.02,1.1,0.02,1.1l0,0.03c0.01,0.19,0.13,0.36,0.32,0.42 C477.09,151.97,477.35,151.84,477.43,151.59z M28.06,69.33h76.69V18.24H66.92C32.49,30.76,28.06,69.33,28.06,69.33z" fill="#5b6946"/></g><g id="change4_1"><path d="M446.99,61.88c3.66-0.66,6.54-2.33,8.73-4.2l2.32-16.16h17.68l-3.12,28.95L454,69.59l0.78-5.44 c-2.06,1.01-4.1,1.65-5.97,2.04c-2.15,0.46-4.06,0.59-5.48,0.61l-2.64-4.66v-0.16C443.01,62.29,445.1,62.22,446.99,61.88z M302.71,205.12c-0.01,0.05-0.01,0.11-0.02,0.16c-2,14.29-13.7,24.46-26.12,22.72c-10.61-1.49-18.32-11.18-19.09-22.88 c-0.13-2-0.07-4.06,0.22-6.14c2-14.29,13.7-24.46,26.13-22.72C296.2,178,304.63,190.9,302.71,205.12z M290.53,203.56 c0.88-6.25-2.82-11.94-8.26-12.7c-5.44-0.76-10.56,3.69-11.44,9.94c-0.88,6.25,2.82,11.94,8.26,12.7 C284.54,214.27,289.66,209.82,290.53,203.56z M327.46,63.71c-0.74-2.29-1.44-4.42-2.22-6.52c-0.76-2.11-1.5-4.19-2.24-6.23 c-0.73-2.03-1.49-4.08-2.08-5.97c-0.58-1.92-1.17-4.08-1.87-5.89c-0.83-1.84-1.64-3.63-2.42-5.36c-0.39-0.85-0.77-1.69-1.15-2.51 c-0.39-0.79-0.81-1.68-1.22-2.47c-0.5-0.75-0.93-1.54-1.47-2.22c-0.53-0.68-1.03-1.37-1.56-1.95c-0.26-0.3-0.53-0.6-0.78-0.89 c-0.29-0.28-0.57-0.57-0.84-0.84c-0.28-0.28-0.55-0.55-0.82-0.81c-0.29-0.25-0.59-0.47-0.88-0.7c-2.35-1.87-4.75-2.74-6.56-3.56 c-0.91-0.41-1.79-0.82-2.68-0.96c-0.88-0.15-1.58-0.05-2.14,0c-1.1,0.13-1.66,0.22-1.66,0.22l-0.02,0 c-0.24,0.04-0.41,0.26-0.38,0.5c0.03,0.25,0.25,0.44,0.5,0.41c0,0,0.59-0.06,1.65-0.12c0.52-0.02,1.17-0.06,1.84,0.1 c0.67,0.14,1.44,0.53,2.35,0.99c1.83,0.92,4.08,1.89,6.09,3.65c0.25,0.22,0.52,0.43,0.78,0.67c0.24,0.26,0.47,0.52,0.72,0.78 c0.24,0.26,0.49,0.53,0.74,0.8c0.24,0.3,0.48,0.6,0.72,0.9c0.52,0.62,0.95,1.25,1.43,1.9c0.47,0.64,0.84,1.37,1.29,2.07 c0.37,0.76,0.69,1.48,1.07,2.32c0.35,0.83,0.71,1.68,1.08,2.54c0.71,1.7,1.45,3.47,2.21,5.28c0.69,1.92,1.11,3.74,1.68,5.83 c0.65,2.1,1.36,4.06,2.07,6.12c0.71,2.05,1.44,4.13,2.17,6.23c0.75,2.1,1.44,4.27,2.09,6.32c0.28,1.16,0.56,2.32,0.82,3.49 c0.9,0.32,1.85,0.58,2.86,0.76C328.25,66.94,327.86,65.32,327.46,63.71z M328.36,91.25c-0.09,2.28-0.18,4.54-0.27,6.77 c-0.02,2.25-0.05,4.46-0.07,6.65c-0.01,0.54-0.01,1.08-0.02,1.62l-0.01,0.81l0.03,0.85c0.05,1.07,0.11,2.12,0.16,3.16 c0.11,2.09,0.22,4.13,0.32,6.12c0.1,1.98,0.2,3.91,0.29,5.78c0.02,0.47,0.05,0.93,0.07,1.38c0.01,0.22,0.03,0.48,0.03,0.66 l-0.01,0.68c-0.01,0.9-0.02,1.79-0.02,2.66c-0.01,1.74-0.02,3.42-0.03,5.01c0.06,1.64,0.21,3.09,0.31,4.51 c0.11,1.4,0.22,2.71,0.32,3.93c0.02,0.29,0.04,0.58,0.07,0.86c0,0.29,0,0.58,0,0.86c0,0.56,0.01,1.09,0.01,1.6 c0.02,0.52-0.05,0.96-0.08,1.39c-0.04,0.44-0.08,0.85-0.11,1.24c-0.04,0.4-0.08,0.77-0.11,1.11c-0.01,0.34,0,0.65,0,0.93 c0.01,1.11,0.02,1.7,0.02,1.7c0,0.24,0.19,0.44,0.44,0.45c0.25,0.01,0.47-0.18,0.48-0.44l0-0.04c0,0,0.03-0.57,0.08-1.63 c0.02-0.27,0.02-0.56,0.05-0.89c0.05-0.32,0.1-0.67,0.16-1.05c0.1-0.74,0.3-1.75,0.33-2.75c0.02-0.51,0.04-1.04,0.06-1.6 c0.01-0.28,0.02-0.57,0.03-0.86c0-0.35-0.02-0.61-0.03-0.93c-0.05-1.22-0.1-2.55-0.15-3.96c-0.03-1.4-0.13-2.94-0.12-4.47 c0.06-1.57,0.12-3.23,0.18-4.96c0.03-0.87,0.06-1.75,0.09-2.66l0.02-0.68c0.01-0.27-0.01-0.47-0.01-0.71 c-0.01-0.46-0.03-0.93-0.04-1.4c-0.05-1.88-0.1-3.81-0.15-5.81c-0.05-1.99-0.11-4.03-0.17-6.12c-0.03-1.04-0.05-2.1-0.08-3.17 l-0.02-0.75l0.01-0.81c0.01-0.54,0.02-1.08,0.03-1.62c0.04-2.16,0.08-4.36,0.12-6.58c0.11-2.23,0.22-4.49,0.33-6.77 c0.05-1.15,0.1-2.3,0.15-3.46l0.04-1.08l0.03-0.7l0.03-0.89c0-0.29-0.02-0.58-0.03-0.87c-0.05-1.15-0.11-2.31-0.16-3.46l-0.01-0.11 l-0.01-0.13l-0.01-0.06l-0.03-0.22l-0.07-0.44l-0.14-0.88l-0.27-1.77c-0.22-1.35-0.49-2.64-0.78-3.94 c-0.87-0.09-1.83-0.23-2.83-0.44c0.1,0.5,0.2,0.99,0.3,1.49c0.22,1.13,0.53,2.28,0.68,3.38l0.52,3.26 c0.06,1.15,0.13,2.31,0.19,3.46c0.01,0.29,0.04,0.58,0.04,0.86l-0.03,0.83l0,0.07l-0.05,1.59 C328.44,88.98,328.4,90.12,328.36,91.25z M373.48,128.63c-0.17,0.2-0.14,0.49,0.06,0.66c0,0,0.31,0.26,0.88,0.68 c0.28,0.21,0.62,0.46,1.01,0.75c0.36,0.29,0.74,0.61,1.05,0.95c0.14,0.21,0.28,0.4,0.42,0.64c0.14,0.26,0.29,0.5,0.43,0.8 c0.29,0.61,0.6,1.24,0.91,1.91l0.2,0.42l0.21,0.54c0.15,0.36,0.29,0.72,0.44,1.08c0.19,0.7,0.37,1.33,0.55,2.06 c0.14,0.75,0.34,1.48,0.43,2.24c0.11,0.75,0.26,1.51,0.35,2.21c0.08,0.74,0.23,1.48,0.27,2.12c0.05,0.66,0.17,1.28,0.18,1.86 c0.03,0.58,0.08,1.11,0.11,1.59c0,0.48,0.01,0.89,0.01,1.23c0.02,0.69,0.04,1.09,0.04,1.09l0,0.05c0.01,0.19,0.14,0.36,0.33,0.42 c0.24,0.07,0.5-0.06,0.58-0.31c0,0,0.12-0.39,0.3-1.09c0.09-0.35,0.21-0.78,0.31-1.27c0.07-0.5,0.16-1.06,0.22-1.68 c0.09-0.62,0.1-1.3,0.12-2.01c0.03-0.73,0-1.44-0.03-2.19c-0.04-0.8-0.13-1.57-0.2-2.38c-0.08-0.8-0.27-1.63-0.41-2.46 c-0.17-0.83-0.49-1.72-0.75-2.53c-0.16-0.36-0.32-0.71-0.48-1.07l-0.25-0.52l-0.06-0.12l-0.02-0.03l-0.04-0.06l-0.07-0.12 l-0.14-0.25c-0.19-0.33-0.38-0.65-0.57-0.96c-0.21-0.31-0.41-0.62-0.6-0.92c-0.2-0.3-0.44-0.61-0.65-0.89 c-0.24-0.28-0.53-0.55-0.78-0.79c-0.29-0.21-0.57-0.44-0.84-0.58c-0.27-0.13-0.53-0.27-0.77-0.37c-0.46-0.19-0.87-0.35-1.2-0.47 c-0.67-0.24-1.05-0.36-1.05-0.36C373.8,128.42,373.6,128.47,373.48,128.63z M478.08,149.26c0.09-0.49,0.2-1.05,0.29-1.67 c0.11-0.61,0.15-1.3,0.2-2.03c0.06-0.75,0.04-1.45,0.03-2.21c-0.03-0.84-0.13-1.59-0.2-2.42c-0.09-0.81-0.29-1.64-0.43-2.46 c-0.17-0.83-0.5-1.72-0.76-2.53c-0.16-0.36-0.33-0.71-0.49-1.07l-0.25-0.52l-0.06-0.11l-0.02-0.03l-0.04-0.06l-0.07-0.12 l-0.15-0.25c-0.19-0.33-0.39-0.65-0.57-0.97c-0.21-0.32-0.42-0.63-0.63-0.93c-0.2-0.3-0.47-0.6-0.69-0.89 c-0.25-0.28-0.56-0.54-0.83-0.77c-0.3-0.19-0.59-0.41-0.86-0.53c-0.27-0.12-0.54-0.25-0.77-0.34c-0.46-0.18-0.87-0.33-1.2-0.45 c-0.67-0.24-1.06-0.36-1.06-0.36c-0.18-0.05-0.38,0-0.5,0.15c-0.16,0.2-0.13,0.5,0.07,0.66c0,0,0.32,0.26,0.89,0.68 c0.29,0.21,0.63,0.46,1.03,0.74c0.38,0.28,0.78,0.59,1.1,0.93c0.15,0.2,0.29,0.38,0.44,0.61c0.14,0.26,0.3,0.48,0.44,0.77 c0.29,0.6,0.6,1.23,0.92,1.88l0.2,0.42l0.21,0.54c0.15,0.36,0.3,0.72,0.45,1.08c0.2,0.7,0.38,1.34,0.57,2.06 c0.14,0.75,0.35,1.48,0.45,2.24c0.11,0.74,0.27,1.53,0.34,2.18c0.06,0.74,0.21,1.49,0.21,2.12c0.02,0.65,0.12,1.26,0.11,1.85 c0,0.58,0.03,1.13,0.05,1.61c0,0.48-0.01,0.9-0.01,1.25c0,0.7,0.02,1.1,0.02,1.1l0,0.03c0.01,0.19,0.13,0.36,0.32,0.42 c0.24,0.08,0.51-0.06,0.58-0.3c0,0,0.12-0.39,0.32-1.08C477.84,150.17,477.97,149.75,478.08,149.26z M113.01,204.26 c-0.01,1.32-0.1,2.66-0.29,4.01c-2,14.29-13.7,24.46-26.13,22.72c-11.76-1.65-19.95-13.37-19.1-26.73 c0.05-0.76,0.12-1.53,0.23-2.29c2-14.29,13.7-24.46,26.13-22.72C105.1,180.83,113.09,191.63,113.01,204.26z M92.3,193.85 c-5.44-0.76-10.56,3.69-11.44,9.94c-0.88,6.25,2.82,11.94,8.26,12.7c5.44,0.76,10.56-3.69,11.44-9.94 C101.44,200.3,97.74,194.61,92.3,193.85z M243.55,102.58c0.02,1.32,0.04,2.72,0.06,4.2c0.03,1.47,0.1,3.03,0.05,4.66 c0,1.63-0.1,3.31,0.03,5.1c0.12,1.79,0.07,3.57,0.43,5.61c0.03,0.26,0.13,0.54,0.21,0.81c0.07,0.27,0.18,0.54,0.33,0.81 c0.13,0.28,0.27,0.52,0.44,0.74c0.16,0.24,0.32,0.46,0.48,0.65c0.66,0.81,1.2,1.46,1.84,2.27c1.23,1.52,2.97,3.34,5.42,3.87 l0.45,0.11l0.46,0.04c0.3,0.02,0.62,0.07,0.91,0.05c0.51-0.02,1.03-0.03,1.55-0.05c1.03-0.03,2.08-0.08,3.12-0.09 c1.04-0.02,2.09-0.04,3.15-0.06l1.59-0.03l0.4-0.01l0.1,0c0,0,0,0,0,0l0.04,0l0.2,0.01l0.8,0.05c0.53,0.04,1.08,0.05,1.59,0.11 l1.54,0.18c1.08,0.12,2.15,0.25,3.23,0.37l1.69,0.09l0.85,0.04c0.36,0.02,0.57-0.01,0.86-0.01l3.25-0.13 c2.16-0.08,4.35-0.2,6.43-0.26c1.08,0.02,2.17,0.03,3.23,0.07c1.06,0.08,2.13,0.15,3.18,0.23c1.1,0.07,2.2,0.02,3.29,0.04 c1.1-0.03,2.12-0.07,3.2-0.14c1.04-0.04,1.99-0.1,2.84,0.06c0.88,0.17,1.78,0.48,2.7,0.84c0.44,0.18,0.89,0.36,1.33,0.54l0.68,0.33 l0.34,0.16l0.28,0.17c0.38,0.21,0.76,0.43,1.13,0.71c0.38,0.25,0.73,0.53,1.07,0.83c1.37,1.17,2.48,2.6,3.3,4.14 c1.64,3.34,3.18,6.5,4.61,9.42c1.49,2.92,2.92,5.54,4.13,7.87c0.31,0.58,0.6,1.15,0.89,1.69c0.26,0.51,0.48,1.1,0.71,1.61 c0.23,0.53,0.44,1.03,0.65,1.51c0.21,0.48,0.34,0.94,0.51,1.38c0.31,0.9,0.59,1.7,0.84,2.39c0.25,0.7,0.53,1.28,0.72,1.76 c0.4,0.95,0.61,1.45,0.61,1.45c0.09,0.22,0.35,0.34,0.58,0.25c0.24-0.08,0.36-0.35,0.28-0.59l-0.01-0.02c0,0-0.18-0.51-0.52-1.46 c-0.16-0.48-0.4-1.05-0.6-1.75c-0.2-0.71-0.42-1.5-0.72-2.44c-0.15-0.46-0.28-0.97-0.47-1.46c-0.19-0.49-0.38-1-0.58-1.54 c-0.21-0.54-0.39-1.08-0.66-1.69c-0.26-0.56-0.54-1.15-0.82-1.75c-1.13-2.42-2.42-5.12-3.83-8.04c-1.36-2.97-2.83-6.2-4.39-9.6 c-0.89-1.78-2.12-3.47-3.69-4.89c-0.39-0.36-0.79-0.7-1.24-1.01c-0.42-0.33-0.89-0.62-1.38-0.91c-0.25-0.16-0.48-0.28-0.7-0.38 l-0.68-0.33c-0.49-0.21-0.99-0.42-1.48-0.63c-0.97-0.39-2.01-0.77-3.16-1c-1.19-0.24-2.34-0.16-3.39-0.13 c-1.02,0.05-2.1,0.09-3.12,0.1c-1.03-0.03-2.07,0.01-3.1-0.06c-1.08-0.09-2.16-0.17-3.24-0.26c-1.09-0.05-2.16-0.06-3.25-0.1 c-2.24,0.04-4.39,0.14-6.57,0.2l-3.26,0.11c-1.02,0.06-2.06-0.06-3.09-0.09c-1.07-0.11-2.14-0.22-3.2-0.34l-1.66-0.18 c-0.55-0.06-1.08-0.06-1.61-0.09l-0.8-0.04l-0.2-0.01l-0.05,0l-0.11,0l-0.1,0l-0.4,0.01l-1.6,0.05c-1.06,0.03-2.12,0.06-3.18,0.1 c-1.05,0.02-2.09,0.08-3.13,0.12c-0.52,0.02-1.03,0.04-1.54,0.07c-0.22,0.02-0.41-0.03-0.62-0.03l-0.31-0.02l-0.29-0.07 c-0.79-0.16-1.54-0.54-2.21-1.08c-0.34-0.26-0.68-0.57-0.97-0.88c-0.15-0.16-0.3-0.3-0.45-0.48l-0.47-0.56 c-0.59-0.72-1.31-1.54-1.88-2.2c-0.59-0.68-0.88-1.22-1.06-2c-0.34-1.63-0.38-3.51-0.54-5.21c-0.18-1.71-0.13-3.43-0.18-5.06 c-0.05-3.23-0.31-6.28-0.46-8.91c-0.04-0.66-0.08-1.3-0.12-1.92c-0.02-0.3-0.04-0.59-0.05-0.88c-0.01-0.3-0.01-0.59-0.02-0.88 c-0.03-1.15-0.06-2.2-0.08-3.15c-0.12-3.8-0.19-5.97-0.19-5.97c-0.01-0.24-0.2-0.44-0.45-0.45c-0.25-0.01-0.47,0.19-0.47,0.45 c0,0-0.06,2.17-0.17,5.97c-0.02,0.95-0.04,2-0.07,3.15c-0.01,0.29-0.01,0.58-0.02,0.88c0,0.31,0.01,0.62,0.01,0.94 C243.53,101.28,243.54,101.92,243.55,102.58z M334.87,73.38v-4.69c-2.29,0.31-4.37,0.24-6.25-0.1c-1.01-0.18-1.96-0.44-2.86-0.76 c-3.27-1.16-5.77-3.12-7.59-5.04l-3.65-14.56h-9.09h-8.71l4.73,21.91l1.52,7.04l18.59-0.88l-1.45-5.78 c2.31,1.22,4.63,1.96,6.71,2.4c1.01,0.21,1.96,0.35,2.83,0.44C332.75,73.67,334.87,73.38,334.87,73.38z M29.11,99.57 c0.38,0.01,0.77,0.01,1.17,0.02c0.4,0.01,0.82,0.01,1.25,0.02l0.32,0l0.31,0.02c0.22,0.01,0.45,0.03,0.68,0.04 c0.92,0.05,1.89,0.1,2.89,0.16c2.03,0.09,4.19,0.28,6.58,0.28c2.32-0.03,4.76-0.07,7.25-0.14c2.53-0.05,5.14-0.11,7.79-0.16 c0.66-0.02,1.32-0.03,1.98-0.05l0.99-0.02c0.24-0.02,0.64,0.01,0.96,0.02l2.01,0.07l1.91,0.17l2.07,0.18l2.07,0.05 c1.35,0.04,2.68,0.03,4.01,0.05c2.65,0.01,5.25,0.02,7.77,0.03c2.53,0.01,4.98,0.03,7.3,0.04c0.3,0,0.6,0,0.9,0 c0.28-0.01,0.57-0.03,0.85-0.04c0.56-0.03,1.11-0.06,1.66-0.09c1.09-0.09,2.25-0.26,3.19-0.37c0.98-0.15,1.92-0.17,2.82-0.24 c0.22-0.02,0.45-0.03,0.67-0.04l0.3-0.02l0.33,0c0.44,0,0.86-0.01,1.27-0.01c1.64-0.01,3.07-0.02,4.25-0.03 c2.36-0.04,3.71-0.06,3.71-0.06c0.23,0,0.43-0.19,0.45-0.43c0.02-0.25-0.17-0.47-0.42-0.49l-0.03,0c0,0-1.34-0.1-3.69-0.27 c-1.18-0.07-2.6-0.16-4.24-0.27c-0.41-0.03-0.83-0.05-1.27-0.08l-0.33-0.02l-0.36,0c-0.23,0-0.46,0-0.69,0 c-0.94,0-1.93-0.02-2.96,0.08c-1.07,0.07-2,0.16-3.08,0.2c-0.54,0-1.1,0.01-1.66,0.01c-0.28,0-0.56,0.01-0.85,0.01 c-0.27-0.01-0.54-0.02-0.82-0.03c-2.31-0.09-4.74-0.18-7.25-0.28c-2.53-0.06-5.14-0.13-7.79-0.2c-1.32-0.03-2.67-0.03-4-0.08 l-1.95-0.06l-1.95-0.18l-2.11-0.19l-2.01-0.05c-0.36,0-0.62-0.03-1.05-0.01l-1.01,0.03c-0.67,0.02-1.34,0.04-2.01,0.06 c-2.66,0.08-5.28,0.18-7.77,0.3c-2.55,0.11-4.99,0.24-7.3,0.37c-0.28,0.01-0.55,0.03-0.82,0.05c-0.28,0-0.56,0-0.84-0.01 c-0.56,0-1.11-0.01-1.65-0.01c-1.08,0-2.13,0-3.14,0c-1.01,0-1.98,0-2.9,0c-0.23,0-0.46,0.01-0.68,0.01l-0.36,0l-0.33,0.02 c-0.44,0.03-0.87,0.05-1.29,0.08c-0.42,0.03-0.82,0.05-1.21,0.08c-0.39,0.05-0.76,0.09-1.12,0.13c-0.7,0.08-1.34,0.16-1.93,0.23 c-1.13,0.16-2.09,0.18-2.71,0.24c-0.63,0.05-0.97,0.07-0.97,0.07c-0.23,0.02-0.42,0.21-0.42,0.45c-0.01,0.25,0.2,0.46,0.45,0.47 c0,0,0.34,0.01,0.97,0.03c0.64-0.01,1.54,0.09,2.75,0.01c0.59-0.02,1.25-0.05,1.96-0.08C28.37,99.6,28.73,99.59,29.11,99.57z M28.05,108.82c0,0,1.13,0.11,3.12,0.24c1.98,0.13,4.81,0.32,8.21,0.55c1.69,0.13,3.55,0.24,5.52,0.36 c0.51,0.02,0.95,0.07,1.54,0.08c0.5,0,1.01-0.01,1.52-0.01c0.99,0.02,2.16-0.12,3.22-0.2c0.51-0.04,1.03-0.08,1.55-0.13 c0.52-0.01,1.05-0.02,1.58-0.02c1.05-0.04,2.14,0.01,3.27,0.03c2.24,0.04,4.52,0.08,6.8,0.12c2.27-0.01,4.54-0.03,6.78-0.04 c0.56-0.01,1.11-0.01,1.67-0.02l0.42-0.01l0.21,0l0.26-0.01l0.82-0.05c1.09-0.06,2.17-0.12,3.24-0.18c1.05-0.06,2.09-0.13,3.1-0.19 c0.51-0.03,1.01-0.07,1.5-0.1c0.45-0.02,0.98-0.01,1.46-0.01c1.96-0.02,3.81-0.03,5.51-0.04c0.84-0.01,1.65-0.02,2.42-0.03 c0.78,0,1.51-0.01,2.21-0.01c1.39-0.01,2.6-0.01,3.59-0.02c2-0.02,3.14-0.05,3.14-0.05c0.23-0.01,0.42-0.18,0.44-0.41 c0.03-0.25-0.16-0.48-0.41-0.5l-0.03,0c0,0-1.13-0.12-3.1-0.29c-0.99-0.08-2.19-0.18-3.57-0.29c-0.69-0.06-1.43-0.11-2.2-0.18 c-0.78-0.04-1.61-0.09-2.47-0.14c-1.7-0.08-3.54-0.17-5.49-0.26c-0.5-0.02-0.96-0.05-1.51-0.05c-0.51,0.01-1.02,0.02-1.53,0.03 c-1.04,0.03-2.09,0.05-3.17,0.08c-1.06,0.03-2.15,0.06-3.24,0.1l-0.82,0.02l-0.1,0l-0.05,0l-0.01,0l-0.2,0l-0.42,0 c-0.55,0-1.11-0.01-1.67-0.01c-2.24,0-4.51-0.01-6.78-0.01c-2.26-0.03-4.53-0.06-6.75-0.09c-0.56-0.01-1.12-0.01-1.67-0.02 c-0.29,0-0.53-0.01-0.86,0l-0.85,0.04c-0.56,0.03-1.13,0.05-1.68,0.08c-0.55,0.06-1.1,0.12-1.65,0.18 c-1.06,0.11-1.97,0.26-3.03,0.28c-0.51,0.03-1.02,0.06-1.52,0.08c-0.42,0.02-0.96-0.01-1.43-0.01c-1.93-0.03-3.76-0.05-5.47-0.05 c-0.86,0-1.69-0.01-2.48-0.01c-0.77,0.02-1.51,0.04-2.2,0.06c-1.38,0.04-2.59,0.07-3.58,0.09c-1.99,0.06-3.13,0.12-3.13,0.12 c-0.22,0.01-0.41,0.19-0.43,0.42C27.61,108.57,27.8,108.79,28.05,108.82z M36.3,123.03c0.15,0,0.31,0,0.46,0.01l0.45,0.03 c0.32,0.02,0.65,0.05,0.98,0.07c0.67,0.04,1.36,0.07,2.02,0.17c0.7,0.08,1.42,0.17,2.16,0.25c0.76,0.1,1.54,0.09,2.33,0.14 c1.63,0.08,3.16,0.05,4.8,0.04c1.62-0.02,3.25-0.01,4.91-0.04c1.65-0.02,3.29-0.03,4.92-0.05c1.63-0.04,3.23-0.08,4.78-0.11 c1.54-0.05,3.04-0.13,4.45-0.19c1.43-0.06,2.71-0.14,4.01-0.23c0.62-0.05,1.21-0.1,1.77-0.14c0.56-0.05,1.13-0.17,1.64-0.25 c1.02-0.16,1.83-0.33,2.55-0.4c1.41-0.14,2.22-0.24,2.22-0.24l0.03,0c0.22-0.03,0.39-0.2,0.4-0.43c0.02-0.25-0.18-0.47-0.43-0.48 c0,0-0.83-0.05-2.3-0.09c-0.72-0.02-1.65,0.07-2.63,0.1c-0.49,0.01-0.98,0.06-1.54,0.05c-0.56-0.01-1.16-0.02-1.78-0.03 c-1.23-0.03-2.56-0.05-3.97-0.08c-1.42-0.01-2.91-0.05-4.46-0.05c-1.54-0.02-3.13-0.04-4.75-0.05c-1.62,0-3.27-0.01-4.92-0.01 c-1.64,0-3.31,0.06-4.93,0.08c-0.81,0.02-1.61,0.04-2.41,0.05c-0.4,0.01-0.79,0.03-1.18,0.04c-0.36,0.02-0.75,0-1.13,0 c-0.75-0.02-1.49,0.02-2.21-0.04c-0.75-0.04-1.48-0.08-2.19-0.11c-0.75-0.05-1.43-0.04-2.1-0.04c-0.33,0.01-0.66,0.01-0.98,0.02 c-0.17,0-0.34,0.01-0.51,0.01c-0.16,0.01-0.32,0.03-0.47,0.04c-2.49,0.19-4.55,0.4-5.99,0.55c-1.44,0.17-2.26,0.26-2.26,0.26 c-0.22,0.03-0.4,0.21-0.41,0.44c-0.01,0.25,0.19,0.47,0.44,0.48c0,0,0.83,0.04,2.27,0.1C31.79,122.95,33.85,123.01,36.3,123.03z M40.09,134.32c0.26,0.01,0.53,0.03,0.8,0.04c0.54,0.02,1.09,0.04,1.66,0.06c1.12,0.04,2.28,0.09,3.47,0.11 c1.18,0.02,2.39,0.06,3.59,0.06c1.2-0.02,2.41-0.05,3.59-0.07c1.18-0.04,2.34-0.08,3.46-0.13c1.1-0.02,2.24-0.14,3.19-0.13 c1.03,0,2.01-0.03,2.91-0.05c3.61-0.08,6.03-0.28,6.03-0.28c0.21-0.02,0.38-0.17,0.42-0.39c0.04-0.25-0.13-0.49-0.38-0.53 l-0.03-0.01c0,0-2.38-0.37-5.96-0.71c-0.9-0.08-1.87-0.18-2.9-0.26c-0.28-0.02-0.48-0.04-0.82-0.06c-0.27-0.01-0.53-0.02-0.8-0.02 c-0.54-0.02-1.1-0.03-1.66-0.04c-1.13-0.01-2.29-0.03-3.47-0.04c-1.17,0-2.37,0.01-3.56,0.01c-1.2-0.03-2.39-0.01-3.57-0.02 c-1.17-0.01-2.34,0.01-3.46,0.03c-1.14,0.02-2.18,0.01-3.27,0.11c-1.05,0.09-2.05,0.11-2.96,0.28c-0.93,0.14-1.72,0.27-2.41,0.39 c-0.69,0.14-1.34,0.19-1.86,0.26c-1.05,0.13-1.64,0.23-1.64,0.23c-0.2,0.03-0.37,0.2-0.39,0.41c-0.02,0.25,0.16,0.48,0.42,0.51 c0,0,0.6,0.06,1.65,0.14c0.53,0.03,1.16,0.1,1.91,0.07c0.76,0,1.61-0.02,2.48-0.05c0.88-0.05,1.84,0.03,2.84,0.03 C39.59,134.31,39.84,134.32,40.09,134.32z M422.56,159.57h-4.1h-61.89c0,0-5.01,0.78-8.92,7.96c-2.32,4.26-3.97,6.94-4.94,8.43 h6.86c1.51-2.73,4.83-8.43,7-9.99c0.98-0.71,14.54-1.09,31.98-1.28c-0.43,2.29-2.27,10.35-7.13,11.28h6.16l-2.89,23.41l-0.34,2.76 h13.64v-2.76v-23.41V164.6c7.24-0.05,14.84-0.08,22.29-0.09c0.16,0,0.31,0,0.47,0c11.15-0.01,21.92,0.01,30.56,0.04 c-0.13,0.74-0.45,2.26-1.01,3.95c-2.64-1.91-5.69-3.2-9.04-3.66c-8.67-1.22-16.99,3.38-21.9,11.12h24.8h6.16l-2.89,23.41h-31.56 c2.48,9.04,9.31,15.97,18.14,17.21c10.14,1.42,19.8-5.1,24.09-15.31h2.73v-1.9v-23.41v-11.37c2.25,0.01,4.17,0.02,5.67,0.03 c2.46,0.01,3.85,0.02,3.85,0.02v-5.07h-3.9h0H422.56z M172.18,173.38c-0.18-0.64-0.41-1.26-0.57-1.95 c-0.76-2.7-0.67-5.59-0.93-8.84c-0.09-0.79-0.11-1.54-0.24-2.39c-0.12-0.79-0.24-1.58-0.36-2.38c-0.25-1.6-0.46-3.22-0.69-4.85 c-0.05-0.38-0.13-0.87-0.16-1.17l-0.05-1.17c-0.06-0.77-0.02-1.6-0.01-2.41l0.05-2.56c0.01-0.86-0.04-1.68-0.05-2.52 c-0.16-1.68-0.32-3.37-0.48-5.05c-0.14-1.64-0.33-3.35-0.42-4.92c-0.2-3.29-0.36-6.53-0.64-9.65c-0.13-1.57-0.26-3.11-0.39-4.62 c-0.07-0.75-0.13-1.5-0.19-2.23c-0.05-0.66-0.02-1.4-0.04-2.08c0.02-1.4,0.1-2.77,0.17-4.18c0.04-0.7,0.03-1.36,0.03-2.01 c0-0.34,0-0.67,0-1c-0.01-0.32-0.02-0.64-0.02-0.95c-0.11-5.02-0.3-9.19-0.39-12.11c-0.08-2.93-0.12-4.6-0.12-4.6 c-0.01-0.24-0.2-0.44-0.44-0.45c-0.25-0.01-0.47,0.18-0.48,0.44c0,0-0.02,0.42-0.07,1.2c-0.04,0.78-0.13,1.93-0.17,3.4 c-0.07,2.93-0.23,7.13-0.31,12.14c-0.01,0.31-0.01,0.63-0.02,0.95c-0.01,0.31-0.03,0.62-0.04,0.94c-0.03,0.65-0.05,1.32-0.12,1.97 c-0.1,1.3-0.24,2.72-0.3,4.19c-0.01,0.75-0.06,1.47-0.03,2.29c0.04,0.74,0.08,1.48,0.12,2.24c0.1,1.5,0.2,3.04,0.3,4.6 c0.22,3.13,0.31,6.37,0.51,9.66c0.08,1.72,0.26,3.32,0.39,5c0.16,1.64,0.31,3.28,0.47,4.93c0.02,0.83,0.08,1.69,0.07,2.49 l-0.04,2.45c-0.01,0.85-0.04,1.69,0.03,2.57l0.07,1.31c0.05,0.51,0.12,0.85,0.18,1.28c0.25,1.63,0.49,3.25,0.77,4.83 c0.14,0.79,0.27,1.58,0.4,2.37c0.14,0.72,0.18,1.56,0.28,2.32c0.13,1.56,0.26,3.09,0.38,4.59c0.08,0.77,0.21,1.54,0.31,2.3 l0.02,0.14l0.01,0.04l0.02,0.1l0.02,0.07l0.07,0.27l0.13,0.53c0.09,0.35,0.17,0.7,0.26,1.05c0.18,0.7,0.46,1.42,0.68,2.11 c0.23,0.7,0.46,1.29,0.68,1.92c0,0.01,0.01,0.02,0.01,0.03c0.25,0.64,0.4,1.24,0.59,1.84c0.08,0.29,0.2,0.62,0.25,0.87 c0.06,0.31,0.13,0.62,0.19,0.93c0.28,1.24,0.41,2.38,0.61,3.5c0.21,1.15,0.38,2.23,0.7,3.27c0.07,0.26,0.14,0.51,0.21,0.76 l0.05,0.19c0.05,0.14,0.05,0.13,0.08,0.21l0.14,0.33c0.18,0.44,0.36,0.86,0.53,1.27c0.33,0.82,0.78,1.56,1.11,2.23 c0.72,1.31,1.34,2.28,1.73,2.95c0.4,0.67,0.61,1.03,0.61,1.03l0.01,0.01c0.12,0.2,0.38,0.28,0.6,0.17 c0.23-0.11,0.32-0.39,0.21-0.62c0,0-0.74-1.5-2.04-4.11c-0.27-0.66-0.65-1.32-0.93-2.16c-0.15-0.42-0.3-0.85-0.45-1.3l-0.12-0.34 c-0.01-0.04-0.05-0.15-0.04-0.13l-0.04-0.17c-0.05-0.23-0.1-0.47-0.15-0.7c-0.24-0.93-0.34-2-0.48-3.11 c-0.13-1.14-0.24-2.39-0.46-3.62c-0.05-0.31-0.1-0.62-0.15-0.94c-0.06-0.39-0.16-0.67-0.24-1.01c-0.12-0.45-0.24-0.91-0.37-1.37 c-0.06-0.21-0.11-0.42-0.18-0.61C172.59,174.7,172.39,174.05,172.18,173.38z M267.18,89.72l-17.8,1.13v4.51h17.8V89.72z" fill="#191919"/></g></g></svg>