<?xml version="1.0" encoding="UTF-8" standalone="no"?><svg xmlns="http://www.w3.org/2000/svg" xmlns:xlink="http://www.w3.org/1999/xlink" fill="#000000" height="484.4" preserveAspectRatio="xMidYMid meet" version="1" viewBox="0.0 0.0 282.3 484.4" width="282.3" zoomAndPan="magnify"><g><g id="change1_1"><path d="M282.27,32.95c0.02,0.32-0.23,0.6-0.55,0.63l-0.04,0c0,0-1.01,0.09-2.89,0.27 c-0.76,0.1-1.65,0.22-2.67,0.38l-43.8,329.31l8.97-0.31c0,0-0.54,67.69-3.79,98.97c0.11,0,0.24,0.01,0.35,0.02 c1.09-0.01,1.68-0.01,1.68-0.01l0.09,0c0.33,0,0.6,0.27,0.6,0.6c0,0.32-0.24,0.58-0.55,0.6c0,0-0.63,0.05-1.8,0.14 c-0.15,0.01-0.34,0.01-0.51,0.01c-0.81,7.33-1.78,12.43-2.94,13.79c-6.01,7.04-157.14-2.11-157.14-2.11V368.86l10.99-0.38 L5.76,46.09L0,46.37V8.59l233.76-7.13c0-0.01,0.01-0.04,0.01-0.04c0.05-0.34,0.37-0.57,0.7-0.51c0.25,0.04,0.44,0.23,0.5,0.46 c0,0,0.01,0.03,0.02,0.06L281.65,0v32.38C281.98,32.37,282.25,32.62,282.27,32.95z" fill="#d46bca"/></g><g id="change2_1"><path d="M228.68,461.56c-1.1,0-2.25,0.04-3.45,0.1c-0.72,0.02-1.46,0.05-2.22,0.07c-0.77,0.01-1.59-0.03-2.41-0.04 c-0.74-0.03-1.58-0.17-2.39-0.24c-0.85-0.14-1.72-0.28-2.61-0.42c-0.93-0.13-1.91-0.33-2.86-0.41c-0.47-0.04-0.95-0.08-1.43-0.13 c-0.27-0.02-0.41-0.05-0.79-0.05l-0.75,0.01c-1.24,0.02-2.52,0.05-3.8,0.08c0.31-0.09,0.62-0.18,0.88-0.27 c0.89-0.33,1.71-0.71,2.48-1.11c1.49-0.78,2.97-1.56,4.45-2.33l1.18-0.68c0.39-0.26,0.88-0.66,1.3-1.01 c0.74-0.78,1.46-1.72,1.75-2.78c0.34-1.03,0.42-2.04,0.43-2.92c0.02-0.95-0.03-1.67-0.04-2.48c-0.01-1.49,0.21-2.64,0.88-3.5 c0.12-0.25,0.4-0.4,0.59-0.61l0.15-0.15l0.04-0.04c-0.05,0.03,0.02-0.01,0.03-0.02l0.12-0.09l0.47-0.34 c0.59-0.42,1.12-0.75,1.72-1.06c1.17-0.59,2.26-0.81,3.13-0.5c0.9,0.26,1.71,1.15,2.38,2.13c0.34,0.52,0.61,0.99,0.91,1.6 c0.31,0.59,0.59,1.15,0.81,1.68c0.98,2.18,1.51,4.19,1.19,6l-0.02,0.17l0,0.04l-0.02,0.07l-0.09,0.36 c-0.06,0.24-0.12,0.47-0.18,0.7c-0.11,0.47-0.25,0.89-0.39,1.3c-0.13,0.41-0.26,0.8-0.39,1.17c-0.11,0.4-0.21,0.79-0.31,1.16 c-0.46,1.45-0.49,2.66-0.61,3.45C228.74,461.03,228.7,461.38,228.68,461.56z M199.8,460.68l-1.3-0.29l-1.29-0.3l-1.19-0.34 l-1.17-0.34l-0.58-0.17c-0.25-0.07-0.49-0.18-0.74-0.27c-0.95-0.37-2.05-1.12-2.65-2.19c-0.61-1.06-0.73-2.01-0.92-2.56 c-0.2-0.58-0.32-0.78-0.67-1.03c-0.08-0.05-0.16-0.08-0.23-0.14c-0.02-0.02-0.09-0.06-0.2-0.09l-0.27-0.1l-1.02-0.36 c-1.51-0.49-2.98-1.17-4.23-1.78c-0.6-0.3-1.18-0.6-1.86-0.86l-0.48-0.2l-0.12-0.05l-0.05-0.02l-0.2-0.06 c-0.31-0.1-0.6-0.18-0.86-0.22c-1.07-0.25-1.95-0.11-2.92,0.38c-0.45,0.28-0.85,0.44-1.35,0.87c-0.24,0.18-0.47,0.37-0.7,0.55 c-0.13,0.1-0.39,0.34-0.57,0.5c-0.79,0.71-1.46,1.44-1.85,2.17c-0.79,1.41-0.44,3.14-0.29,4.61c0.19,1.47,0.21,2.67,0.21,3.49 c0,0.06,0,0.1,0,0.15l0.69-0.01c1.2-0.01,2.4-0.02,3.59-0.03c4.64,0.04,9.37-0.4,13.9-0.71c3.5-0.21,6.8-0.39,10.01-0.53 L199.8,460.68z M77.28,368.86v106.37c0,0,151.13,9.16,157.14,2.11c1.16-1.36,2.13-6.46,2.94-13.79c-1.14,0.02-2.64-0.02-4.45-0.12 c-1.03-0.03-2.27-0.08-3.47-0.04c-1.23,0.05-2.59,0.16-4.06,0.31c-0.76,0.06-1.54,0.13-2.35,0.2c-0.8,0.05-1.6,0.06-2.43,0.09 c-0.92,0.01-1.77-0.09-2.69-0.14c-0.87-0.11-1.77-0.22-2.68-0.33c-0.87-0.09-1.72-0.24-2.66-0.29c-0.47-0.03-0.95-0.05-1.43-0.07 c-0.21-0.01-0.55-0.04-0.66-0.02l-0.72,0.04c-1.93,0.11-3.9,0.19-5.99,0.35c-4.12,0.27-8.59,0.66-13.01,0.98 c-4.54,0.38-9.16,0.9-14.08,0.94c-1.19,0.02-2.39,0.03-3.59,0.05l-0.9,0.01l-0.8,0.08l-1.73,0.18c-1.19,0.16-2.36,0.32-3.67,0.46 c-0.64,0.08-1.28,0.15-1.87,0.16l-0.91,0.05l-0.45,0.02l-0.23,0.01h-0.14l-0.06,0l-0.12,0c-2.63-0.03-5.08-0.45-7.4-0.76l-1.8-0.21 c-0.52-0.07-1.12-0.05-1.67-0.09c-1.11-0.07-2.32,0-3.5,0.01c-1.27,0.01-2.57,0.05-3.71-0.06l-0.89-0.06l-0.22-0.01l-0.29-0.03 l-0.44-0.05l-1.75-0.2c-2.32-0.27-4.62-0.54-6.88-0.81c-1.11-0.11-2.2-0.21-3.29-0.31c-1.08-0.11-2.17-0.21-3.27-0.24 c-1.09-0.06-2.17-0.12-3.24-0.18c-1.03-0.01-2.05-0.02-3.06-0.03c-4.09-0.09-8.06,0.32-11.7,0.39c-0.85,0.05-1.68,0.1-2.49,0.15 c-0.43,0.08-0.85,0.15-1.27,0.22l-0.62,0.11l-0.05,0.01l-0.02,0l-0.14,0.04l-0.29,0.09c-1.53,0.41-2.99,0.96-4.49,1.38 c-0.75,0.19-1.5,0.45-2.18,0.56c-0.68,0.11-1.34,0.22-1.97,0.32c-1.39,0.19-2.52,0.22-3.62,0.33c-1.08,0.12-2.03,0.1-2.85,0.08 c-0.83-0.01-1.53-0.02-2.1-0.02c-1.14-0.01-1.74-0.02-1.74-0.02c-0.33,0-0.6-0.28-0.6-0.61c0-0.32,0.25-0.57,0.56-0.6 c0,0,0.61-0.04,1.74-0.11c0.57-0.04,1.27-0.08,2.09-0.13c0.82-0.05,1.78-0.09,2.8-0.26c1.01-0.15,2.22-0.27,3.36-0.49 c0.62-0.14,1.27-0.28,1.95-0.43c0.68-0.15,1.27-0.41,1.94-0.62c1.33-0.45,2.79-1.09,4.42-1.64l0.31-0.1l0.15-0.05l0.04-0.01 c-0.06,0.01,0.13-0.03,0.12-0.03l0.08-0.02l0.62-0.14c0.41-0.09,0.84-0.18,1.26-0.27c0.91-0.11,1.91-0.23,2.83-0.3 c3.63-0.24,7.51-0.77,11.76-0.8c1.08-0.02,2.17-0.04,3.27-0.06c1.07,0.03,2.15,0.05,3.24,0.08c1.09,0.02,2.21,0.09,3.35,0.19 c1.14,0.09,2.29,0.18,3.45,0.27c2.26,0.22,4.56,0.45,6.89,0.69l1.75,0.18l0.44,0.05l0.11,0.01l0.04,0c0,0,0,0,0,0l0.22,0.01 l0.88,0.05c1.21,0.1,2.29,0.04,3.41,0.03c1.2-0.01,2.39-0.1,3.69-0.02c0.65,0.03,1.25,0.01,1.93,0.09l1.8,0.19 c2.47,0.31,4.82,0.69,7.04,0.73l0.11,0.01l0.05,0c-0.01,0,0.02,0,0.03,0l0.17-0.01l0.45-0.02l0.91-0.04 c0.62-0.01,1.19-0.07,1.75-0.15l3.53-0.42l1.76-0.17c-0.01-0.07-0.01-0.13-0.02-0.21c-0.09-0.75-0.25-1.84-0.53-3.27 c-0.13-0.71-0.32-1.51-0.42-2.48c-0.1-0.95-0.04-2.16,0.46-3.29c0.49-1.12,1.25-2.07,2.09-2.96c0.23-0.23,0.38-0.41,0.7-0.69 c0.22-0.19,0.44-0.39,0.67-0.59c0.39-0.39,1.08-0.83,1.68-1.22c0.34-0.17,0.67-0.33,1.02-0.5c0.37-0.14,0.76-0.24,1.16-0.36 c0.81-0.14,1.69-0.17,2.47-0.02c0.4,0.06,0.78,0.14,1.13,0.24l0.27,0.07l0.03,0.01l0.12,0.04l0.06,0.02l0.12,0.05l0.49,0.18 c0.65,0.21,1.34,0.53,2.05,0.84c1.36,0.59,2.61,1.09,3.99,1.48c0.38,0.12,0.76,0.25,1.14,0.37l0.27,0.09 c0.08,0.02,0.18,0.06,0.33,0.14c0.27,0.13,0.54,0.26,0.79,0.41c0.98,0.57,1.74,1.76,2.02,2.67c0.31,0.93,0.45,1.58,0.68,1.89 c0.2,0.32,0.5,0.53,1.05,0.74c0.14,0.04,0.27,0.11,0.41,0.14l0.59,0.16l1.18,0.34l1.18,0.33l1.12,0.24l1.12,0.25l1.11,0.12 c0.75,0.13,1.45,0.05,2.16,0.03l0.27-0.01l0.03,0c-0.01,0,0,0,0,0l0.01,0l0.15-0.03l0.62-0.12c0.35-0.1,0.57-0.17,0.92-0.29 c0.68-0.26,1.38-0.56,2.1-0.93c1.49-0.77,2.97-1.53,4.46-2.29l0.99-0.57c0.3-0.2,0.43-0.36,0.67-0.52 c0.37-0.43,0.73-0.81,0.87-1.37c0.39-1.05,0.3-2.65,0.32-4.32c0.03-0.89,0.06-1.81,0.34-2.78c0.07-0.24,0.12-0.48,0.21-0.72 l0.32-0.7c0.19-0.48,0.53-0.88,0.83-1.29c0.28-0.44,0.7-0.7,1.06-1.05l0.28-0.24l0.07-0.06l0.09-0.06l0.12-0.08l0.48-0.33 c0.68-0.45,1.46-0.91,2.23-1.25c0.78-0.36,1.65-0.63,2.58-0.77c0.93-0.13,1.95-0.02,2.86,0.32c0.92,0.33,1.67,0.91,2.26,1.51 c0.62,0.6,1.04,1.27,1.44,1.91c0.37,0.63,0.71,1.34,0.96,1.92c0.27,0.58,0.53,1.19,0.76,1.83c0.49,1.24,0.86,2.48,1.03,3.74 c0.19,1.25,0.12,2.52-0.13,3.6l-0.04,0.21l-0.01,0.05l-0.02,0.1l-0.01,0.02l-0.03,0.09l-0.12,0.35c-0.08,0.23-0.16,0.46-0.24,0.69 c-0.14,0.45-0.33,0.89-0.5,1.31c-0.17,0.42-0.34,0.82-0.5,1.21c-0.13,0.37-0.25,0.72-0.36,1.06c-0.52,1.33-0.69,2.43-0.87,3.17 c-0.09,0.4-0.16,0.69-0.2,0.89c1.14,0.04,2.11,0.14,3.06,0.21c1.95,0.19,3.44,0.36,4.52,0.41c3.24-31.28,3.79-98.97,3.79-98.97 l-8.97,0.31l-144.04,4.95L77.28,368.86z M151.13,126.4c-25.08,0-45.42,20.74-45.42,46.31c0,25.58,20.34,46.31,45.42,46.31 c25.08,0,45.42-20.74,45.42-46.31C196.55,147.13,176.21,126.4,151.13,126.4z M131.81,117.1c0,0-32.33-40.94-37.82-44.71 c-5.5-3.78,10.05,60.1,10.05,60.1L131.81,117.1z M172.89,75.58c-1.82-0.36-21.76,45.06-21.76,45.06l28.67,7.63 C179.8,128.27,174.71,75.95,172.89,75.58z M206.72,170.48l46.87-34.16l-61.04-6.18L206.72,170.48z M188.52,214.92 c0,0,30.52,10.36,34.16,10.36c3.63,0-18.53-35.09-18.53-35.09L188.52,214.92z M168.67,244c-1.69,0.33-3.75,1.27-6.17,2.83 l-1.59,17.84c0.27,0.28,0.52,0.48,0.72,0.58C163.5,266.19,166.35,255.02,168.67,244z M161.68,235.34c3.07,0.16,5.84,0.85,8.32,2.04 c1.49-7.64,2.53-13.87,2.53-13.87l-31.7,6.8c0,0,6.29,12.13,12.06,22.11l1.56-14.06C154.81,236.04,157.22,235.04,161.68,235.34z M100.58,204.21c0,0-8.36,31.61-5.09,33.38c3.27,1.77,29.07-14.07,29.07-14.07L100.58,204.21z M98.4,184.72l1.82-30.47 l-47.24,15.24L98.4,184.72z" fill="#faefe6"/></g><g id="change3_1"><path d="M133.44,243.58c-0.04,0.22-0.09,0.41-0.14,0.56c-0.17,0.97-1.49,4.07-3.96,9.31 c-7.34,15.69-10.51,24.56-9.52,26.59c0.47,0.76,1.86,1.47,4.17,2.13c2.31,0.66,3.96,1.34,4.96,2.05c2.36,1.9,3.77,4.45,4.21,7.64 c0.46,4.8-1.42,9.94-5.64,15.42c-8.95,11.37-14.17,17.13-15.68,17.27c-0.33,0.03-0.59,0.02-0.8-0.03c-2.3-1.18-3.7-2.73-4.22-4.66 c-0.32-1.22-0.16-2.33,0.47-3.35c0.52-0.79,1.82-2.31,3.92-4.57l-0.01-0.11c2.81-3.06,5.1-5.71,6.86-7.94 c4.43-5.42,5.95-9.2,4.55-11.35c-0.08-0.14-0.16-0.24-0.23-0.31c-0.8-0.73-2.26-1.51-4.39-2.33c-3.5-1.35-5.83-2.92-7-4.72 c-1.59-2.71-1.75-6.48-0.5-11.3c2.43-9.71,7.05-20.99,13.87-33.85c0.05-0.15,0.1-0.27,0.16-0.35l0.08-0.23 c1.42-1.68,3.28-1.93,5.58-0.76C132.41,239.83,133.49,241.45,133.44,243.58z M175.44,241.28c8.73,8.26,4.05,22.34-14.05,42.23 c-0.66,0.73-1.32,0.72-1.99-0.03c-0.08-0.14-0.15-0.21-0.22-0.2l-2.46,27.78c-0.2,1.34-0.89,2.1-2.06,2.29l-5.55-0.01 c-1.54-0.15-2.4-0.91-2.6-2.28c-0.02-0.22-0.04-0.44-0.06-0.65l6.43-57.99l1.56-14.06c0.37-2.31,2.78-3.32,7.24-3.01 c3.07,0.16,5.84,0.85,8.32,2.04c1.11,0.54,2.17,1.16,3.17,1.91C173.95,239.88,174.71,240.54,175.44,241.28z M172.94,245.16 c-0.98-1.14-2.41-1.52-4.28-1.16c-1.69,0.33-3.75,1.27-6.17,2.83l-1.59,17.84l-0.31,3.49C170.48,254.94,174.6,247.27,172.94,245.16 z M217.74,230.79l-21.47,2.52c-1.16,0.26-1.85,0.99-2.07,2.18l-0.26,5.53c0.03,1.03,0.42,1.91,1.15,2.64l-5.96,61.28 c-0.12,1.48,0.42,2.6,1.62,3.37l3.78,2.17c0.62,0.31,1.29,0.39,2.01,0.25c1.43-0.29,2.19-1.24,2.3-2.87l1.31-15.11 c9.11-1.47,13.7-2.21,13.76-2.21c1.17-0.19,1.85-1.02,2.04-2.51l0.44-4.67c0.02-0.44-0.06-0.91-0.24-1.41 c-0.53-1.42-1.55-2.05-3.06-1.91l-12.03,1.71l3.15-37.1c0-0.66,0.01-1.29,0.02-1.88c9.39-1.28,14.15-1.92,14.29-1.93 c1.17-0.19,1.89-0.99,2.15-2.41l0.38-4.22c0.02-0.52-0.07-1.02-0.25-1.52C220.2,231.29,219.18,230.65,217.74,230.79z" fill="#5b6946"/></g><g id="change4_1"><path d="M282.27,32.95c0.02,0.32-0.23,0.6-0.55,0.63l-0.04,0c0,0-1.01,0.09-2.89,0.27 c-0.76,0.1-1.65,0.22-2.67,0.38c-0.26,0.04-0.53,0.08-0.81,0.12c-1.4,0.23-2.95,0.49-4.79,0.66c-0.91,0.05-1.87,0.1-2.88,0.16 c-0.99,0.01-2.03,0.02-3.12,0.03c-1.05,0.02-2.12-0.01-3.3,0.12c-0.29,0.03-0.58,0.05-0.88,0.07c-0.12,0.01-0.35,0.02-0.39,0.04 l-0.42,0.09c-0.57,0.12-1.14,0.23-1.73,0.36c-1.21,0.31-2.39,0.66-3.76,0.98c-0.67,0.15-1.37,0.36-2.04,0.46 c-0.67,0.1-1.36,0.21-2.05,0.32l-0.52,0.08c-0.3,0.05-0.39,0.02-0.6,0.04c-0.36,0.01-0.72,0.02-1.09,0.03 c-0.73,0.02-1.47,0.03-2.22,0.05c-1.48,0.02-2.99,0.04-4.53,0.06c-0.77,0.01-1.54,0.02-2.33,0.02c-0.71,0-1.56,0.07-2.35,0.1 c-1.61,0.07-3.26,0.2-4.91,0.23c-0.83,0.02-1.66,0.03-2.51,0.05l-1.27,0.02l-0.32,0.01c-0.22,0-0.25-0.02-0.38-0.02l-0.66-0.05 c-0.88-0.08-1.79-0.11-2.68-0.25c-0.88-0.14-1.76-0.28-2.65-0.43c-3.4-0.71-6.9-1.09-10.57-1.43c-0.92-0.06-1.85-0.13-2.78-0.19 l-1.4-0.1l-0.7-0.05l-0.64,0c-1.86,0.03-3.68-0.06-5.62,0.04c-1.89,0.08-3.91,0.09-5.75,0.24c-1.89,0.1-3.76,0.35-5.73,0.64 c-0.99,0.15-1.97,0.29-2.95,0.42c-0.98,0.13-1.97,0.27-2.96,0.4c-1.95,0.26-3.9,0.5-5.89,0.89l-2.96,0.52l-3.09,0.45 c-2.08,0.34-4.07,0.49-6.11,0.72l-1.52,0.16l-1.57,0.1l-3.14,0.2l-6.15,0.2l-6.19,0.33l-3.07,0.04l-1.53,0.02l-0.19,0l-0.1,0 c-0.01,0-0.23,0-0.19-0.01l-0.39-0.03l-0.78-0.07l-3.12-0.27c-1.05-0.08-2.07-0.19-3.07-0.34c-2-0.28-4-0.56-5.99-0.83 c-0.98-0.13-1.95-0.29-2.94-0.39c-1-0.09-2-0.18-2.99-0.26c-0.97-0.08-2.05-0.2-2.91-0.24c-0.97-0.04-1.95-0.08-2.91-0.12 l-1.45-0.06l-1.48,0c-0.98,0-1.96,0.01-2.94,0.01l-1.46,0.01c-0.38,0.01-0.91,0.06-1.35,0.09c-0.93,0.07-1.85,0.12-2.78,0.27 c-1.81,0.2-3.83,0.61-5.67,0.8c-1.87,0.2-3.73,0.4-5.56,0.6c-1.81,0.16-3.64,0.45-5.43,0.66c-1.79,0.22-3.63,0.34-5.4,0.51 c-3.53,0.25-6.92,0.47-10.3,0.55c-3.31,0.07-6.51,0.13-9.59,0.19c-3.07,0.08-6.01,0.15-8.8,0.22c-2.8,0.04-5.46,0.09-7.96,0.13 c-2.5,0-4.83,0.18-6.99,0.28c-2.16,0.11-4.14,0.22-5.93,0.31c-3.6,0.13-6.41,0.17-8.33,0.22c-1.92,0.04-2.94,0.07-2.94,0.07 c-0.33,0.01-0.61-0.26-0.62-0.59c-0.01-0.32,0.25-0.59,0.57-0.62c0,0,4.09-0.28,11.24-0.76c1.79-0.15,3.76-0.32,5.92-0.51 c0.08-0.01,0.17-0.01,0.25-0.02c-0.06-0.2-0.14-0.44-0.23-0.75c-0.11-0.39-0.26-0.85-0.39-1.38c-0.14-0.53-0.4-1.12-0.59-1.77 c-0.19-0.64-0.47-1.35-0.73-2.13c-0.26-0.77-0.55-1.58-0.78-2.42c-0.28-0.94-0.42-1.77-0.63-2.69c-0.18-0.91-0.36-1.83-0.54-2.75 c-0.19-0.91-0.31-1.84-0.47-2.74c-0.17-0.89-0.27-1.84-0.4-2.63c-0.15-0.84-0.28-1.66-0.39-2.48c-0.13-0.8-0.23-1.57-0.27-2.31 c-0.06-0.73-0.12-1.4-0.11-1.98c0-0.57,0.03-1.07,0.05-1.49c0.04-0.83,0.09-1.3,0.09-1.3c0.03-0.34,0.34-0.59,0.68-0.55 c0.25,0.03,0.44,0.19,0.52,0.41c0,0,0.16,0.45,0.39,1.25c0.12,0.4,0.26,0.88,0.39,1.43c0.15,0.55,0.36,1.13,0.54,1.78 c0.37,1.29,0.9,2.81,1.34,4.56c0.25,0.92,0.42,1.75,0.59,2.67c0.17,0.9,0.37,1.81,0.52,2.73c0.15,0.92,0.3,1.83,0.45,2.73 c0.14,0.88,0.23,1.85,0.39,2.6c0.16,0.86,0.32,1.68,0.46,2.47c0.16,0.77,0.27,1.53,0.35,2.26c0.09,0.72,0.17,1.37,0.19,1.97 c0.01,0.59,0,1.11,0,1.54c-0.01,0.35-0.02,0.62-0.03,0.83c1.68-0.15,3.46-0.31,5.34-0.37c4.99-0.24,10.62-0.5,16.77-0.79 c3.07-0.12,6.27-0.25,9.58-0.39c3.24-0.14,6.68-0.43,10.17-0.75c1.73-0.2,3.46-0.34,5.24-0.6c1.8-0.25,3.57-0.57,5.45-0.77 c1.83-0.21,3.81-0.41,5.57-0.64c1.89-0.21,3.59-0.58,5.58-0.82c-0.15-0.45-0.33-0.98-0.49-1.59c-0.13-0.47-0.28-0.97-0.4-1.51 c-0.12-0.54-0.28-1.1-0.38-1.7c-0.11-0.59-0.23-1.2-0.35-1.82c-0.1-0.61-0.21-1.29-0.29-1.86c-0.23-1.26-0.42-2.53-0.53-3.72 c-0.08-0.59-0.09-1.18-0.1-1.73c-0.02-0.55-0.03-1.08-0.02-1.56c0.01-1.94,0.23-3.26,0.23-3.26c0.06-0.34,0.39-0.58,0.73-0.52 c0.21,0.03,0.38,0.17,0.47,0.35c0,0,0.58,1.21,1.13,3.07c0.15,0.46,0.29,0.97,0.42,1.51c0.15,0.53,0.27,1.1,0.41,1.69 c0.3,1.17,0.55,2.42,0.77,3.68c0.09,0.7,0.15,1.29,0.21,1.93c0.04,0.63,0.09,1.25,0.13,1.85c0.05,0.6,0.04,1.18,0.07,1.73 c0.03,0.55,0.01,1.08,0,1.56c-0.01,0.64-0.03,1.2-0.07,1.68c0.37-0.03,0.73-0.06,1.1-0.09c0.52-0.04,0.96-0.09,1.55-0.11l1.46-0.02 c1.96,0.01,3.89-0.11,5.92,0c1.01,0.03,2.02,0.07,3.03,0.1c1.13,0.04,2.02,0.15,3.05,0.22c1,0.08,1.99,0.16,3,0.24 c1,0.09,2.03,0.26,3.04,0.38c2.01,0.27,4.02,0.53,6.05,0.8c0.4,0.06,0.79,0.1,1.18,0.15c-0.11-0.43-0.44-1.83-0.72-3.76 c-0.09-0.59-0.24-1.21-0.34-1.88c-0.11-0.67-0.22-1.38-0.34-2.11c-0.11-0.76-0.23-1.54-0.35-2.34c-0.07-0.78-0.14-1.58-0.2-2.37 c-0.05-0.93-0.08-1.63-0.1-2.44c-0.02-0.78-0.02-1.56-0.01-2.3c-0.01-0.75,0.04-1.47,0.09-2.16c0.04-0.69,0.09-1.34,0.15-1.94 c0.22-2.4,0.59-4,0.59-4c0.08-0.33,0.41-0.54,0.75-0.47c0.23,0.05,0.4,0.23,0.46,0.44c0,0,0.45,1.58,0.79,3.97 c0.19,1.19,0.34,2.58,0.47,4.08c0.08,0.75,0.16,1.52,0.21,2.3c0.05,0.76,0.11,1.65,0.13,2.32c0.08,1.57,0.16,3.15,0.23,4.62 c0.05,0.72,0.02,1.49,0.03,2.18c0,0.7-0.01,1.36-0.06,1.97c-0.19,2.3-0.49,3.84-0.53,4.02c0.19,0.01,0.38,0.03,0.56,0.05l2.98,0.24 l0.74,0.06l0.37,0.03c0.02,0,0.02,0,0.02,0l0.08,0l0.19,0l1.53-0.03l3.07-0.06l6.08-0.3l6.13-0.16l2.98-0.17l1.49-0.08l1.52-0.15 c1.27-0.14,2.57-0.25,3.83-0.39c-0.09-0.68-0.21-1.84-0.28-3.27c-0.04-0.58-0.14-1.21-0.17-1.87c-0.06-0.65-0.08-1.37-0.19-2.05 c-0.09-0.69-0.18-1.4-0.27-2.13c-0.13-0.74-0.28-1.61-0.37-2.28c-0.14-0.8-0.26-1.59-0.38-2.38c-0.09-0.81-0.13-1.61-0.18-2.39 c-0.08-0.77,0.01-1.55,0.04-2.26c0.04-0.72,0.07-1.41,0.17-2.01c0.42-2.36,0.91-3.92,0.91-3.92c0.1-0.33,0.45-0.51,0.78-0.41 c0.22,0.07,0.38,0.26,0.43,0.47c0,0,0.32,1.6,0.46,3.99c0.07,0.57,0.16,1.18,0.24,1.83c0.04,0.32,0.08,0.65,0.12,0.98 c0.02,0.33,0.06,0.68,0.13,1.03c0.12,0.7,0.24,1.42,0.35,2.16c0.15,0.75,0.28,1.52,0.4,2.29c0.13,0.89,0.21,1.6,0.31,2.4 c0.05,0.82,0.05,1.65,0.08,2.44c0.05,0.8-0.09,1.52-0.13,2.23c-0.06,0.7-0.13,1.37-0.23,1.97c-0.23,1.26-0.47,2.27-0.65,2.96 c0.2-0.03,0.41-0.05,0.62-0.09l2.93-0.41l3.01-0.51c1.97-0.37,4.01-0.61,6.03-0.87c0.99-0.13,1.98-0.25,2.97-0.38 c0.99-0.12,1.97-0.26,2.94-0.4c1.94-0.27,3.97-0.53,5.98-0.63c2.05-0.15,3.91-0.13,5.86-0.21c1.9-0.08,3.89,0,5.8,0 c0.27,0.01,0.43,0,0.78,0.02l0.7,0.06l1.4,0.12c0.93,0.08,1.86,0.16,2.78,0.24c3.68,0.41,7.38,0.88,10.87,1.67 c0.85,0.15,1.69,0.3,2.52,0.45c0.83,0.15,1.65,0.18,2.47,0.27l0.61,0.06l0.25,0.03h0.32h1.27c0.84,0,1.68,0,2.51,0 c1.66,0,3.26-0.09,4.85-0.13c0.81-0.02,1.54-0.07,2.39-0.06c0.78,0.01,1.56,0.01,2.33,0.02c1.53,0.01,3.03,0.02,4.49,0.03 c0.72,0,1.44,0,2.14,0c0.35,0,0.7,0,1.05,0.01c0.15,0,0.41,0.01,0.46-0.01l0.52-0.06c0.69-0.09,1.38-0.17,2.06-0.25 c0.68-0.08,1.27-0.26,1.9-0.38c1.21-0.24,2.52-0.59,3.74-0.86c0.64-0.11,1.27-0.22,1.9-0.33l0.46-0.08 c0.26-0.03,0.33-0.02,0.5-0.04c0.3-0.01,0.59-0.03,0.88-0.04c1.15-0.09,2.33-0.04,3.44-0.02c1.08,0.02,2.11,0.05,3.1,0.07 c0.97-0.02,1.9-0.05,2.78-0.07c1.73-0.11,3.36-0.31,4.71-0.48c1.38-0.15,2.58-0.28,3.54-0.36c1.94-0.1,2.98-0.15,2.98-0.15 c0,0,0.01,0,0.01,0C281.98,32.37,282.25,32.62,282.27,32.95z M232.98,461.79c1.95,0.19,3.44,0.36,4.52,0.41 c0.11,0,0.24,0.01,0.35,0.02c1.09-0.01,1.68-0.01,1.68-0.01l0.09,0c0.33,0,0.6,0.27,0.6,0.6c0,0.32-0.24,0.58-0.55,0.6 c0,0-0.63,0.05-1.8,0.14c-0.15,0.01-0.34,0.01-0.51,0.01c-1.14,0.02-2.64-0.02-4.45-0.12c-1.03-0.03-2.27-0.08-3.47-0.04 c-1.23,0.05-2.59,0.16-4.06,0.31c-0.76,0.06-1.54,0.13-2.35,0.2c-0.8,0.05-1.6,0.06-2.43,0.09c-0.92,0.01-1.77-0.09-2.69-0.14 c-0.87-0.11-1.77-0.22-2.68-0.33c-0.87-0.09-1.72-0.24-2.66-0.29c-0.47-0.03-0.95-0.05-1.43-0.07c-0.21-0.01-0.55-0.04-0.66-0.02 l-0.72,0.04c-1.93,0.11-3.9,0.19-5.99,0.35c-4.12,0.27-8.59,0.66-13.01,0.98c-4.54,0.38-9.16,0.9-14.08,0.94 c-1.19,0.02-2.39,0.03-3.59,0.05l-0.9,0.01l-0.8,0.08l-1.73,0.18c-1.19,0.16-2.36,0.32-3.67,0.46c-0.64,0.08-1.28,0.15-1.87,0.16 l-0.91,0.05l-0.45,0.02l-0.23,0.01h-0.14l-0.06,0l-0.12,0c-2.63-0.03-5.08-0.45-7.4-0.76l-1.8-0.21c-0.52-0.07-1.12-0.05-1.67-0.09 c-1.11-0.07-2.32,0-3.5,0.01c-1.27,0.01-2.57,0.05-3.71-0.06l-0.89-0.06l-0.22-0.01l-0.29-0.03l-0.44-0.05l-1.75-0.2 c-2.32-0.27-4.62-0.54-6.88-0.81c-1.11-0.11-2.2-0.21-3.29-0.31c-1.08-0.11-2.17-0.21-3.27-0.24c-1.09-0.06-2.17-0.12-3.24-0.18 c-1.03-0.01-2.05-0.02-3.06-0.03c-4.09-0.09-8.06,0.32-11.7,0.39c-0.85,0.05-1.68,0.1-2.49,0.15c-0.43,0.08-0.85,0.15-1.27,0.22 l-0.62,0.11l-0.05,0.01l-0.02,0l-0.14,0.04l-0.29,0.09c-1.53,0.41-2.99,0.96-4.49,1.38c-0.75,0.19-1.5,0.45-2.18,0.56 c-0.68,0.11-1.34,0.22-1.97,0.32c-1.39,0.19-2.52,0.22-3.62,0.33c-1.08,0.12-2.03,0.1-2.85,0.08c-0.83-0.01-1.53-0.02-2.1-0.02 c-1.14-0.01-1.74-0.02-1.74-0.02c-0.33,0-0.6-0.28-0.6-0.61c0-0.32,0.25-0.57,0.56-0.6c0,0,0.61-0.04,1.74-0.11 c0.57-0.04,1.27-0.08,2.09-0.13c0.82-0.05,1.78-0.09,2.8-0.26c1.01-0.15,2.22-0.27,3.36-0.49c0.62-0.14,1.27-0.28,1.95-0.43 c0.68-0.15,1.27-0.41,1.94-0.62c1.33-0.45,2.79-1.09,4.42-1.64l0.31-0.1l0.15-0.05l0.04-0.01c-0.06,0.01,0.13-0.03,0.12-0.03 l0.08-0.02l0.62-0.14c0.41-0.09,0.84-0.18,1.26-0.27c0.91-0.11,1.91-0.23,2.83-0.3c3.63-0.24,7.51-0.77,11.76-0.8 c1.08-0.02,2.17-0.04,3.27-0.06c1.07,0.03,2.15,0.05,3.24,0.08c1.09,0.02,2.21,0.09,3.35,0.19c1.14,0.09,2.29,0.18,3.45,0.27 c2.26,0.22,4.56,0.45,6.89,0.69l1.75,0.18l0.44,0.05l0.11,0.01l0.04,0c0,0,0,0,0,0l0.22,0.01l0.88,0.05 c1.21,0.1,2.29,0.04,3.41,0.03c1.2-0.01,2.39-0.1,3.69-0.02c0.65,0.03,1.25,0.01,1.93,0.09l1.8,0.19c2.47,0.31,4.82,0.69,7.04,0.73 l0.11,0.01l0.05,0c-0.01,0,0.02,0,0.03,0l0.17-0.01l0.45-0.02l0.91-0.04c0.62-0.01,1.19-0.07,1.75-0.15l3.53-0.42l1.76-0.17 c-0.01-0.07-0.01-0.13-0.02-0.21c-0.09-0.75-0.25-1.84-0.53-3.27c-0.13-0.71-0.32-1.51-0.42-2.48c-0.1-0.95-0.04-2.16,0.46-3.29 c0.49-1.12,1.25-2.07,2.09-2.96c0.23-0.23,0.38-0.41,0.7-0.69c0.22-0.19,0.44-0.39,0.67-0.59c0.39-0.39,1.08-0.83,1.68-1.22 c0.34-0.17,0.67-0.33,1.02-0.5c0.37-0.14,0.76-0.24,1.16-0.36c0.81-0.14,1.69-0.17,2.47-0.02c0.4,0.06,0.78,0.14,1.13,0.24 l0.27,0.07l0.03,0.01l0.12,0.04l0.06,0.02l0.12,0.05l0.49,0.18c0.65,0.21,1.34,0.53,2.05,0.84c1.36,0.59,2.61,1.09,3.99,1.48 c0.38,0.12,0.76,0.25,1.14,0.37l0.27,0.09c0.08,0.02,0.18,0.06,0.33,0.14c0.27,0.13,0.54,0.26,0.79,0.41 c0.98,0.57,1.74,1.76,2.02,2.67c0.31,0.93,0.45,1.58,0.68,1.89c0.2,0.32,0.5,0.53,1.05,0.74c0.14,0.04,0.27,0.11,0.41,0.14 l0.59,0.16l1.18,0.34l1.18,0.33l1.12,0.24l1.12,0.25l1.11,0.12c0.75,0.13,1.45,0.05,2.16,0.03l0.27-0.01l0.03,0c-0.01,0,0,0,0,0 l0.01,0l0.15-0.03l0.62-0.12c0.35-0.1,0.57-0.17,0.92-0.29c0.68-0.26,1.38-0.56,2.1-0.93c1.49-0.77,2.97-1.53,4.46-2.29l0.99-0.57 c0.3-0.2,0.43-0.36,0.67-0.52c0.37-0.43,0.73-0.81,0.87-1.37c0.39-1.05,0.3-2.65,0.32-4.32c0.03-0.89,0.06-1.81,0.34-2.78 c0.07-0.24,0.12-0.48,0.21-0.72l0.32-0.7c0.19-0.48,0.53-0.88,0.83-1.29c0.28-0.44,0.7-0.7,1.06-1.05l0.28-0.24l0.07-0.06 l0.09-0.06l0.12-0.08l0.48-0.33c0.68-0.45,1.46-0.91,2.23-1.25c0.78-0.36,1.65-0.63,2.58-0.77c0.93-0.13,1.95-0.02,2.86,0.32 c0.92,0.33,1.67,0.91,2.26,1.51c0.62,0.6,1.04,1.27,1.44,1.91c0.37,0.63,0.71,1.34,0.96,1.92c0.27,0.58,0.53,1.19,0.76,1.83 c0.49,1.24,0.86,2.48,1.03,3.74c0.19,1.25,0.12,2.52-0.13,3.6l-0.04,0.21l-0.01,0.05l-0.02,0.1l-0.01,0.02l-0.03,0.09l-0.12,0.35 c-0.08,0.23-0.16,0.46-0.24,0.69c-0.14,0.45-0.33,0.89-0.5,1.31c-0.17,0.42-0.34,0.82-0.5,1.21c-0.13,0.37-0.25,0.72-0.36,1.06 c-0.52,1.33-0.69,2.43-0.87,3.17c-0.09,0.4-0.16,0.69-0.2,0.89C231.05,461.62,232.03,461.71,232.98,461.79z M200.5,460.76 l-0.71-0.08l-1.3-0.29l-1.29-0.3l-1.19-0.34l-1.17-0.34l-0.58-0.17c-0.25-0.07-0.49-0.18-0.74-0.27c-0.95-0.37-2.05-1.12-2.65-2.19 c-0.61-1.06-0.73-2.01-0.92-2.56c-0.2-0.58-0.32-0.78-0.67-1.03c-0.08-0.05-0.16-0.08-0.23-0.14c-0.02-0.02-0.09-0.06-0.2-0.09 l-0.27-0.1l-1.02-0.36c-1.51-0.49-2.98-1.17-4.23-1.78c-0.6-0.3-1.18-0.6-1.86-0.86l-0.48-0.2l-0.12-0.05l-0.05-0.02l-0.2-0.06 c-0.31-0.1-0.6-0.18-0.86-0.22c-1.07-0.25-1.95-0.11-2.92,0.38c-0.45,0.28-0.85,0.44-1.35,0.87c-0.24,0.18-0.47,0.37-0.7,0.55 c-0.13,0.1-0.39,0.34-0.57,0.5c-0.79,0.71-1.46,1.44-1.85,2.17c-0.79,1.41-0.44,3.14-0.29,4.61c0.19,1.47,0.21,2.67,0.21,3.49 c0,0.06,0,0.1,0,0.15l0.69-0.01c1.2-0.01,2.4-0.02,3.59-0.03c4.64,0.04,9.37-0.4,13.9-0.71 C193.99,461.08,197.29,460.91,200.5,460.76z M228.68,461.56c0.02-0.18,0.06-0.54,0.13-1.07c0.12-0.8,0.15-2.01,0.61-3.45 c0.1-0.37,0.2-0.75,0.31-1.16c0.12-0.37,0.25-0.76,0.39-1.17c0.14-0.41,0.28-0.83,0.39-1.3c0.06-0.23,0.12-0.47,0.18-0.7l0.09-0.36 l0.02-0.07l0-0.04l0.02-0.17c0.32-1.82-0.21-3.82-1.19-6c-0.22-0.53-0.5-1.09-0.81-1.68c-0.3-0.61-0.57-1.08-0.91-1.6 c-0.67-0.98-1.48-1.87-2.38-2.13c-0.87-0.31-1.96-0.09-3.13,0.5c-0.6,0.3-1.13,0.63-1.72,1.06l-0.47,0.34l-0.12,0.09 c-0.01,0-0.07,0.05-0.03,0.02l-0.04,0.04l-0.15,0.15c-0.19,0.21-0.47,0.36-0.59,0.61c-0.68,0.86-0.9,2.01-0.88,3.5 c0.01,0.81,0.06,1.53,0.04,2.48c-0.01,0.88-0.09,1.89-0.43,2.92c-0.3,1.06-1.01,2.01-1.75,2.78c-0.41,0.35-0.9,0.75-1.3,1.01 l-1.18,0.68c-1.48,0.78-2.96,1.56-4.45,2.33c-0.77,0.39-1.59,0.78-2.48,1.11c-0.26,0.1-0.57,0.19-0.88,0.27 c1.28-0.04,2.56-0.06,3.8-0.08l0.75-0.01c0.37,0,0.52,0.04,0.79,0.05c0.48,0.04,0.96,0.09,1.43,0.13c0.94,0.09,1.93,0.28,2.86,0.41 c0.89,0.14,1.76,0.28,2.61,0.42c0.81,0.07,1.66,0.21,2.39,0.24c0.83,0.01,1.64,0.05,2.41,0.04c0.76-0.03,1.5-0.05,2.22-0.07 C226.43,461.6,227.57,461.57,228.68,461.56z M261.82,27.28c0.09,0.35,0.17,0.69,0.25,1.01c0.14,0.65,0.35,1.24,0.45,1.77 c0.09,0.52,0.2,0.98,0.28,1.37c0.17,0.76,0.29,1.21,0.29,1.21l0.02,0.07c0.06,0.23,0.25,0.41,0.5,0.44 c0.33,0.05,0.64-0.18,0.69-0.51c0,0,0.07-0.46,0.15-1.29c0.04-0.41,0.09-0.92,0.12-1.5c0.03-0.58,0-1.22-0.03-1.92 c-0.02-0.35-0.03-0.71-0.05-1.09c-0.02-0.35-0.05-0.7-0.08-1.06c-0.03-0.37-0.08-0.72-0.09-1.13c0-0.41-0.01-0.83-0.03-1.26 l-0.01-0.32l-0.01-0.16l0-0.04v-0.01c0.01,0.24,0,0.06,0,0.11l0-0.02l0.01-0.08l0.07-0.64c0.04-0.43,0.09-0.87,0.13-1.31 c0.06-0.88,0.13-1.77,0.19-2.67c0.06-0.91,0.1-1.81,0.14-2.71c0.01-0.45,0.03-0.89,0.04-1.33l0.01-0.65l0-0.16 c0-0.2,0-0.15-0.01-0.23l-0.02-0.32c-0.08-1.7-0.23-3.29-0.4-4.66c-0.31-2.73-0.73-4.55-0.73-4.55l0-0.01 c-0.05-0.23-0.23-0.41-0.47-0.46c-0.33-0.07-0.66,0.14-0.73,0.47c0,0-0.39,1.82-0.65,4.54c-0.14,1.36-0.26,2.95-0.32,4.65 l-0.01,0.32c0,0.02,0,0.18,0,0.09l-0.02,0.16l-0.07,0.65c-0.04,0.44-0.07,0.88-0.11,1.33c-0.07,0.89-0.13,1.8-0.18,2.71 c-0.04,0.92-0.08,1.84-0.11,2.75c-0.01,0.45-0.01,0.9-0.02,1.35l-0.01,0.66l0,0.08l0,0.16l0.01,0.04l0.02,0.16l0.04,0.32 c0.09,0.84,0.24,1.66,0.44,2.49C261.63,26.5,261.72,26.9,261.82,27.28z M233.3,8.71c0.01,0.84,0.04,1.73,0.1,2.65 c0.03,0.92,0.06,1.87,0.09,2.83c0.05,0.96,0.06,1.94,0.14,2.91c0.07,0.98,0.14,1.95,0.21,2.91c0.08,0.94,0.2,1.95,0.25,2.77 c0.05,0.92,0.15,1.8,0.22,2.64c0.07,0.84,0.17,1.63,0.26,2.36c0.34,2.92,0.77,4.87,0.77,4.87c0.05,0.24,0.24,0.43,0.5,0.47 c0.33,0.06,0.65-0.17,0.71-0.5l0-0.01c0,0,0.33-1.97,0.53-4.91c0.05-0.74,0.12-1.53,0.14-2.37c0.03-0.84,0.09-1.73,0.1-2.65 c0.01-1.02-0.02-1.89-0.04-2.88c-0.04-0.96-0.09-1.94-0.13-2.92c-0.03-0.98-0.13-1.95-0.19-2.91c-0.07-0.96-0.14-1.91-0.27-2.81 c-0.22-1.81-0.58-3.49-0.78-4.95c-0.39-2.66-0.84-4.49-0.92-4.79c-0.01-0.03-0.02-0.06-0.02-0.06c-0.06-0.23-0.25-0.42-0.5-0.46 c-0.34-0.05-0.65,0.18-0.7,0.51c0,0,0,0.03-0.01,0.04c-0.03,0.22-0.31,2.1-0.43,4.87C233.27,7.07,233.27,7.87,233.3,8.71z M215.35,19.18c0.1,0.72,0.21,1.45,0.34,2.17c0.27,1.47,0.59,2.86,0.88,4.16c0.16,0.66,0.26,1.27,0.39,1.87 c0.1,0.6,0.27,1.16,0.36,1.69c0.34,2.11,0.77,3.56,0.77,3.56l0.01,0.04c0.06,0.21,0.23,0.38,0.46,0.43 c0.33,0.07,0.66-0.13,0.74-0.47c0,0,0.33-1.47,0.53-3.73c0.03-0.56,0.04-1.18,0.02-1.83c-0.03-0.65,0.02-1.35-0.08-2.04 c-0.14-1.4-0.32-2.88-0.59-4.28c-0.11-0.71-0.24-1.42-0.37-2.12c-0.11-0.69-0.24-1.36-0.37-2.01c-0.13-0.65-0.2-1.27-0.32-1.87 c-0.1-0.6-0.23-1.15-0.33-1.69c-0.33-2.18-0.78-3.63-0.78-3.63c-0.06-0.2-0.23-0.37-0.45-0.43c-0.34-0.08-0.68,0.12-0.76,0.46 c0,0-0.37,1.47-0.6,3.66c-0.06,0.55-0.06,1.18-0.07,1.83c-0.01,0.65-0.04,1.36,0.04,2.05C215.21,17.71,215.26,18.44,215.35,19.18z M185.88,28.5c0.26,2.49,0.63,4.13,0.63,4.13c0.05,0.22,0.22,0.41,0.46,0.47c0.33,0.08,0.67-0.13,0.74-0.46l0-0.01 c0,0,0.39-1.63,0.67-4.04c0.17-1.21,0.25-2.6,0.41-4.12c0.18-1.52,0.35-3.15,0.45-4.78l0.13-1.16c0.04-0.41,0.08-0.83,0.12-1.24 c0.08-0.82,0.13-1.63,0.18-2.41c0.08-0.78,0-1.51-0.02-2.22c-0.03-0.7-0.06-1.37-0.12-1.98c-0.18-2.46-0.51-4.11-0.51-4.11 c-0.04-0.22-0.21-0.41-0.43-0.48c-0.33-0.1-0.68,0.09-0.77,0.42c0,0-0.48,1.61-0.86,4.05c-0.11,0.61-0.2,1.27-0.29,1.97 c-0.04,0.35-0.09,0.71-0.14,1.08c-0.03,0.37-0.07,0.74-0.15,1.11c-0.13,0.74-0.26,1.51-0.37,2.28c-0.05,0.39-0.1,0.78-0.16,1.18 l-0.15,1.27c-0.11,1.63-0.13,3.26-0.15,4.8c-0.03,0.76,0.09,1.53,0.12,2.24C185.74,27.2,185.82,27.88,185.88,28.5z M67.14,20.17 c0.14,0.49,0.28,1.02,0.47,1.5c0.2,0.47,0.41,0.93,0.64,1.4c0.2,0.42,0.41,0.83,0.63,1.23c0.2,0.39,0.35,0.77,0.54,1.14 c0.21,0.36,0.3,0.74,0.45,1.09c0.13,0.35,0.3,0.68,0.42,1.01c0.35,1.32,0.79,2.27,0.79,2.27l0.04,0.08 c0.07,0.15,0.21,0.28,0.38,0.33c0.33,0.1,0.69-0.08,0.79-0.41c0,0,0.32-1,0.48-2.6c0-0.4-0.02-0.84-0.06-1.31 c-0.05-0.47-0.06-0.98-0.22-1.46c-0.13-0.49-0.28-1.02-0.45-1.51c-0.19-0.47-0.4-0.94-0.62-1.4c-0.19-0.42-0.4-0.84-0.61-1.24 c-0.18-0.39-0.35-0.77-0.52-1.14c-0.21-0.37-0.29-0.71-0.43-1.04c-0.13-0.34-0.29-0.64-0.43-0.96c-0.37-1.44-0.84-2.39-0.84-2.39 c-0.07-0.15-0.21-0.27-0.38-0.33c-0.34-0.12-0.71,0.07-0.83,0.41c0,0-0.34,1-0.53,2.48c-0.02,0.4,0.01,0.87,0.05,1.36 C66.95,19.15,66.98,19.69,67.14,20.17z M68.45,276.48c-0.48-2.5-1.15-5.38-1.43-8.83c-0.17-1.73-0.3-3.67-0.59-5.59 c-0.36-2.02-0.89-4-1.37-6.13c-0.5-2.09-1.06-4.28-1.56-6.52c-0.5-2.27-1.01-4.61-1.54-7.03c-1.03-4.81-2.11-9.88-3.23-15.12 c-1.05-5.28-2.17-10.73-3.17-16.3c-0.26-1.39-0.52-2.79-0.78-4.19l-0.19-1.05c-0.06-0.41-0.18-0.72-0.26-1.08l-0.55-2.11 c-0.74-2.86-1.5-5.53-2.28-8.37c-0.75-2.77-1.54-5.53-2.33-8.28l-0.59-2.06l-0.32-1.08l-0.31-1c-0.42-1.32-0.81-2.68-1.19-4.03 c-0.41-1.35-0.8-2.9-1.3-4.16c-0.26-0.68-0.44-1.26-0.77-2.02l-0.78-1.9c-1.08-2.48-1.97-5.1-2.9-7.62 c-0.44-1.16-1.01-2.67-1.56-3.82c-0.28-0.6-0.55-1.2-0.83-1.8c-0.24-0.56-0.48-1.13-0.72-1.68l-0.37-0.83l-0.31-0.91 c-0.2-0.61-0.4-1.21-0.6-1.81l-0.08-0.23l-0.04-0.11l-0.02-0.06c0,0.01-0.01-0.02-0.01-0.03l-0.11-0.41l-0.25-0.91 c-0.16-0.6-0.33-1.2-0.49-1.8c-0.64-2.38-1.27-4.7-1.88-6.94c-0.6-2.25-1.07-4.28-1.38-6.41c-0.18-1.1-0.35-2.17-0.52-3.22 c-0.25-1.03-0.43-1.93-0.74-2.99c-0.61-1.87-1.18-3.64-1.72-5.3c-0.54-1.67-1.05-3.22-1.52-4.66c-0.47-1.42-0.96-2.75-1.38-3.94 c-1.64-4.76-2.57-7.48-2.57-7.48l0-0.01c-0.1-0.3-0.42-0.47-0.73-0.38c-0.32,0.09-0.51,0.42-0.42,0.74c0,0,0.19,0.69,0.54,1.99 c0.37,1.29,0.84,3.22,1.58,5.61c0.36,1.21,0.77,2.51,1.18,3.98c0.4,1.46,0.83,3.04,1.29,4.73c0.46,1.69,0.95,3.48,1.47,5.38 c0.22,0.83,0.41,1.91,0.62,2.89c0.13,0.99,0.26,2,0.39,3.03c0.17,1.09,0.24,2.19,0.51,3.33c0.24,1.14,0.45,2.32,0.74,3.42 c0.54,2.26,1.1,4.59,1.68,7c0.14,0.6,0.29,1.2,0.43,1.81l0.22,0.92l0.11,0.46l0.16,0.52c0.18,0.61,0.37,1.22,0.55,1.83l0.28,0.92 l0.38,0.96c0.26,0.64,0.53,1.28,0.79,1.92c0.27,0.6,0.54,1.2,0.81,1.8c0.29,0.61,0.51,1.19,0.74,1.77l0.34,0.87l0.18,0.49 l0.17,0.47c0.91,2.54,1.75,5.12,2.86,7.73l0.79,1.97c0.22,0.52,0.47,1.28,0.7,1.9l0.35,0.99l0.27,0.96l0.55,1.96 c1.53,5.45,3.09,10.98,4.65,16.52c0.76,2.69,1.6,5.54,2.31,8.21l0.55,2.03c0.08,0.33,0.21,0.7,0.25,0.99l0.2,1.05 c0.27,1.4,0.54,2.79,0.81,4.18c1.05,5.56,2.22,11,3.31,16.27c0.59,2.75,1.2,5.24,1.81,7.78c0.61,2.52,1.21,4.99,1.79,7.39 c0.59,2.39,1.17,4.73,1.72,6.98c0.57,2.28,1.18,4.42,1.74,6.5c0.53,2.05,1.1,4.06,1.52,5.89c0.38,1.95,0.57,3.72,0.82,5.47 c0.44,3.52,1.29,6.57,1.85,8.98c1.22,4.87,1.92,7.66,1.92,7.66c0.08,0.31,0.38,0.51,0.7,0.45c0.33-0.06,0.54-0.38,0.48-0.71l0-0.02 C69.94,284.25,69.4,281.42,68.45,276.48z" fill="#191919"/></g></g></svg>